<?xml version="1.0" encoding="utf-8"?>
<!-- Generator: Adobe Illustrator 16.0.0, SVG Export Plug-In . SVG Version: 6.00 Build 0)  -->
<!DOCTYPE svg PUBLIC "-//W3C//DTD SVG 1.1//EN" "http://www.w3.org/Graphics/SVG/1.1/DTD/svg11.dtd">
<svg version="1.1" id="logo2" xmlns="http://www.w3.org/2000/svg" xmlns:xlink="http://www.w3.org/1999/xlink" x="0px"
	 y="0px" width="60px" height="60px" viewBox="0 0 60 60" enable-background="new 0 0 60 60" xml:space="preserve">
<path fill="#07223d" d="M29.29,24.948c0-0.129-0.065-0.247-0.022-0.361c0.049-0.109,0.093-0.228,0.181-0.314
	c0.086-0.083,0.178-0.186,0.287-0.237c0.114-0.043,0.261,0.047,0.391,0.047c0.125,0,0.245-0.037,0.353,0.013
	c0.113,0.048,0.211,0.111,0.298,0.199c0.083,0.08,0.056,0.22,0.104,0.33c0.05,0.114,0.229,0.194,0.229,0.323
	c0,0.066,0.021,0.249,0.01,0.52c-0.005,0.147-0.01,0.321-0.021,0.511c-0.006,0.163-0.186,0.326-0.196,0.511
	c-0.01,0.183,0.099,0.386,0.083,0.587c-0.012,0.185-0.076,0.375-0.093,0.574c-0.011,0.189-0.108,0.378-0.126,0.571
	c-0.011,0.193,0.018,0.385-0.004,0.578c-0.011,0.199,0.102,0.404,0.087,0.601c-0.011,0.187-0.016,0.375-0.033,0.565
	c-0.012,0.186-0.027,0.378-0.043,0.56c-0.022,0.191-0.173,0.363-0.196,0.546c-0.022,0.194,0.045,0.394,0.023,0.569
	c-0.027,0.196-0.083,0.381-0.109,0.553c-0.038,0.254-0.016,0.492-0.055,0.676c-0.076,0.374-0.228,0.547-0.31,0.547
	c-0.091,0-0.174-0.184-0.25-0.561c-0.043-0.188-0.141-0.402-0.186-0.654c-0.02-0.171,0.045-0.371,0.019-0.568
	c-0.023-0.176-0.029-0.367-0.049-0.562c-0.018-0.183-0.109-0.362-0.125-0.553c-0.018-0.185,0.098-0.386,0.08-0.573
	c-0.015-0.188-0.178-0.36-0.194-0.549C29.404,29.2,29.475,29,29.459,28.806c-0.011-0.194-0.082-0.382-0.098-0.576
	c-0.011-0.194-0.05-0.388-0.066-0.576c-0.011-0.2-0.011-0.395-0.017-0.583c-0.017-0.198-0.017-0.395-0.028-0.576
	c-0.01-0.184,0.017-0.357,0.011-0.52c-0.011-0.194-0.08-0.364-0.087-0.509C29.16,25.197,29.29,25.015,29.29,24.948z M28.269,34.576
	c0.076-0.045,0.108-0.336-0.006-0.695c-0.06-0.186-0.261-0.357-0.353-0.594c-0.065-0.162-0.114-0.347-0.191-0.525
	c-0.071-0.17-0.065-0.375-0.142-0.559c-0.069-0.162-0.232-0.298-0.308-0.473c-0.083-0.168-0.181-0.326-0.262-0.497
	c-0.083-0.171-0.087-0.378-0.169-0.552c-0.081-0.176-0.167-0.348-0.256-0.521c-0.086-0.176-0.234-0.317-0.32-0.491
	c-0.087-0.175-0.114-0.378-0.195-0.553c-0.087-0.179-0.201-0.339-0.283-0.505c-0.091-0.182-0.178-0.353-0.266-0.516
	c-0.082-0.164-0.174-0.313-0.245-0.455c-0.091-0.173-0.151-0.339-0.216-0.469c-0.126-0.238-0.207-0.397-0.24-0.455
	c-0.064-0.114-0.185-0.162-0.283-0.235c-0.092-0.071-0.195-0.085-0.315-0.116c-0.107-0.028-0.223-0.221-0.342-0.205
	c-0.12,0.015-0.189,0.216-0.303,0.28c-0.109,0.065-0.311,0.033-0.382,0.128c-0.069,0.096-0.012,0.274-0.042,0.388
	c-0.033,0.114-0.174,0.235-0.158,0.354c0.015,0.123,0.185,0.204,0.249,0.316c0.034,0.057-0.004,0.29,0.142,0.52
	c0.082,0.124,0.184,0.269,0.287,0.428c0.087,0.133,0.289,0.206,0.386,0.36c0.103,0.155,0.186,0.333,0.294,0.504
	c0.103,0.155,0.289,0.266,0.396,0.432c0.104,0.157,0.136,0.368,0.25,0.531c0.104,0.157,0.196,0.33,0.306,0.494
	c0.106,0.159,0.282,0.282,0.391,0.439c0.108,0.155,0.118,0.381,0.223,0.537c0.108,0.156,0.353,0.209,0.462,0.363
	c0.107,0.154,0.107,0.388,0.217,0.534c0.119,0.156,0.331,0.231,0.44,0.376c0.12,0.16,0.137,0.383,0.239,0.518
	c0.159,0.205,0.284,0.406,0.409,0.544C27.937,34.49,28.192,34.616,28.269,34.576z M37.018,27.635
	c0.061-0.11,0.181-0.205,0.196-0.327c0.016-0.124-0.125-0.226-0.158-0.34c-0.031-0.118,0.071-0.304,0-0.405
	c-0.069-0.092-0.228-0.136-0.343-0.197c-0.113-0.066-0.234-0.172-0.353-0.183c-0.12-0.016-0.223,0.167-0.337,0.201
	c-0.119,0.029-0.233,0.008-0.33,0.079c-0.098,0.073-0.127,0.187-0.192,0.301c-0.037,0.052-0.206,0.163-0.33,0.402
	c-0.071,0.132-0.2,0.26-0.288,0.432c-0.075,0.14-0.027,0.356-0.115,0.525c-0.08,0.157-0.135,0.351-0.227,0.532
	c-0.082,0.17-0.196,0.324-0.283,0.508c-0.082,0.17-0.142,0.352-0.229,0.529c-0.086,0.17-0.299,0.281-0.381,0.458
	c-0.087,0.176-0.184,0.345-0.271,0.521c-0.083,0.176-0.116,0.364-0.196,0.537c-0.077,0.172-0.19,0.328-0.262,0.498
	c-0.08,0.174-0.195,0.33-0.266,0.498c-0.082,0.177-0.082,0.385-0.157,0.547c-0.071,0.186-0.104,0.375-0.169,0.537
	c-0.094,0.236-0.12,0.465-0.18,0.648c-0.119,0.357-0.271,0.623-0.195,0.668c0.071,0.041,0.288-0.172,0.544-0.451
	c0.124-0.141,0.207-0.367,0.37-0.568c0.105-0.137,0.293-0.226,0.413-0.383c0.108-0.146,0.146-0.352,0.26-0.508
	c0.108-0.15,0.319-0.229,0.429-0.383c0.109-0.151,0.18-0.332,0.293-0.49c0.105-0.151,0.181-0.326,0.288-0.483
	c0.109-0.157,0.272-0.283,0.382-0.442c0.114-0.164,0.224-0.32,0.332-0.479c0.113-0.163,0.282-0.285,0.385-0.443
	c0.109-0.166,0.072-0.424,0.174-0.58c0.109-0.17,0.311-0.27,0.414-0.422c0.104-0.155,0.173-0.316,0.262-0.449
	c0.102-0.163,0.211-0.299,0.291-0.424C36.938,27.873,36.986,27.691,37.018,27.635z M29.997,3.516c-0.196,0-0.392-0.087-0.582-0.079
	c-0.195,0.003-0.38,0.144-0.57,0.156c-0.201,0.007-0.408-0.156-0.599-0.145c-0.189,0.015-0.381,0.106-0.57,0.125
	c-0.19,0.02-0.391-0.024-0.576,0c-0.195,0.024-0.364,0.228-0.549,0.255c-0.195,0.032-0.396-0.013-0.585,0.021
	c-0.192,0.038-0.366,0.124-0.557,0.164c-0.188,0.041-0.395-0.02-0.587,0.024c-0.183,0.047-0.39,0.035-0.569,0.084
	c-0.196,0.052-0.336,0.234-0.522,0.288c-0.185,0.054-0.347,0.147-0.527,0.212c-0.189,0.062-0.386,0.098-0.565,0.167
	c-0.189,0.07-0.358,0.166-0.538,0.24c-0.186,0.082-0.418,0.028-0.599,0.108c-0.178,0.083-0.364,0.151-0.538,0.242
	c-0.178,0.092-0.331,0.231-0.5,0.323c-0.178,0.101-0.363,0.173-0.527,0.27c-0.174,0.104-0.357,0.18-0.52,0.286
	c-0.163,0.114-0.284,0.288-0.441,0.402c-0.164,0.118-0.289,0.274-0.44,0.391c-0.153,0.122-0.266,0.283-0.407,0.406
	c-0.147,0.125-0.387,0.14-0.527,0.273c-0.137,0.133-0.224,0.321-0.355,0.458c-0.129,0.14-0.201,0.333-0.325,0.475
	C16.795,8.81,16.605,8.9,16.491,9.044c-0.125,0.157-0.158,0.361-0.262,0.513c-0.114,0.163-0.32,0.254-0.418,0.408
	c-0.114,0.198-0.181,0.415-0.276,0.6c-0.098,0.205-0.154,0.419-0.223,0.611c-0.083,0.219-0.207,0.409-0.251,0.605
	c-0.053,0.232-0.086,0.453-0.086,0.646c0,0.209-0.061,0.413-0.039,0.595c0.023,0.211,0.234,0.371,0.278,0.542
	c0.053,0.206,0.021,0.42,0.098,0.579c0.098,0.198,0.234,0.347,0.357,0.489c0.142,0.157,0.288,0.301,0.442,0.402
	c0.14,0.087,0.278,0.171,0.413,0.224c0.156,0.058,0.303,0.159,0.444,0.186c0.256,0.053,0.485-0.073,0.583-0.073
	c0.232,0,0.456-0.016,0.668-0.095c0.217-0.082,0.467-0.128,0.636-0.275c0.168-0.143,0.244-0.388,0.342-0.578
	c0.094-0.201,0.12-0.413,0.12-0.642c0-0.231,0.032-0.467-0.049-0.665c-0.086-0.201-0.218-0.393-0.371-0.542
	c-0.151-0.151-0.374-0.211-0.569-0.299c-0.201-0.083-0.402-0.197-0.636-0.197v0.032v-0.005v-0.016v0.019v-0.003v0.055v0.035
	l-0.007-0.184v0.026v0.158V12.06v-0.039v0.14v-0.155v0.006v0.129c-0.015,0-0.037-0.034-0.058-0.038
	c-0.022-0.004-0.098,0.055-0.114,0.038c-0.018-0.013,0.027-0.101,0.02-0.127c-0.004-0.023,0.018-0.051,0.034-0.095
	c0.038-0.137,0.038-0.346,0.136-0.561c0.076-0.154,0.271-0.262,0.38-0.448c0.087-0.152,0.056-0.405,0.174-0.579
	c0.104-0.148,0.332-0.229,0.463-0.395c0.12-0.148,0.158-0.384,0.293-0.539c0.131-0.139,0.363-0.19,0.511-0.337
	c0.135-0.133,0.31-0.239,0.467-0.371c0.146-0.127,0.31-0.227,0.479-0.353c0.151-0.117,0.261-0.31,0.429-0.424
	c0.162-0.111,0.315-0.248,0.496-0.35c0.167-0.102,0.331-0.23,0.509-0.326c0.173-0.094,0.408-0.075,0.598-0.166
	c0.179-0.084,0.332-0.217,0.526-0.296c0.181-0.076,0.365-0.15,0.561-0.219c0.189-0.068,0.406-0.037,0.602-0.099
	c0.186-0.063,0.327-0.272,0.523-0.326c0.185-0.049,0.375-0.13,0.564-0.179c0.189-0.042,0.386-0.086,0.58-0.128
	c0.192-0.038,0.42,0.094,0.614,0.061c0.186-0.031,0.365-0.182,0.561-0.206c0.19-0.025,0.398,0.009,0.592-0.016
	c0.196-0.019,0.403,0.051,0.604,0.035c0.191-0.016,0.38-0.065,0.582-0.076c0.196-0.008,0.385-0.151,0.587-0.152
	C29.6,5.464,29.796,5.45,29.997,5.45c0.201,0,0.402-0.004,0.597,0c0.201,0.007,0.399,0.146,0.594,0.157
	c0.195,0.008,0.402-0.06,0.592-0.048c0.201,0.015,0.391,0.064,0.587,0.086c0.2,0.019,0.406-0.022,0.599,0.004
	c0.2,0.027,0.379,0.16,0.568,0.193c0.197,0.034,0.398,0.038,0.588,0.076c0.197,0.038,0.402,0.017,0.593,0.061
	c0.196,0.046,0.362,0.179,0.55,0.231c0.195,0.054,0.373,0.126,0.559,0.182c0.197,0.064,0.408,0.062,0.593,0.129
	c0.196,0.072,0.331,0.27,0.516,0.344c0.192,0.078,0.435,0.027,0.609,0.114c0.185,0.088,0.332,0.255,0.505,0.347
	C38.23,7.423,38.43,7.47,38.6,7.571c0.18,0.106,0.358,0.193,0.521,0.304c0.174,0.114,0.326,0.248,0.484,0.362
	c0.163,0.126,0.314,0.258,0.461,0.385c0.159,0.134,0.278,0.294,0.418,0.432c0.153,0.143,0.338,0.24,0.463,0.382
	c0.147,0.152,0.251,0.326,0.371,0.473c0.136,0.163,0.193,0.36,0.303,0.517c0.109,0.167,0.24,0.311,0.326,0.463
	c0.114,0.186,0.189,0.359,0.268,0.514c0.098,0.213,0.162,0.387,0.2,0.52c0.018,0.043-0.005,0.054-0.017,0.081
	c0,0.029,0.023,0.029,0,0.041c-0.011,0.015-0.026-0.038-0.055-0.031c-0.016,0.004-0.01,0.062-0.025,0.062l-0.006,0.068v-0.064v0.039
	l0,0l-0.006,0.088v-0.078v0.054v-0.054v0.046v-0.046v-0.003l-0.006,0.031v-0.087v0.068v0.053v-0.103
	c-0.229,0-0.424,0.122-0.627,0.212c-0.193,0.081-0.422,0.121-0.579,0.274c-0.147,0.146-0.224,0.367-0.304,0.564
	c-0.088,0.2-0.105,0.414-0.105,0.645c0,0.229,0.029,0.438,0.125,0.637c0.1,0.192,0.209,0.388,0.376,0.534
	c0.169,0.145,0.349,0.318,0.56,0.401c0.213,0.076,0.469,0.119,0.695,0.119c0.104,0,0.332,0.019,0.587-0.032
	c0.143-0.025,0.261-0.188,0.421-0.245c0.135-0.05,0.318-0.035,0.461-0.122c0.156-0.102,0.303-0.261,0.444-0.418
	c0.12-0.143,0.137-0.367,0.229-0.562c0.082-0.158,0.217-0.305,0.271-0.512c0.043-0.171,0.006-0.369,0.032-0.576
	c0.022-0.181,0.174-0.367,0.174-0.576c0-0.193-0.049-0.415-0.099-0.656c-0.049-0.194-0.215-0.365-0.303-0.583
	c-0.07-0.194-0.07-0.432-0.169-0.638c-0.099-0.188-0.239-0.356-0.357-0.549c-0.094-0.16-0.147-0.352-0.263-0.511
	c-0.104-0.152-0.227-0.301-0.347-0.456c-0.114-0.147-0.323-0.22-0.452-0.368c-0.124-0.139-0.152-0.369-0.288-0.511
	c-0.132-0.136-0.337-0.196-0.478-0.331c-0.137-0.131-0.277-0.253-0.424-0.381c-0.142-0.123-0.217-0.331-0.371-0.453
	c-0.15-0.12-0.319-0.222-0.482-0.337c-0.158-0.116-0.299-0.261-0.469-0.37c-0.162-0.107-0.324-0.216-0.498-0.323
	c-0.165-0.095-0.349-0.175-0.518-0.27c-0.174-0.095-0.379-0.12-0.559-0.208c-0.174-0.088-0.32-0.236-0.5-0.323
	c-0.181-0.079-0.381-0.109-0.566-0.185c-0.18-0.076-0.326-0.25-0.51-0.323c-0.186-0.068-0.431,0.043-0.621-0.021
	c-0.178-0.06-0.357-0.125-0.537-0.186c-0.186-0.054-0.364-0.122-0.549-0.174c-0.184-0.047-0.37-0.103-0.56-0.149
	c-0.185-0.043-0.343-0.216-0.534-0.257c-0.184-0.036-0.391,0.007-0.586-0.026c-0.186-0.034-0.375-0.058-0.565-0.083
	c-0.185-0.03-0.374-0.081-0.565-0.103c-0.195-0.021-0.375-0.127-0.57-0.147c-0.189-0.016-0.392,0.06-0.586,0.049
	c-0.184-0.017-0.375-0.145-0.571-0.152c-0.19-0.008-0.391,0.167-0.587,0.163C30.382,3.562,30.191,3.516,29.997,3.516z
	 M29.997,56.483c0.195,0,0.391,0.085,0.588,0.082c0.194-0.007,0.384-0.146,0.576-0.154c0.189-0.012,0.396,0.154,0.586,0.14
	c0.195-0.012,0.382-0.105,0.57-0.121c0.197-0.019,0.393,0.021,0.581,0c0.196-0.023,0.36-0.23,0.55-0.255
	c0.189-0.03,0.391,0.013,0.582-0.022c0.195-0.035,0.369-0.128,0.559-0.166c0.191-0.037,0.397,0.019,0.583-0.023
	c0.19-0.048,0.391-0.037,0.575-0.083c0.186-0.054,0.338-0.231,0.517-0.287c0.186-0.058,0.349-0.152,0.533-0.213
	c0.19-0.063,0.38-0.104,0.565-0.167c0.184-0.072,0.357-0.171,0.531-0.247c0.186-0.075,0.424-0.022,0.598-0.101
	c0.187-0.084,0.371-0.159,0.539-0.246c0.186-0.09,0.336-0.229,0.506-0.326c0.173-0.096,0.362-0.164,0.527-0.266
	c0.168-0.104,0.357-0.182,0.52-0.288c0.164-0.106,0.285-0.286,0.44-0.398c0.164-0.121,0.289-0.272,0.44-0.392
	c0.154-0.123,0.262-0.283,0.403-0.404c0.153-0.129,0.391-0.145,0.527-0.276c0.142-0.13,0.229-0.319,0.353-0.456
	c0.136-0.141,0.207-0.332,0.326-0.477c0.129-0.145,0.321-0.234,0.437-0.379c0.124-0.158,0.155-0.364,0.259-0.517
	c0.115-0.161,0.32-0.249,0.415-0.409c0.118-0.193,0.183-0.408,0.276-0.598c0.104-0.205,0.157-0.418,0.232-0.609
	c0.082-0.221,0.201-0.407,0.246-0.604c0.053-0.236,0.086-0.455,0.086-0.647c0-0.208,0.061-0.414,0.038-0.595
	c-0.021-0.209-0.228-0.369-0.276-0.543c-0.055-0.207-0.018-0.422-0.098-0.58c-0.098-0.193-0.234-0.348-0.354-0.484
	c-0.146-0.159-0.294-0.3-0.447-0.406c-0.14-0.086-0.275-0.166-0.418-0.221c-0.152-0.062-0.298-0.159-0.44-0.188
	c-0.255-0.049-0.482,0.076-0.587,0.076c-0.227,0-0.455,0.014-0.662,0.097c-0.219,0.077-0.468,0.124-0.637,0.271
	c-0.168,0.144-0.244,0.386-0.342,0.58c-0.092,0.197-0.12,0.408-0.12,0.637c0,0.234-0.032,0.468,0.05,0.67
	c0.088,0.201,0.217,0.391,0.367,0.541c0.154,0.152,0.371,0.213,0.572,0.297c0.196,0.088,0.402,0.196,0.631,0.2v-0.03v-0.006v-0.017
	v0.025h0.006v-0.056v-0.034v0.185V47.82v0.158v-0.133l0.006,0.135v-0.14v0.151v-0.004l0.006-0.129c0.016,0,0.031,0.035,0.054,0.038
	c0.021,0.005,0.099-0.056,0.113-0.041c0.017,0.013-0.033,0.104-0.022,0.13c0.008,0.025-0.021,0.053-0.025,0.092
	c-0.044,0.139-0.044,0.348-0.143,0.562c-0.076,0.154-0.271,0.265-0.379,0.448c-0.088,0.153-0.05,0.405-0.17,0.579
	c-0.103,0.149-0.336,0.234-0.467,0.395c-0.121,0.149-0.152,0.387-0.294,0.541c-0.13,0.138-0.358,0.193-0.505,0.338
	c-0.141,0.133-0.315,0.238-0.467,0.371c-0.154,0.125-0.316,0.229-0.479,0.35c-0.157,0.121-0.268,0.311-0.44,0.428
	c-0.157,0.109-0.315,0.242-0.489,0.35c-0.168,0.098-0.332,0.229-0.512,0.326c-0.18,0.094-0.406,0.074-0.592,0.162
	c-0.179,0.084-0.342,0.219-0.533,0.298c-0.18,0.073-0.369,0.15-0.565,0.221c-0.179,0.069-0.401,0.038-0.603,0.101
	c-0.18,0.059-0.326,0.268-0.522,0.324c-0.183,0.047-0.368,0.129-0.564,0.176c-0.19,0.046-0.38,0.092-0.581,0.131
	c-0.189,0.039-0.412-0.094-0.61-0.063c-0.189,0.035-0.368,0.179-0.565,0.206c-0.189,0.025-0.395-0.006-0.591,0.014
	c-0.196,0.019-0.397-0.05-0.599-0.034c-0.189,0.015-0.385,0.067-0.58,0.076c-0.195,0.014-0.394,0.151-0.594,0.153
	c-0.194,0.006-0.391,0.023-0.597,0.023c-0.201,0-0.396,0.002-0.597-0.004c-0.202-0.002-0.391-0.146-0.587-0.158
	c-0.202-0.008-0.402,0.062-0.598,0.047c-0.195-0.014-0.392-0.066-0.588-0.085c-0.194-0.019-0.402,0.019-0.592-0.005
	c-0.201-0.027-0.38-0.157-0.576-0.189c-0.196-0.029-0.392-0.037-0.582-0.074c-0.201-0.041-0.408-0.02-0.598-0.064
	c-0.189-0.047-0.359-0.178-0.544-0.23c-0.189-0.053-0.374-0.123-0.559-0.184c-0.196-0.061-0.409-0.059-0.594-0.127
	c-0.195-0.07-0.335-0.267-0.516-0.342c-0.19-0.079-0.429-0.033-0.608-0.115c-0.191-0.086-0.333-0.253-0.506-0.348
	c-0.184-0.096-0.387-0.146-0.554-0.246c-0.174-0.104-0.36-0.19-0.527-0.303c-0.169-0.113-0.322-0.244-0.478-0.367
	c-0.164-0.122-0.311-0.252-0.462-0.381c-0.158-0.133-0.277-0.291-0.419-0.426c-0.146-0.149-0.331-0.244-0.462-0.385
	c-0.141-0.155-0.251-0.324-0.364-0.477c-0.135-0.16-0.195-0.357-0.305-0.512c-0.12-0.171-0.242-0.314-0.33-0.467
	c-0.11-0.186-0.186-0.36-0.261-0.512c-0.105-0.213-0.169-0.385-0.211-0.521c-0.011-0.043,0.011-0.054,0.022-0.081
	c0-0.026-0.022-0.026-0.006-0.041c0.015-0.013,0.033,0.038,0.054,0.036c0.022-0.008,0.022-0.062,0.037-0.062v-0.068v0.06v-0.032
	v-0.002v-0.088v0.076V47.82v0.052l0.007-0.042v0.045v0.005v-0.03l0,0v0.066v0.055v-0.053c0.234-0.002,0.428-0.125,0.625-0.213
	c0.201-0.086,0.435-0.121,0.586-0.273c0.146-0.15,0.223-0.369,0.304-0.566c0.087-0.199,0.109-0.414,0.109-0.648
	c0-0.229-0.034-0.438-0.131-0.635c-0.091-0.191-0.211-0.383-0.375-0.53c-0.167-0.147-0.347-0.321-0.559-0.399
	c-0.218-0.082-0.469-0.119-0.701-0.119c-0.098,0-0.326-0.02-0.583,0.026c-0.135,0.027-0.262,0.185-0.417,0.247
	c-0.136,0.053-0.326,0.034-0.462,0.123c-0.159,0.104-0.305,0.258-0.447,0.418c-0.118,0.14-0.137,0.364-0.228,0.561
	c-0.082,0.16-0.212,0.308-0.266,0.51C15.1,46.592,15.132,46.787,15.111,47c-0.022,0.178-0.174,0.365-0.174,0.573
	c0,0.192,0.049,0.415,0.099,0.651c0.042,0.197,0.223,0.371,0.304,0.588c0.071,0.196,0.071,0.43,0.167,0.637
	c0.099,0.186,0.241,0.361,0.354,0.557c0.098,0.154,0.154,0.348,0.267,0.504c0.103,0.15,0.223,0.307,0.349,0.458
	c0.113,0.147,0.32,0.218,0.445,0.364c0.125,0.145,0.158,0.371,0.287,0.516c0.131,0.133,0.337,0.193,0.478,0.33
	c0.137,0.127,0.278,0.25,0.432,0.377c0.14,0.127,0.211,0.334,0.368,0.457c0.147,0.119,0.321,0.219,0.483,0.336
	c0.153,0.115,0.299,0.258,0.463,0.369c0.164,0.106,0.331,0.218,0.5,0.318c0.168,0.105,0.348,0.178,0.527,0.275
	c0.168,0.096,0.38,0.118,0.554,0.209c0.173,0.087,0.322,0.236,0.5,0.318c0.174,0.08,0.38,0.113,0.565,0.187
	c0.174,0.075,0.322,0.25,0.511,0.321c0.18,0.07,0.429-0.041,0.621,0.023c0.173,0.063,0.353,0.129,0.538,0.186
	c0.183,0.051,0.364,0.125,0.547,0.174c0.186,0.05,0.365,0.105,0.556,0.151c0.184,0.042,0.347,0.216,0.539,0.257
	c0.189,0.038,0.384-0.004,0.58,0.028c0.186,0.034,0.38,0.056,0.572,0.082c0.184,0.027,0.375,0.073,0.565,0.101
	c0.19,0.021,0.375,0.127,0.57,0.147c0.185,0.017,0.386-0.063,0.581-0.05c0.191,0.015,0.381,0.145,0.577,0.151
	c0.19,0.011,0.386-0.167,0.582-0.165C29.611,56.438,29.801,56.483,29.997,56.483z M56.48,30.003c0-0.201,0.088-0.394,0.08-0.586
	c-0.003-0.197-0.145-0.383-0.156-0.573c-0.006-0.197,0.156-0.4,0.146-0.59c-0.016-0.195-0.107-0.383-0.125-0.573
	c-0.021-0.193,0.021-0.391,0-0.583c-0.027-0.194-0.229-0.357-0.26-0.546c-0.029-0.194,0.009-0.395-0.018-0.583
	c-0.037-0.193-0.125-0.37-0.162-0.555c-0.039-0.189,0.016-0.398-0.027-0.584c-0.049-0.189-0.038-0.39-0.082-0.579
	c-0.055-0.187-0.233-0.331-0.287-0.512c-0.06-0.188-0.154-0.354-0.213-0.53c-0.065-0.19-0.104-0.384-0.17-0.568
	c-0.07-0.189-0.166-0.356-0.242-0.539c-0.076-0.182-0.029-0.416-0.104-0.595c-0.087-0.182-0.157-0.37-0.244-0.542
	c-0.093-0.178-0.228-0.331-0.326-0.501c-0.093-0.169-0.169-0.359-0.265-0.528c-0.105-0.168-0.182-0.358-0.283-0.516
	c-0.115-0.168-0.295-0.285-0.402-0.443c-0.121-0.16-0.273-0.288-0.391-0.439c-0.125-0.152-0.283-0.263-0.409-0.405
	c-0.125-0.146-0.142-0.388-0.272-0.524c-0.135-0.144-0.326-0.227-0.463-0.356c-0.135-0.133-0.33-0.201-0.471-0.323
	c-0.146-0.13-0.234-0.321-0.381-0.435c-0.157-0.122-0.357-0.155-0.517-0.261c-0.159-0.111-0.25-0.316-0.407-0.417
	c-0.195-0.114-0.412-0.179-0.598-0.274c-0.207-0.103-0.42-0.155-0.608-0.226c-0.224-0.086-0.407-0.206-0.604-0.248
	c-0.238-0.056-0.457-0.088-0.646-0.088c-0.212,0-0.418-0.062-0.598-0.044c-0.211,0.026-0.369,0.234-0.543,0.283
	c-0.201,0.057-0.418,0.016-0.576,0.097c-0.195,0.098-0.348,0.234-0.49,0.359c-0.158,0.14-0.304,0.284-0.402,0.443
	c-0.086,0.136-0.166,0.274-0.215,0.41c-0.067,0.158-0.164,0.302-0.192,0.442c-0.048,0.257,0.075,0.485,0.075,0.587
	c0,0.231,0.012,0.455,0.095,0.668c0.08,0.21,0.13,0.462,0.272,0.628c0.151,0.167,0.391,0.246,0.585,0.342
	c0.192,0.094,0.403,0.123,0.636,0.123c0.234,0,0.469,0.027,0.67-0.055c0.2-0.084,0.391-0.217,0.539-0.369
	c0.15-0.15,0.211-0.367,0.297-0.565c0.087-0.198,0.196-0.405,0.196-0.632h-0.027v-0.006V17.68v0.018v0c0,0-0.049,0-0.049-0.004
	h-0.033c0-0.002,0.181-0.002,0.181-0.002h-0.17h0.151h-0.125h0.132H47.84l0.152-0.004l0,0c0,0-0.137,0-0.137-0.001
	c0-0.018,0.038-0.036,0.043-0.057c0.006-0.02-0.054-0.098-0.043-0.113c0.012-0.019,0.104,0.026,0.129,0.022
	c0.027-0.007,0.057,0.019,0.1,0.03c0.135,0.041,0.342,0.038,0.561,0.137c0.15,0.072,0.26,0.273,0.443,0.376
	c0.154,0.093,0.409,0.052,0.576,0.172c0.154,0.108,0.235,0.336,0.398,0.467c0.146,0.118,0.385,0.155,0.537,0.293
	c0.141,0.131,0.196,0.36,0.338,0.509c0.137,0.139,0.238,0.31,0.374,0.465c0.125,0.148,0.229,0.318,0.349,0.481
	c0.119,0.159,0.309,0.261,0.43,0.433c0.109,0.162,0.238,0.311,0.348,0.492c0.098,0.167,0.229,0.332,0.326,0.513
	c0.092,0.174,0.075,0.408,0.162,0.595c0.088,0.177,0.223,0.333,0.299,0.53c0.077,0.177,0.152,0.367,0.218,0.56
	c0.071,0.188,0.038,0.411,0.098,0.608c0.06,0.183,0.278,0.321,0.331,0.518c0.049,0.184,0.125,0.373,0.169,0.569
	c0.05,0.186,0.091,0.385,0.136,0.577c0.039,0.19-0.098,0.414-0.061,0.614c0.027,0.189,0.175,0.365,0.203,0.563
	c0.026,0.191-0.006,0.395,0.016,0.593c0.021,0.197-0.05,0.398-0.033,0.6c0.018,0.192,0.066,0.381,0.078,0.583
	c0.01,0.196,0.145,0.387,0.15,0.59c0.004,0.195,0.022,0.396,0.022,0.6c0,0.198,0,0.398,0,0.595c-0.007,0.201-0.147,0.396-0.158,0.59
	c-0.012,0.201,0.061,0.399,0.044,0.596c-0.018,0.201-0.066,0.395-0.082,0.584c-0.021,0.205,0.016,0.407-0.011,0.598
	c-0.022,0.201-0.157,0.381-0.19,0.576s-0.039,0.396-0.071,0.584c-0.043,0.199-0.017,0.406-0.058,0.592
	c-0.057,0.194-0.186,0.364-0.234,0.55c-0.056,0.19-0.126,0.376-0.191,0.557c-0.06,0.198-0.055,0.407-0.124,0.596
	c-0.071,0.192-0.268,0.333-0.343,0.513c-0.077,0.191-0.027,0.432-0.108,0.615c-0.094,0.184-0.261,0.327-0.349,0.502
	c-0.098,0.18-0.147,0.386-0.25,0.552c-0.103,0.181-0.189,0.362-0.299,0.524c-0.119,0.171-0.244,0.326-0.364,0.48
	c-0.13,0.163-0.261,0.319-0.386,0.467c-0.137,0.156-0.293,0.275-0.43,0.418c-0.146,0.146-0.238,0.33-0.385,0.461
	c-0.153,0.142-0.322,0.25-0.475,0.367c-0.162,0.127-0.357,0.193-0.509,0.301c-0.175,0.117-0.317,0.242-0.469,0.33
	c-0.185,0.108-0.358,0.186-0.511,0.257c-0.217,0.102-0.385,0.17-0.521,0.209c-0.044,0.015-0.055-0.004-0.082-0.013
	c-0.022-0.006-0.026,0.02-0.037,0.002c-0.016-0.016,0.033-0.031,0.033-0.054c-0.008-0.02-0.061-0.017-0.061-0.034l-0.07-0.004h0.06
	c0-0.004-0.027-0.004-0.027-0.004l-0.011-0.001l0.011-0.093v0.078v-0.057l-0.016,0.071h-0.049h0.049l0,0l-0.029-0.003l0.045-0.044
	v0.065v0.059l0.027-0.08c0-0.229-0.125-0.424-0.212-0.625c-0.088-0.198-0.127-0.432-0.277-0.58
	c-0.152-0.148-0.369-0.228-0.572-0.309c-0.2-0.085-0.406-0.105-0.641-0.105c-0.232,0-0.439,0.031-0.636,0.129
	c-0.19,0.097-0.384,0.207-0.532,0.373c-0.147,0.169-0.314,0.352-0.396,0.562c-0.08,0.21-0.119,0.465-0.119,0.695
	c0,0.102-0.021,0.329,0.027,0.588c0.027,0.137,0.186,0.26,0.243,0.416c0.056,0.135,0.033,0.326,0.12,0.462
	c0.104,0.156,0.262,0.304,0.418,0.444c0.143,0.12,0.364,0.131,0.561,0.229c0.162,0.077,0.311,0.21,0.511,0.267
	c0.174,0.045,0.376,0.01,0.581,0.034c0.181,0.019,0.364,0.177,0.576,0.177c0.189,0,0.412-0.051,0.646-0.105
	c0.197-0.045,0.375-0.219,0.594-0.299c0.191-0.071,0.43-0.068,0.635-0.172c0.186-0.093,0.359-0.236,0.555-0.354
	c0.158-0.096,0.343-0.148,0.512-0.264c0.146-0.103,0.299-0.227,0.45-0.348c0.151-0.113,0.224-0.322,0.37-0.451
	c0.141-0.121,0.369-0.152,0.512-0.289c0.135-0.127,0.195-0.329,0.324-0.474c0.131-0.136,0.256-0.276,0.387-0.427
	c0.119-0.138,0.332-0.217,0.449-0.367c0.121-0.148,0.225-0.326,0.345-0.483c0.107-0.161,0.249-0.298,0.363-0.468
	c0.11-0.16,0.218-0.326,0.319-0.498c0.098-0.162,0.182-0.353,0.273-0.523c0.098-0.172,0.12-0.379,0.212-0.556
	c0.087-0.176,0.233-0.323,0.315-0.501c0.082-0.177,0.113-0.379,0.189-0.563c0.076-0.179,0.25-0.323,0.322-0.509
	c0.064-0.184-0.044-0.434,0.021-0.622c0.059-0.179,0.125-0.358,0.178-0.54c0.061-0.183,0.13-0.357,0.186-0.549
	c0.043-0.182,0.098-0.365,0.146-0.555c0.044-0.184,0.218-0.342,0.256-0.535c0.037-0.187-0.004-0.391,0.026-0.584
	c0.034-0.188,0.054-0.372,0.082-0.568c0.032-0.186,0.081-0.375,0.103-0.568c0.023-0.186,0.127-0.375,0.142-0.564
	c0.022-0.189-0.054-0.395-0.042-0.588c0.016-0.189,0.145-0.375,0.152-0.568c0.01-0.193-0.17-0.395-0.164-0.592
	C56.438,30.387,56.48,30.197,56.48,30.003z M3.518,30.003c0,0.194-0.086,0.39-0.082,0.579c0.006,0.197,0.147,0.386,0.158,0.576
	c0.011,0.197-0.158,0.398-0.14,0.588c0.011,0.2,0.102,0.385,0.125,0.572c0.012,0.194-0.027,0.395,0,0.584
	c0.022,0.193,0.223,0.355,0.25,0.545c0.027,0.193-0.011,0.395,0.021,0.584c0.039,0.193,0.125,0.371,0.163,0.557
	c0.038,0.19-0.02,0.398,0.029,0.584c0.043,0.189,0.038,0.394,0.08,0.576c0.056,0.186,0.229,0.334,0.289,0.516
	c0.054,0.186,0.151,0.353,0.211,0.533c0.064,0.188,0.098,0.383,0.169,0.564c0.069,0.186,0.168,0.356,0.244,0.539
	c0.076,0.182,0.026,0.414,0.102,0.591c0.087,0.183,0.151,0.372,0.246,0.542c0.092,0.182,0.229,0.334,0.319,0.502
	c0.099,0.174,0.17,0.362,0.272,0.527c0.104,0.17,0.181,0.361,0.284,0.521c0.113,0.163,0.288,0.283,0.402,0.438
	c0.119,0.161,0.272,0.295,0.39,0.442c0.126,0.153,0.285,0.261,0.409,0.405c0.125,0.146,0.141,0.389,0.271,0.525
	c0.136,0.141,0.321,0.225,0.457,0.354c0.141,0.135,0.331,0.203,0.473,0.328c0.153,0.126,0.24,0.315,0.384,0.431
	c0.159,0.118,0.36,0.155,0.512,0.261c0.163,0.113,0.256,0.318,0.414,0.414c0.196,0.117,0.408,0.186,0.591,0.279
	c0.213,0.099,0.425,0.156,0.616,0.227c0.216,0.081,0.406,0.201,0.603,0.25c0.239,0.051,0.456,0.084,0.646,0.084
	c0.212,0,0.412,0.062,0.592,0.039c0.213-0.023,0.375-0.232,0.543-0.277c0.208-0.054,0.419-0.02,0.583-0.099
	c0.195-0.098,0.347-0.234,0.483-0.356c0.163-0.141,0.304-0.288,0.402-0.444c0.093-0.136,0.175-0.278,0.229-0.413
	c0.06-0.153,0.162-0.299,0.184-0.438c0.049-0.259-0.076-0.486-0.076-0.588c0-0.23-0.011-0.456-0.093-0.668
	c-0.081-0.212-0.13-0.461-0.275-0.631c-0.143-0.168-0.383-0.244-0.576-0.343c-0.196-0.095-0.409-0.122-0.644-0.122
	c-0.233,0-0.466-0.029-0.667,0.051c-0.196,0.088-0.391,0.223-0.538,0.371c-0.153,0.148-0.213,0.37-0.3,0.571
	c-0.086,0.194-0.195,0.401-0.195,0.63h0.029v-0.006v-0.014v0.02v0.003h0.053h0.027h-0.179l0.099-0.071v0.158v-0.131l-0.088,0.044
	l0.141,0.001c0,0-0.151,0-0.151,0.004l0,0h0.136c0,0.021-0.038,0.041-0.045,0.061c-0.004,0.019,0.056,0.1,0.045,0.117
	c-0.016,0.013-0.104-0.034-0.132-0.027c-0.021,0.004-0.053-0.018-0.097-0.033c-0.136-0.038-0.343-0.038-0.556-0.139
	c-0.156-0.07-0.265-0.27-0.45-0.375c-0.153-0.089-0.407-0.051-0.576-0.168c-0.153-0.109-0.233-0.338-0.396-0.471
	c-0.148-0.117-0.386-0.15-0.539-0.288c-0.142-0.132-0.196-0.364-0.336-0.508c-0.132-0.141-0.24-0.31-0.375-0.468
	c-0.125-0.148-0.228-0.316-0.348-0.48c-0.12-0.154-0.311-0.262-0.429-0.432c-0.109-0.163-0.245-0.316-0.349-0.492
	c-0.098-0.17-0.227-0.33-0.332-0.516c-0.087-0.173-0.07-0.406-0.158-0.591c-0.086-0.183-0.222-0.341-0.298-0.527
	c-0.076-0.181-0.152-0.372-0.218-0.565c-0.071-0.188-0.043-0.408-0.098-0.605c-0.064-0.186-0.271-0.324-0.325-0.516
	c-0.05-0.191-0.132-0.375-0.181-0.572c-0.044-0.186-0.085-0.383-0.13-0.578c-0.038-0.189,0.099-0.415,0.06-0.611
	c-0.027-0.19-0.174-0.367-0.201-0.564c-0.027-0.19,0.005-0.391-0.018-0.596c-0.015-0.193,0.049-0.394,0.034-0.596
	c-0.016-0.195-0.064-0.383-0.071-0.584c-0.009-0.193-0.151-0.389-0.151-0.59c-0.011-0.196-0.027-0.396-0.027-0.595
	c0-0.204,0-0.405,0.004-0.6c0.006-0.203,0.147-0.391,0.154-0.59c0.011-0.201-0.06-0.399-0.044-0.596
	c0.011-0.197,0.064-0.394,0.087-0.586c0.015-0.198-0.022-0.406,0.006-0.595c0.027-0.198,0.156-0.38,0.19-0.573
	c0.031-0.197,0.038-0.397,0.076-0.586c0.032-0.197,0.015-0.406,0.053-0.592c0.05-0.196,0.186-0.366,0.24-0.549
	c0.056-0.193,0.125-0.374,0.181-0.558c0.064-0.196,0.064-0.408,0.125-0.595c0.076-0.193,0.271-0.336,0.347-0.515
	c0.076-0.187,0.033-0.435,0.114-0.611c0.087-0.188,0.25-0.329,0.344-0.507c0.098-0.178,0.146-0.379,0.249-0.55
	c0.104-0.179,0.19-0.361,0.3-0.522c0.118-0.174,0.25-0.331,0.363-0.485c0.126-0.164,0.262-0.313,0.387-0.462
	c0.135-0.159,0.293-0.276,0.429-0.416c0.14-0.148,0.239-0.334,0.38-0.464c0.158-0.14,0.326-0.249,0.473-0.37
	c0.167-0.129,0.369-0.191,0.516-0.297c0.174-0.117,0.314-0.245,0.467-0.33c0.186-0.11,0.359-0.19,0.512-0.266
	c0.211-0.097,0.385-0.164,0.521-0.204c0.043-0.013,0.055,0.011,0.081,0.014c0.028,0.008,0.028-0.019,0.044,0
	c0.012,0.013-0.038,0.036-0.038,0.054c0.01,0.019,0.065,0.015,0.065,0.033c0,0.001,0.064,0.001,0.064,0.001h-0.06l0.033,0.004h0.006
	h0.08h-0.076h0.061h-0.054c0,0,0.042,0,0.042,0.002h-0.049c0,0.004,0,0.004,0,0.004l-0.015-0.045l0,0v0.065v0.057l-0.023-0.077
	c0,0.227,0.125,0.425,0.205,0.623c0.087,0.196,0.127,0.427,0.278,0.583c0.153,0.146,0.369,0.223,0.571,0.306
	c0.196,0.081,0.407,0.1,0.64,0.1c0.234,0,0.441-0.027,0.636-0.122c0.191-0.099,0.387-0.209,0.534-0.377
	c0.146-0.166,0.319-0.346,0.395-0.557c0.083-0.215,0.125-0.465,0.125-0.696c0-0.102,0.017-0.331-0.032-0.587
	c-0.027-0.137-0.186-0.261-0.245-0.416c-0.054-0.137-0.032-0.328-0.126-0.463c-0.096-0.156-0.26-0.303-0.417-0.44
	c-0.136-0.126-0.364-0.137-0.559-0.234c-0.157-0.08-0.304-0.212-0.511-0.267c-0.176-0.045-0.365-0.011-0.576-0.036
	c-0.184-0.019-0.364-0.179-0.576-0.179c-0.191,0-0.418,0.054-0.653,0.11c-0.194,0.042-0.369,0.212-0.592,0.299
	c-0.189,0.069-0.425,0.068-0.629,0.17c-0.192,0.092-0.36,0.237-0.556,0.35c-0.157,0.099-0.342,0.152-0.509,0.265
	c-0.147,0.106-0.299,0.228-0.458,0.347c-0.141,0.115-0.216,0.323-0.365,0.453c-0.136,0.124-0.37,0.15-0.51,0.287
	c-0.137,0.13-0.195,0.333-0.326,0.475c-0.131,0.139-0.256,0.28-0.387,0.427c-0.118,0.145-0.331,0.216-0.451,0.369
	c-0.118,0.151-0.221,0.324-0.336,0.487c-0.114,0.153-0.259,0.295-0.369,0.46c-0.11,0.164-0.217,0.33-0.321,0.499
	c-0.096,0.165-0.179,0.351-0.27,0.526C5.6,20.627,5.573,20.837,5.48,21.014c-0.087,0.177-0.234,0.321-0.316,0.503
	c-0.086,0.176-0.114,0.377-0.189,0.559c-0.076,0.182-0.251,0.33-0.32,0.515c-0.067,0.181,0.042,0.429-0.022,0.617
	c-0.061,0.182-0.125,0.356-0.185,0.546c-0.055,0.179-0.125,0.358-0.175,0.546c-0.049,0.182-0.103,0.361-0.152,0.557
	c-0.042,0.186-0.211,0.341-0.255,0.532c-0.038,0.188,0.006,0.393-0.026,0.583c-0.034,0.19-0.056,0.378-0.083,0.57
	c-0.032,0.188-0.08,0.375-0.103,0.568c-0.022,0.189-0.125,0.373-0.146,0.569c-0.016,0.188,0.06,0.391,0.048,0.583
	c-0.015,0.192-0.146,0.379-0.151,0.572c-0.011,0.196,0.167,0.394,0.163,0.59C3.561,29.612,3.518,29.802,3.518,30.003z
	 M29.997,19.092c-0.201,0-0.408-0.081-0.608-0.073c-0.202,0.005-0.398,0.152-0.599,0.163c-0.201,0.016-0.417-0.141-0.619-0.122
	c-0.201,0.021-0.396,0.119-0.598,0.149c-0.201,0.028-0.413-0.003-0.609,0.03c-0.2,0.035-0.363,0.247-0.558,0.293
	c-0.201,0.041-0.414,0.011-0.61,0.063c-0.196,0.045-0.375,0.148-0.569,0.204c-0.191,0.054-0.413,0.019-0.604,0.076
	c-0.18,0.057-0.38,0.058-0.554,0.121c-0.174,0.065-0.3,0.255-0.478,0.324c-0.174,0.071-0.326,0.176-0.496,0.25
	c-0.178,0.074-0.358,0.121-0.52,0.201c-0.174,0.08-0.327,0.188-0.489,0.276c-0.169,0.083-0.397,0.049-0.56,0.138
	c-0.163,0.094-0.338,0.174-0.496,0.272c-0.156,0.1-0.287,0.244-0.444,0.348c-0.152,0.103-0.326,0.183-0.472,0.293
	c-0.153,0.112-0.332,0.197-0.479,0.313c-0.148,0.119-0.246,0.301-0.38,0.422c-0.147,0.124-0.257,0.286-0.393,0.412
	c-0.14,0.133-0.232,0.3-0.358,0.436c-0.136,0.136-0.375,0.177-0.495,0.318c-0.126,0.144-0.186,0.341-0.299,0.486
	c-0.119,0.149-0.163,0.345-0.265,0.499c-0.11,0.155-0.285,0.265-0.387,0.424c-0.098,0.169-0.114,0.383-0.201,0.558
	c-0.088,0.177-0.289,0.298-0.36,0.478c-0.08,0.181-0.114,0.386-0.167,0.567c-0.066,0.189-0.088,0.383-0.137,0.577
	c-0.049,0.189-0.151,0.364-0.178,0.56c-0.039,0.193-0.065,0.387-0.083,0.585c-0.016,0.192-0.103,0.393-0.103,0.591
	c0,0.204,0.186,0.395,0.196,0.591c0.011,0.203-0.083,0.409-0.06,0.602c0.022,0.204,0.08,0.394,0.121,0.584
	c0.031,0.179,0.053,0.349,0.091,0.515c0.049,0.17,0.081,0.342,0.136,0.505c0.06,0.165,0.065,0.353,0.13,0.511
	c0.092,0.223,0.31,0.38,0.419,0.582c0.114,0.21,0.217,0.422,0.347,0.605c0.125,0.182,0.19,0.412,0.326,0.57
	c0.147,0.168,0.364,0.267,0.522,0.414c0.14,0.137,0.299,0.242,0.452,0.367c0.151,0.121,0.26,0.303,0.423,0.412
	c0.153,0.1,0.315,0.199,0.473,0.289c0.163,0.095,0.365,0.107,0.532,0.182c0.164,0.076,0.311,0.201,0.473,0.258
	c0.174,0.054,0.354,0.076,0.528,0.113c0.173,0.043,0.348,0.061,0.526,0.084c0.174,0.018,0.36,0.012,0.534,0.012
	c0.261,0,0.521-0.026,0.75-0.111c0.229-0.085,0.441-0.207,0.614-0.363c0.179-0.154,0.271-0.371,0.369-0.586
	c0.098-0.217,0.115-0.441,0.115-0.709c0-0.262,0.131-0.551,0.049-0.781c-0.081-0.231-0.357-0.354-0.511-0.527
	c-0.157-0.174-0.26-0.443-0.473-0.538c-0.218-0.095-0.495-0.026-0.761-0.026c-0.173,0-0.353-0.117-0.5-0.088
	c-0.151,0.03-0.249,0.209-0.379,0.281c-0.136,0.074-0.359,0.057-0.483,0.178c-0.121,0.129-0.245,0.299-0.36,0.486l0.076,0.016v0.033
	v-0.09v0.09c0,0.008-0.016-0.008-0.026-0.003c-0.004,0.007,0.022,0.083,0.007,0.087c-0.018,0.012-0.056-0.104-0.076-0.105
	c-0.022,0-0.104,0.147-0.132,0.131c-0.136-0.094-0.195-0.306-0.331-0.416c-0.125-0.107-0.338-0.128-0.458-0.255
	c-0.125-0.143-0.156-0.374-0.269-0.533c-0.116-0.155-0.187-0.329-0.279-0.505c-0.103-0.191-0.168-0.398-0.25-0.617
	c-0.08-0.201-0.238-0.387-0.292-0.617c-0.039-0.172-0.11-0.34-0.137-0.53c-0.027-0.173-0.076-0.356-0.091-0.542
	c-0.011-0.178,0.096-0.365,0.096-0.554c0-0.202-0.042-0.407-0.016-0.608c0.026-0.199,0.064-0.401,0.121-0.595
	c0.049-0.195,0.206-0.352,0.278-0.544c0.071-0.187,0.004-0.44,0.098-0.622c0.086-0.182,0.162-0.38,0.265-0.557
	c0.104-0.167,0.217-0.345,0.337-0.508c0.109-0.163,0.369-0.217,0.5-0.372c0.125-0.152,0.174-0.383,0.31-0.527
	c0.135-0.144,0.32-0.245,0.467-0.386c0.148-0.136,0.354-0.197,0.511-0.329c0.153-0.126,0.282-0.282,0.444-0.405
	c0.159-0.115,0.247-0.339,0.414-0.453c0.163-0.109,0.332-0.23,0.507-0.334c0.167-0.1,0.342-0.203,0.52-0.301
	c0.174-0.095,0.419-0.065,0.598-0.152c0.179-0.087,0.326-0.246,0.516-0.324c0.181-0.076,0.381-0.119,0.572-0.194
	c0.185-0.068,0.358-0.198,0.549-0.262c0.189-0.064,0.413-0.02,0.603-0.072c0.19-0.055,0.375-0.135,0.569-0.181
	c0.198-0.049,0.382-0.155,0.572-0.193c0.201-0.038,0.409,0.012,0.614-0.016c0.19-0.03,0.391-0.041,0.592-0.061
	c0.196-0.023,0.392-0.117,0.593-0.129c0.195-0.014,0.402,0.109,0.604,0.1c0.201-0.008,0.396-0.155,0.597-0.155
	c0.206,0,0.402,0.087,0.597,0.096c0.208,0.009,0.409-0.038,0.606-0.021c0.205,0.013,0.406,0.008,0.596,0.031
	c0.207,0.026,0.402,0.067,0.604,0.097c0.196,0.029,0.396,0.077,0.586,0.111c0.197,0.041,0.383,0.122,0.577,0.167
	c0.196,0.048,0.407,0.034,0.598,0.089s0.375,0.142,0.565,0.203c0.189,0.064,0.358,0.194,0.549,0.262
	c0.186,0.072,0.379,0.118,0.566,0.197c0.184,0.08,0.362,0.17,0.543,0.257c0.184,0.086,0.357,0.175,0.533,0.265
	c0.184,0.095,0.34,0.215,0.51,0.315c0.175,0.103,0.354,0.189,0.518,0.299c0.173,0.114,0.305,0.272,0.46,0.389
	c0.164,0.119,0.354,0.198,0.505,0.328c0.159,0.128,0.355,0.21,0.5,0.345c0.146,0.14,0.246,0.326,0.383,0.469
	c0.141,0.146,0.299,0.277,0.429,0.426c0.125,0.158,0.254,0.313,0.362,0.476c0.121,0.163,0.312,0.285,0.41,0.453
	c0.113,0.177,0.141,0.397,0.232,0.576c0.094,0.185,0.229,0.354,0.294,0.541c0.075,0.193,0.087,0.408,0.136,0.604
	s0.141,0.392,0.163,0.592c0.032,0.204-0.006,0.414-0.006,0.616c0,0.188-0.005,0.374-0.022,0.549c-0.01,0.19-0.004,0.375-0.031,0.549
	c-0.027,0.189-0.061,0.371-0.104,0.544c-0.056,0.226-0.186,0.423-0.268,0.63c-0.08,0.221-0.222,0.396-0.33,0.588
	c-0.094,0.176-0.146,0.363-0.256,0.516c-0.12,0.16-0.18,0.363-0.309,0.5c-0.121,0.129-0.316,0.168-0.441,0.277
	c-0.131,0.11-0.232,0.258-0.369,0.348c-0.027,0.016-0.061,0.055-0.082,0.055s-0.049-0.031-0.064-0.039
	c-0.018-0.008-0.012-0.042-0.018-0.053c-0.011-0.008,0.045-0.039,0.033-0.05l-0.056,0.11v0.027v-0.125h0.056
	c-0.113-0.188-0.261-0.331-0.385-0.456c-0.121-0.125-0.312-0.122-0.447-0.196c-0.137-0.07-0.232-0.182-0.391-0.212
	c-0.147-0.032-0.305,0.028-0.479,0.028c-0.266,0-0.533-0.088-0.75,0.009s-0.408,0.27-0.564,0.444
	c-0.158,0.175-0.18,0.432-0.266,0.662c-0.082,0.232-0.219,0.459-0.219,0.721c0,0.268,0.092,0.504,0.189,0.721
	c0.1,0.215,0.201,0.442,0.371,0.6c0.178,0.156,0.402,0.278,0.629,0.362c0.234,0.087,0.496,0.015,0.763,0.015
	c0.178,0,0.358,0.126,0.537,0.107c0.175-0.021,0.337-0.152,0.511-0.19c0.176-0.041,0.338-0.088,0.512-0.144
	c0.162-0.054,0.375-0.016,0.537-0.088c0.169-0.075,0.32-0.182,0.49-0.27c0.156-0.098,0.342-0.164,0.493-0.27
	c0.158-0.105,0.322-0.227,0.474-0.352c0.146-0.121,0.277-0.273,0.418-0.409c0.151-0.147,0.25-0.356,0.391-0.522
	c0.143-0.163,0.328-0.288,0.453-0.474c0.13-0.184,0.21-0.409,0.32-0.622c0.112-0.201,0.314-0.367,0.408-0.588
	c0.064-0.159-0.05-0.385,0.004-0.551c0.057-0.162,0.109-0.316,0.151-0.491c0.045-0.166,0.099-0.323,0.137-0.501
	c0.032-0.186,0.071-0.377,0.098-0.58c0.022-0.191,0.175-0.377,0.187-0.582c0.011-0.193-0.061-0.395-0.061-0.599
	c0-0.198-0.022-0.394-0.037-0.588c-0.018-0.192-0.018-0.395-0.056-0.584c-0.033-0.193,0.011-0.409-0.038-0.599
	c-0.055-0.189-0.202-0.352-0.268-0.542c-0.057-0.182-0.02-0.413-0.098-0.591c-0.076-0.178-0.326-0.283-0.418-0.458
	c-0.086-0.175-0.022-0.437-0.125-0.608c-0.098-0.159-0.293-0.258-0.396-0.416c-0.107-0.153-0.287-0.258-0.402-0.407
	c-0.115-0.147-0.18-0.333-0.299-0.477c-0.125-0.14-0.24-0.291-0.369-0.429c-0.125-0.136-0.229-0.304-0.364-0.436
	c-0.136-0.128-0.374-0.143-0.517-0.269c-0.146-0.123-0.157-0.397-0.305-0.516c-0.146-0.122-0.326-0.202-0.482-0.315
	c-0.146-0.106-0.299-0.219-0.457-0.321c-0.152-0.106-0.37-0.111-0.527-0.213c-0.163-0.098-0.283-0.247-0.445-0.339
	c-0.164-0.092-0.32-0.184-0.49-0.271c-0.168-0.087-0.337-0.16-0.506-0.246c-0.166-0.077-0.352-0.125-0.525-0.202
	c-0.17-0.071-0.332-0.169-0.506-0.238c-0.174-0.07-0.316-0.213-0.5-0.277c-0.174-0.065-0.412,0.054-0.593-0.003
	c-0.19-0.062-0.343-0.239-0.538-0.293s-0.402-0.073-0.593-0.123c-0.2-0.049-0.386-0.147-0.586-0.188
	c-0.195-0.043-0.397-0.072-0.593-0.105c-0.201-0.035-0.396-0.111-0.599-0.138c-0.2-0.029-0.406,0.001-0.614-0.018
	c-0.195-0.02-0.402-0.031-0.602-0.041c-0.202-0.017-0.41,0.033-0.61,0.027C30.399,19.1,30.203,19.092,29.997,19.092z M34.35,36.143
	c-0.262,0-0.538-0.027-0.767,0.069c-0.233,0.098-0.358,0.345-0.531,0.519c-0.175,0.17-0.457,0.286-0.555,0.514
	c-0.099,0.232-0.081,0.52-0.081,0.786c0,0.162-0.045,0.337-0.008,0.485c0.039,0.154,0.262,0.229,0.334,0.359
	c0.068,0.134,0.092,0.287,0.189,0.399s0.233,0.165,0.359,0.25c0,0.002-0.056,0.087-0.049,0.097c0.004,0.004-0.039,0.034-0.039,0.045
	c0.006,0.016,0.137,0.02,0.13,0.035c-0.005,0.019-0.015,0.095-0.038,0.113c-0.152,0.129-0.368,0.234-0.58,0.348
	c-0.218,0.111-0.463,0.25-0.734,0.338c-0.137,0.047-0.326-0.053-0.479-0.014c-0.147,0.033-0.299,0.045-0.457,0.067
	c-0.168,0.027-0.338,0.099-0.516,0.108c-0.174,0.014-0.354-0.01-0.539-0.01s-0.354-0.049-0.52-0.061
	c-0.186-0.011-0.367,0.045-0.534,0.018c-0.158-0.025-0.322-0.006-0.463-0.039c-0.151-0.039-0.321-0.033-0.462-0.078
	c-0.271-0.088-0.456-0.33-0.667-0.445c-0.218-0.111-0.436-0.171-0.594-0.301c-0.021-0.018-0.114-0.012-0.12-0.034
	c-0.004-0.015,0.081-0.057,0.093-0.073c0-0.01-0.054-0.086-0.049-0.092c0.011-0.01,0.104,0.078,0.104,0.078
	c0.119-0.09,0.201-0.224,0.299-0.34c0.103-0.111,0.157-0.252,0.222-0.383c0.071-0.133,0.181-0.25,0.218-0.396
	c0.042-0.151,0.065-0.314,0.065-0.477c0-0.267,0.011-0.554-0.087-0.786c-0.098-0.228-0.38-0.344-0.554-0.515
	c-0.173-0.173-0.311-0.404-0.538-0.499c-0.23-0.097-0.496-0.127-0.761-0.127c-0.224,0-0.424,0.01-0.603,0.049
	c-0.22,0.049-0.414,0.116-0.571,0.213c-0.142,0.084-0.315,0.145-0.418,0.258c-0.115,0.115-0.11,0.326-0.19,0.455
	c-0.147,0.265-0.256,0.525-0.306,0.777c-0.053,0.25-0.157,0.477-0.157,0.631c0,0.195,0.119,0.393,0.167,0.592
	c0.054,0.196,0.152,0.381,0.25,0.577c0.092,0.192,0.142,0.423,0.277,0.608c0.136,0.184,0.294,0.365,0.462,0.535
	c0.125,0.123,0.31,0.19,0.457,0.319c0.13,0.114,0.239,0.28,0.395,0.391c0.17,0.119,0.375,0.216,0.578,0.33
	c0.189,0.104,0.385,0.198,0.604,0.292c0.151,0.07,0.319,0.119,0.489,0.182c0.163,0.057,0.327,0.133,0.499,0.179
	c0.17,0.048,0.337,0.091,0.518,0.123c0.202,0.043,0.418,0.027,0.629,0.051c0.207,0.028,0.419,0.018,0.637,0.028
	c0.205,0.013,0.412,0.207,0.629,0.207v-0.178v0.16v-0.131v0.131v-0.139V42.9v-0.006v-0.131l0.006,0.033v-0.091v0.093v0.021v-0.072
	v0.125v-0.167v0.136c0.222,0,0.43-0.136,0.635-0.148c0.219-0.014,0.447,0.096,0.643,0.067c0.222-0.028,0.44-0.028,0.641-0.069
	c0.18-0.039,0.364-0.057,0.526-0.105c0.176-0.045,0.326-0.189,0.485-0.248c0.167-0.061,0.319-0.153,0.478-0.223
	c0.207-0.094,0.392-0.221,0.576-0.326c0.201-0.113,0.451-0.132,0.625-0.253c0.162-0.111,0.271-0.274,0.402-0.386
	c0.147-0.129,0.281-0.253,0.406-0.378c0.17-0.169,0.398-0.286,0.533-0.474c0.137-0.186,0.119-0.458,0.213-0.654
	c0.098-0.197,0.135-0.39,0.185-0.591c0.048-0.194,0.07-0.372,0.07-0.567c0-0.154,0.151-0.396,0.104-0.646
	c-0.049-0.255-0.249-0.495-0.396-0.755c-0.077-0.136-0.12-0.291-0.234-0.409c-0.104-0.11-0.185-0.285-0.331-0.367
	c-0.152-0.098-0.382-0.147-0.594-0.194C34.785,36.072,34.572,36.143,34.35,36.143z"/>
</svg>
