<?xml version="1.0" encoding="utf-8"?>
<!-- Generator: Adobe Illustrator 16.0.0, SVG Export Plug-In . SVG Version: 6.00 Build 0)  -->
<!DOCTYPE svg PUBLIC "-//W3C//DTD SVG 1.1//EN" "http://www.w3.org/Graphics/SVG/1.1/DTD/svg11.dtd">
<svg version="1.1" id="logo5" xmlns="http://www.w3.org/2000/svg" xmlns:xlink="http://www.w3.org/1999/xlink" x="0px"
	 y="0px" width="190px" height="50px" viewBox="0 0 190 50" enable-background="new 0 0 190 50" xml:space="preserve">
<path fill="#F2EEE6" d="M159.3,33.194l0.371,0.253c-0.261,0.423-0.99,1.414-2.646,1.414c-1.461,0-1.916-1.083-1.916-2.303v-7.086
	c0-0.181-0.146-0.328-0.328-0.328h-1.451v-0.33c0.549-0.011,1.652-0.14,2.311-1.149c0.516-0.796,0.807-2.218,0.904-2.714h0.424
	v3.181c0,0.181,0.148,0.33,0.328,0.33h1.977v0.682h-1.977c-0.18,0-0.328,0.147-0.328,0.328v7.086c0,0.373,0.281,1.189,1.197,1.189
	C158.737,33.748,159.163,33.34,159.3,33.194z M162.22,24.542v8.016c0,1.22,0.455,2.303,1.924,2.303c1.656,0,2.381-0.991,2.643-1.414
	l-0.371-0.253c-0.135,0.146-0.562,0.554-1.138,0.554c-0.913,0-1.194-0.816-1.194-1.189v-8.016H162.22z M186.792,24.332
	c-0.679,0-1.352,0.172-2.006,0.512c-0.58,0.301-1.151,0.743-1.693,1.314c-0.023,0.02-0.11,0.098-0.201,0.098
	c-0.036,0-0.164-0.016-0.166-0.221v-1.493h-1.861v10.11h1.861v-7.231c0-0.167,0.096-0.425,0.314-0.634
	c0.213-0.204,1.146-0.927,1.949-1.137c0.833-0.218,1.488-0.085,1.957,0.445c0.318,0.368,0.482,0.905,0.482,1.601v6.957h1.865v-7.3
	C189.294,25.879,188.321,24.332,186.792,24.332z M163.073,22.584c0.596,0,1.076-0.485,1.076-1.079c0-0.596-1.083-1.079-1.679-1.079
	c-0.595,0-0.476,0.483-0.476,1.079C161.995,22.099,162.481,22.584,163.073,22.584z M63.415,34.652h1.85v-6.638
	c0.03-0.174,0.167-0.282,0.324-0.282h4.389v-0.685h-4.385c-0.181,0-0.328-0.149-0.328-0.329v-4.333
	c0.03-0.172,0.167-0.286,0.324-0.286h6.188v-0.683h-8.362V34.652z M48.626,22.099h4.6c0.181,0,0.331,0.149,0.331,0.331v12.222h1.847
	V22.43c0-0.182,0.15-0.331,0.331-0.331h4.6v-0.683H48.626V22.099z M105.86,24.332c-0.847,0-1.416,0.426-1.79,0.709
	c-0.388,0.29-0.85,0.811-1.151,1.204c-0.029,0.046-0.086,0.112-0.16,0.112c-0.07,0-0.15-0.077-0.15-0.181v-1.634h-1.846v10.11h1.846
	v-6.641c0-0.382,0.107-0.598,0.15-0.673c0.402-0.646,1.004-1.417,1.596-1.417c0.197,0,0.438,0.172,0.519,0.296
	c0.003,0.003,0.007,0.008,0.011,0.01c0.223,0.314,0.588,0.505,0.977,0.505c0.662,0,1.2-0.538,1.2-1.201
	C107.061,24.874,106.522,24.332,105.86,24.332z M139.901,24.332c-0.842,0-1.41,0.426-1.789,0.709
	c-0.385,0.29-0.846,0.811-1.15,1.204c-0.03,0.046-0.084,0.112-0.157,0.112s-0.151-0.077-0.151-0.181v-1.634h-1.85v10.11h1.85v-6.641
	c0-0.382,0.104-0.598,0.151-0.673c0.397-0.646,1.003-1.417,1.595-1.417c0.198,0,0.436,0.172,0.52,0.296
	c0.003,0.003,0.006,0.008,0.006,0.01c0.225,0.314,0.592,0.505,0.977,0.505c0.663,0,1.201-0.538,1.201-1.201
	C141.103,24.874,140.564,24.332,139.901,24.332z M98.073,29.6c0,5.01-4.45,5.262-5.343,5.262c-0.894,0-5.342-0.252-5.342-5.262
	c0-3.066,2.037-5.261,5.342-5.261C93.677,24.338,98.073,24.775,98.073,29.6z M95.966,29.6c0-3.344-1.68-4.87-3.235-4.87
	c-1.559,0-3.234,1.526-3.234,4.87c0,3.353,1.676,4.876,3.234,4.876C94.286,34.476,95.966,32.952,95.966,29.6z M131.733,29.6
	c0,5.01-4.449,5.262-5.338,5.262c-0.895,0-5.343-0.252-5.343-5.262c0-3.066,2.037-5.261,5.343-5.261
	C127.339,24.338,131.733,24.775,131.733,29.6z M129.63,29.6c0-3.344-1.676-4.87-3.234-4.87c-1.56,0-3.235,1.526-3.235,4.87
	c0,3.353,1.676,4.876,3.235,4.876C127.954,34.476,129.63,32.952,129.63,29.6z M178.558,29.6c0,5.01-4.449,5.262-5.343,5.262
	c-0.89,0-5.339-0.252-5.339-5.262c0-3.066,2.034-5.261,5.339-5.261C174.161,24.338,178.558,24.775,178.558,29.6z M176.45,29.6
	c0-3.344-1.676-4.87-3.235-4.87c-1.559,0-3.237,1.526-3.237,4.87c0,3.353,1.679,4.876,3.237,4.876
	C174.774,34.476,176.45,32.952,176.45,29.6z M114.861,24.446c3.536,0,3.917,3.681,3.917,5.265c0,5.006-4.449,5.26-5.342,5.26
	c-0.746,0-1.402-0.164-2.131-0.53c-0.007-0.005-0.054-0.019-0.088-0.019c-0.039,0-0.197,0.021-0.197,0.273v4.385h-1.85V24.542h1.85
	v1.727c0,0.14,0.107,0.234,0.234,0.234c0.117,0,0.194-0.125,0.205-0.139C112.169,25.491,113.329,24.446,114.861,24.446z
	 M113.952,25.656c-1.406,0-2.416,1.077-2.791,1.553c-0.119,0.168-0.137,0.369-0.141,0.432v4.457
	c0.018,0.344,0.084,0.573,0.128,0.691c0.575,1.164,1.595,1.58,2.288,1.58c2.238,0,3.234-1.439,3.234-4.658
	C116.671,29.545,116.642,25.656,113.952,25.656z M80.97,33.537c-1.88,0-3.235-1.654-3.235-3.938c0-3.344,1.676-4.87,3.231-4.87
	c0.572,0,1.017,0.232,1.291,0.672c0.127,0.206,0.178,0.555,0.178,1.209c0,0.662,0.538,1.199,1.201,1.199
	c0.662,0,1.2-0.537,1.2-1.199c0-0.917-1.063-1.575-1.073-1.583c-1.034-0.656-2.462-0.689-2.793-0.689
	c-0.328,0-1.987,0.07-3.329,0.999c-1.334,0.922-2.014,2.358-2.014,4.263c0,4.881,3.9,5.262,5.099,5.262
	c2.896,0,4.117-2.836,4.281-3.479l-0.385-0.148C84.317,31.904,83.141,33.508,80.97,33.537z M150.747,25.886
	c0.119,0.324,0.184,1.246,0.184,1.649v7.117h-1.85v-1.033c0-0.078-0.023-0.283-0.197-0.283c-0.094,0-0.254,0.149-0.254,0.149
	c-0.834,0.679-1.697,1.376-3.165,1.376c-0.104,0-2.542-0.027-2.542-2.475c0-1.788,1.666-3.029,4.586-3.825
	c0,0,0.953-0.259,1.32-0.354c0.092-0.035,0.248-0.143,0.248-0.396c0-0.027,0.004-0.275,0.004-0.275c0-0.844-0.205-2.805-2.098-2.805
	c-1.328,0-1.636,0.979-1.666,1.09c-0.037,0.13,0.007,0.318,0.07,0.448c0,0.001,0,0.001,0,0.005c0.057,0.131,0.084,0.27,0.084,0.41
	c0,0.596-0.485,1.076-1.08,1.076c-0.596,0-1.078-0.48-1.078-1.076c0-0.33,0.114-0.659,0.318-0.925
	c0.214-0.282,0.508-0.532,0.873-0.739c0.367-0.209,0.803-0.376,1.298-0.497c0.491-0.122,1.021-0.184,1.562-0.184
	c0.666,0,1.234,0.065,1.689,0.191c0.451,0.129,0.823,0.308,1.098,0.535C150.425,25.289,150.626,25.564,150.747,25.886z
	 M149.081,29.038c0-0.009,0-0.017-0.004-0.026c0-0.062-0.014-0.171-0.08-0.238c-0.066-0.071-0.164-0.09-0.274-0.05
	c-1.187,0.396-3.94,1.492-3.94,3.128c0,0.808,0.555,1.945,1.797,1.945c0.639,0,1.418-0.355,2.331-1.059
	c0.077-0.086,0.167-0.223,0.167-0.452C149.077,32.268,149.081,29.038,149.081,29.038z M12.196,42.424V26.295
	c0.006-0.351,0.291-0.633,0.648-0.633H16.3v-1.3h-3.455c-0.354,0-0.643-0.283-0.648-0.637V11.569H5.476v12.143
	c0,0.359-0.287,0.649-0.648,0.65H0.706v1.3h4.121c0.361,0,0.648,0.286,0.648,0.647v10.176c0,6.117,4.794,11.115,10.824,11.453
	v-0.807C13.982,46.816,12.196,44.83,12.196,42.424z M33.196,2.062c-6.339,0-11.474,5.138-11.474,11.473h-0.017v10.176
	c0,0.359-0.291,0.649-0.649,0.65h-3.459v1.3h3.456c0.361,0,0.652,0.286,0.652,0.647v16.115c0,2.406-1.786,4.393-4.108,4.707v0.807
	c6.038-0.338,10.828-5.336,10.828-11.453V26.295c0.004-0.351,0.295-0.633,0.646-0.633h4.125v-1.3h-4.121
	c-0.354,0-0.646-0.283-0.649-0.637V7.595c0-2.623,2.124-4.753,4.753-4.753c1.158,0,2.091,0.487,2.095,0.488
	c0.11,0.054,0.184,0.166,0.184,0.291c0,0.232-0.211,0.305-0.221,0.31c-1.225,0.492-2.084,1.688-2.084,3.087
	c0,1.84,1.488,3.332,3.332,3.332c1.836,0,3.331-1.396,3.331-3.238C39.815,4.125,36.989,2.062,33.196,2.062z"/>
</svg>
