<?xml version="1.0" encoding="utf-8"?>
<!-- Generator: Adobe Illustrator 16.0.0, SVG Export Plug-In . SVG Version: 6.00 Build 0)  -->
<!DOCTYPE svg PUBLIC "-//W3C//DTD SVG 1.1//EN" "http://www.w3.org/Graphics/SVG/1.1/DTD/svg11.dtd">
<svg version="1.1" id="logo4" xmlns="http://www.w3.org/2000/svg" xmlns:xlink="http://www.w3.org/1999/xlink" x="0px"
	 y="0px" width="100px" height="180px" viewBox="0 0 100 180" enable-background="new 0 0 100 180" xml:space="preserve">
<g>
	<path fill="#07223C" d="M45.333,37.475c1.297,3.519-1.012,8.181-5.444,8.57c-2.513,0.216-3.367-1.42-3.433-2.129
		c-0.205-2.309,1.834-3.525,3.87-3.452c4.012,0.148,4.786-2.365,4.924-2.99c0.016-0.067,0.016-0.091,0.042-0.091
		C45.308,37.383,45.315,37.428,45.333,37.475z M50.444,38.703c0.007,0.017,0.039,0,0.059-0.001c0.528-0.111,3.273-0.415,4.603,4.074
		c0.584,1.963,1.68,3.163,3.366,3.163c0.726,0,2.862-0.34,2.862-3.332c0-3.245-4.014-5.132-7.281-5.104
		c-1.411,0.011-2.713,0.375-3.576,1.148C50.451,38.672,50.426,38.688,50.444,38.703z M29.877,77.837
		c-0.025,0-0.025,0.033-0.033,0.096c-0.138,0.621-0.922,3.133-4.923,2.991c-2.052-0.08-4.084,1.141-3.88,3.444
		c0.067,0.711,0.916,2.355,3.443,2.132c4.423-0.388,6.737-5.053,5.434-8.565C29.91,77.883,29.894,77.837,29.877,77.837z
		 M38.64,77.961c-1.402,0.012-2.714,0.377-3.57,1.149c-0.032,0.022-0.041,0.032-0.032,0.051c0,0.012,0.041-0.004,0.048-0.007
		c0.539-0.113,3.286-0.408,4.622,4.076c0.579,1.962,1.672,3.166,3.359,3.166c0.717,0,2.86-0.342,2.86-3.33
		C45.926,79.826,41.909,77.935,38.64,77.961z M45.969,52.195v22.182c0,1.41-1.141,2.556-2.553,2.556
		c-1.41,0-2.561-1.146-2.561-2.556v-0.65c-0.007-0.27-0.25-0.367-0.375-0.367H27.686c-0.213,0-0.376,0.171-0.376,0.379v0.639
		c0,1.41-1.15,2.556-2.56,2.556s-2.562-1.146-2.562-2.556V50.332c0,0,0-0.062,0.017-0.074c0.026-0.007,0.033,0.012,0.057,0.034
		c1.379,1.524,3.255,1.76,4.33,1.792h12.896c0,0,2.982-0.479,3.096-3.728c0-0.021,0-0.091,0.026-0.103
		c0.03-0.017,0.064,0.033,0.097,0.061l3.195,3.702c0,0,0.034,0.027,0.05,0.068C45.969,52.124,45.969,52.195,45.969,52.195z
		 M27.686,72.545h12.795c0.124,0,0.368-0.1,0.375-0.369V53.277c0-0.216-0.17-0.382-0.382-0.388H27.686
		c-0.213,0.006-0.376,0.172-0.376,0.388v6.518c0,0.278,0.253,0.379,0.376,0.379c2.109,0,6.928,0,7.1,0
		c0.204,0,2.125-0.347,2.215-2.64c0-0.024,0-0.079,0.026-0.092c0.031-0.019,0.064,0.024,0.098,0.057
		c0.024,0.029,2.134,2.475,2.134,2.475s0.368,0.38,0.368,0.605c0,0.222-0.181,0.406-0.407,0.406V60.98v0.005H27.686
		c-0.123,0-0.376,0.101-0.376,0.385v4.405c0,0.279,0.245,0.381,0.376,0.381c2.101,0,6.928,0,7.1,0c0.204,0,2.125-0.346,2.215-2.644
		c0-0.026,0-0.074,0.026-0.091c0.031-0.021,0.064,0.029,0.098,0.058c0.024,0.028,2.134,2.47,2.134,2.47s0.368,0.388,0.368,0.606
		c0,0.23-0.181,0.418-0.407,0.418v-0.01v0.01H27.686c-0.123,0-0.376,0.092-0.376,0.377v4.808
		C27.31,72.373,27.473,72.545,27.686,72.545z M61.537,77.837c-0.018,0-0.018,0.033-0.033,0.096c-0.14,0.621-0.915,3.133-4.924,2.991
		c-2.043-0.08-4.074,1.141-3.871,3.444c0.065,0.711,0.912,2.355,3.432,2.132c4.432-0.388,6.75-5.053,5.453-8.565
		C61.568,77.883,61.561,77.837,61.537,77.837z M70.308,77.961c-1.409,0.012-2.715,0.377-3.567,1.149
		c-0.027,0.022-0.051,0.032-0.045,0.051c0.018,0.012,0.051-0.004,0.057-0.007c0.531-0.113,3.278-0.408,4.615,4.076
		c0.578,1.962,1.68,3.166,3.359,3.166c0.725,0,2.859-0.342,2.859-3.33C77.586,79.826,73.576,77.935,70.308,77.961z M77.625,52.195
		v22.182c0,1.41-1.137,2.556-2.541,2.556c-1.41,0-2.559-1.146-2.559-2.556v-0.65c-0.016-0.27-0.262-0.367-0.385-0.367H59.352
		c-0.213,0-0.383,0.171-0.383,0.379v0.639c0,1.41-1.142,2.556-2.553,2.556c-1.41,0-2.549-1.146-2.549-2.556V50.332
		c0,0-0.01-0.062,0.008-0.074c0.023-0.007,0.031,0.012,0.057,0.034c1.377,1.524,3.242,1.76,4.32,1.792h12.894
		c0,0,2.995-0.479,3.099-3.728c0-0.021,0-0.091,0.033-0.103c0.023-0.017,0.066,0.033,0.09,0.061l3.201,3.702
		c0,0,0.033,0.027,0.049,0.068C77.625,52.124,77.625,52.195,77.625,52.195z M59.352,72.545h12.789c0.123,0,0.369-0.1,0.385-0.369
		V53.277c0-0.216-0.182-0.382-0.385-0.388H59.352c-0.213,0.006-0.383,0.172-0.383,0.388v6.518c0,0.278,0.252,0.379,0.383,0.379
		c2.104,0,6.921,0,7.092,0c0.213,0,2.127-0.347,2.217-2.64c0.008-0.024,0-0.079,0.023-0.092c0.033-0.019,0.074,0.024,0.102,0.057
		c0.023,0.029,2.133,2.475,2.133,2.475s0.375,0.38,0.375,0.605c0,0.222-0.178,0.406-0.405,0.406V60.98l-0.009,0.005H59.352
		c-0.131,0-0.383,0.101-0.383,0.385v4.405c0,0.279,0.252,0.381,0.383,0.381c2.095,0,6.921,0,7.092,0
		c0.213,0,2.127-0.346,2.217-2.644c0.008-0.026,0-0.074,0.023-0.091c0.033-0.021,0.074,0.029,0.102,0.058
		c0.023,0.028,2.133,2.47,2.133,2.47s0.375,0.388,0.375,0.606c0,0.23-0.178,0.418-0.405,0.418v-0.01l-0.009,0.01H59.352
		c-0.131,0-0.383,0.092-0.383,0.377v4.808C58.969,72.373,59.139,72.545,59.352,72.545z M63.225,5.456v28.028
		c0,1.409-1.141,2.554-2.551,2.554s-2.562-1.145-2.562-2.554v-0.637c0-0.286-0.261-0.379-0.382-0.379H41.494
		c-0.213,0-0.377,0.167-0.377,0.379v0.637c0,1.409-1.148,2.554-2.558,2.554s-2.551-1.145-2.551-2.554V3.592
		c0,0-0.007-0.062,0.01-0.068c0.023-0.013,0.03,0.004,0.056,0.027c1.377,1.526,3.243,1.763,4.328,1.792h16.343
		c0,0,2.982-0.479,3.098-3.729c0-0.023,0-0.085,0.025-0.092c0.03-0.024,0.072,0.024,0.08,0.052l3.211,3.698
		c0,0,0.033,0.032,0.049,0.071C63.225,5.386,63.225,5.456,63.225,5.456z M57.73,31.652c0.121,0,0.382-0.101,0.382-0.384V6.543
		c0-0.217-0.171-0.388-0.382-0.388H41.494c-0.213,0-0.377,0.17-0.377,0.388v8.307c0,0.281,0.254,0.383,0.377,0.383
		c2.517,0,10.065,0,10.239,0c0.212,0,2.135-0.348,2.223-2.645c0-0.026,0-0.079,0.024-0.091c0.033-0.021,0.073,0.028,0.09,0.053
		c0.033,0.032,2.144,2.473,2.144,2.473s0.367,0.387,0.367,0.607c0,0.229-0.18,0.413-0.406,0.413V16.04v0.004h-14.68
		c-0.132,0-0.377,0.103-0.377,0.382v5.914c0,0.286,0.254,0.383,0.377,0.383c2.517,0,10.065,0,10.239,0
		c0.212,0,2.135-0.346,2.223-2.642c0-0.022,0-0.075,0.024-0.09c0.033-0.017,0.073,0.025,0.09,0.057
		c0.033,0.029,2.144,2.471,2.144,2.471s0.367,0.382,0.367,0.608c0,0.222-0.18,0.41-0.406,0.41v-0.006v0.006h-14.68
		c-0.124,0-0.377,0.096-0.377,0.38v7.351c0,0.125,0.1,0.384,0.377,0.384H57.73z M66.633,120.587v28.029
		c0,1.405-1.151,2.554-2.561,2.554c-1.413,0-2.553-1.148-2.553-2.554v-0.635c0-0.287-0.26-0.388-0.39-0.388H44.891
		c-0.209,0-0.383,0.175-0.383,0.388v0.635c0,1.405-1.131,2.554-2.542,2.554c-1.418,0-2.561-1.148-2.561-2.554v-29.894
		c0,0,0-0.058,0.016-0.067c0.023-0.012,0.034,0.005,0.05,0.029c1.384,1.521,3.251,1.766,4.327,1.795h16.341
		c0,0,2.994-0.488,3.099-3.727c0-0.029,0-0.092,0.024-0.104c0.033-0.02,0.074,0.029,0.101,0.057l3.194,3.698
		c0,0,0.033,0.032,0.049,0.075C66.633,120.519,66.633,120.587,66.633,120.587z M61.13,146.78c0.13,0,0.39-0.097,0.39-0.381v-24.727
		c0-0.215-0.17-0.381-0.384-0.381H44.891c-0.209,0-0.383,0.166-0.383,0.381v8.305c0,0.281,0.264,0.383,0.383,0.383
		c2.527,0,10.068,0,10.24,0c0.219,0,2.133-0.338,2.223-2.64c0.008-0.021,0-0.078,0.024-0.09c0.033-0.017,0.067,0.028,0.099,0.057
		c0.024,0.028,2.145,2.472,2.145,2.472s0.367,0.389,0.367,0.609c0,0.223-0.189,0.404-0.416,0.404l0,0l0,0H44.891
		c-0.119,0.004-0.383,0.102-0.383,0.387v5.91c0,0.285,0.264,0.382,0.383,0.382c2.527,0,10.068,0,10.24,0
		c0.219,0,2.133-0.341,2.223-2.638c0.008-0.027,0-0.085,0.024-0.092c0.033-0.017,0.067,0.027,0.099,0.057
		c0.024,0.023,2.145,2.469,2.145,2.469s0.367,0.385,0.367,0.613c0,0.227-0.189,0.406-0.416,0.406v-0.008v0.008H44.891
		c-0.119,0-0.383,0.099-0.383,0.378v7.354c0,0.131,0.099,0.381,0.383,0.381H61.13z M48.691,152.509c-0.026,0-0.026,0.03-0.032,0.093
		c-0.14,0.632-0.922,3.136-4.932,2.995c-2.037-0.072-4.067,1.143-3.873,3.449c0.067,0.713,0.921,2.343,3.433,2.123
		c4.435-0.383,6.748-5.045,5.445-8.557C48.715,152.557,48.706,152.509,48.691,152.509z M57.451,152.634
		c-1.4,0.013-2.711,0.381-3.568,1.145c-0.025,0.027-0.051,0.038-0.034,0.056c0,0.017,0.044,0,0.05,0
		c0.531-0.125,3.275-0.415,4.614,4.075c0.587,1.961,1.679,3.156,3.366,3.156c0.719,0,2.861-0.337,2.861-3.327
		C64.74,154.498,60.714,152.612,57.451,152.634z M72.758,103.845v8.355c0,1.407-1.136,2.547-2.549,2.547
		c-1.419,0-2.56-1.14-2.56-2.547v-0.64c0-0.214-0.169-0.384-0.382-0.384H33.392c-0.172,0-0.319,0.11-0.369,0.262l0.033,25.53
		c-0.046,32.4-24.625,40.453-28.456,41.511v0.002c-0.017,0-0.049,0.009-0.064-0.002c0-0.018,0.016-0.031,0.025-0.031
		c0.007-0.007,0.017-0.012,0.017-0.012c3.365-1.27,23.318-10.164,23.318-42.488c0-5.021,0-33.965,0-33.965s-0.006-0.057,0.017-0.068
		c0.027-0.014,0.027,0.012,0.05,0.027c1.377,1.524,3.245,1.764,4.329,1.793h33.988c0,0,2.984-0.479,3.092-3.729
		c0.006-0.025,0-0.086,0.029-0.1c0.034-0.016,0.067,0.025,0.09,0.058l3.205,3.702c0,0,0.033,0.028,0.047,0.068
		C72.758,103.78,72.758,103.845,72.758,103.845z M67.268,110.367c0.213,0,0.382-0.171,0.382-0.385v-5.053
		c0-0.206-0.169-0.381-0.382-0.389H33.392c-0.212,0.008-0.383,0.183-0.383,0.389v5.053c0,0.214,0.17,0.385,0.383,0.385H67.268z"/>
	<g>
		<path fill="#D4161A" d="M63.715,161.658c-0.17,0-0.301,0.133-0.301,0.302v5.975c0,0.166,0.131,0.301,0.301,0.301
			c0.163,0,0.303-0.135,0.303-0.301v-5.975C64.018,161.791,63.878,161.658,63.715,161.658z"/>
		<path fill="#D4161A" d="M76.221,161.658c-0.164,0-0.303,0.133-0.303,0.302v5.962c0,0.171,0.139,0.302,0.303,0.302
			c0.163,0,0.294-0.131,0.294-0.302v-5.962C76.515,161.791,76.384,161.658,76.221,161.658z"/>
		<path fill="#D4161A" d="M76.221,154.194c-0.164,0-0.303,0.134-0.303,0.303v5.814c0,0.168,0.139,0.307,0.303,0.307
			c0.163,0,0.294-0.139,0.294-0.307v-5.814C76.515,154.328,76.384,154.194,76.221,154.194z"/>
		<path fill="#D4161A" d="M73.709,154.194c-0.162,0-0.303,0.134-0.303,0.303l-0.007,1.638c0,0.493-0.399,0.897-0.888,0.897h-7.598
			c-0.499,0-0.896-0.404-0.896-0.897v-1.638c0-0.169-0.14-0.303-0.303-0.303c-0.17,0-0.301,0.134-0.301,0.303v5.814
			c0,0.168,0.131,0.307,0.301,0.307c0.163,0,0.303-0.139,0.303-0.307v-1.779c0-0.498,0.397-0.898,0.896-0.898h7.598
			c0.496,0,0.895,0.4,0.895,0.898v1.779c0,0.168,0.141,0.307,0.303,0.307c0.17,0,0.311-0.139,0.311-0.307v-5.814
			C74.02,154.328,73.879,154.194,73.709,154.194z"/>
		<path fill="#D4161A" d="M61.334,152.476v17.427h17.428v-17.427H61.334z M78.158,168.398c0,0.497-0.406,0.895-0.903,0.895H62.826
			c-0.48,0-0.887-0.397-0.887-0.895v-14.425c0-0.492,0.406-0.891,0.887-0.891h14.429c0.497,0,0.903,0.398,0.903,0.891V168.398z"/>
		<path fill="#D4161A" d="M74.02,161.96c0-0.169-0.141-0.302-0.311-0.302c-0.162,0-0.303,0.133-0.303,0.302
			c0,1.326-0.717,2.672-2.322,2.672h-3.611c-0.463-0.012-0.847-0.393-0.864-0.868v-1.804c0-0.169-0.138-0.302-0.302-0.302
			c-0.172,0-0.301,0.133-0.301,0.302v5.971c0,0.162,0.129,0.305,0.301,0.305c0.164,0,0.302-0.143,0.302-0.305v-1.791
			c0-0.492,0.401-0.896,0.897-0.896l3.578-0.003c1.605,0,2.322,1.345,2.322,2.672c0,0.169,0.141,0.305,0.303,0.305
			c0.17,0,0.311-0.136,0.311-0.305c0-1.23-0.498-2.221-1.307-2.779c-0.014-0.013-0.014-0.018-0.023-0.029
			c-0.26-0.188,0-0.337,0-0.337l-0.018-0.005C73.506,164.21,74.02,163.21,74.02,161.96z"/>
	</g>
</g>
</svg>
