<?xml version="1.0" encoding="utf-8"?>
<!-- Generator: Adobe Illustrator 16.0.0, SVG Export Plug-In . SVG Version: 6.00 Build 0)  -->
<!DOCTYPE svg PUBLIC "-//W3C//DTD SVG 1.1//EN" "http://www.w3.org/Graphics/SVG/1.1/DTD/svg11.dtd">
<svg version="1.1" id="logo3" xmlns="http://www.w3.org/2000/svg" xmlns:xlink="http://www.w3.org/1999/xlink" x="0px"
	 y="0px" width="15px" height="15px" viewBox="0 0 15 15" enable-background="new 0 0 15 15" xml:space="preserve">
<path fill="#D4161A" d="M2.311,8.162v5.145c0,0.143-0.122,0.259-0.261,0.259c-0.147,0-0.26-0.116-0.26-0.259V8.162
	c0-0.145,0.113-0.258,0.26-0.258C2.189,7.904,2.311,8.018,2.311,8.162z M12.812,7.904c-0.141,0-0.26,0.113-0.26,0.258v5.133
	c0,0.149,0.119,0.261,0.26,0.261c0.142,0,0.254-0.111,0.254-0.261V8.162C13.066,8.018,12.954,7.904,12.812,7.904z M12.812,1.479
	c-0.141,0-0.26,0.115-0.26,0.26v5.006c0,0.142,0.119,0.263,0.26,0.263c0.142,0,0.254-0.121,0.254-0.263V1.739
	C13.066,1.594,12.954,1.479,12.812,1.479z M10.651,1.479c-0.14,0-0.26,0.115-0.26,0.26l-0.006,1.41c0,0.425-0.345,0.774-0.764,0.774
	H3.082c-0.429,0-0.771-0.349-0.771-0.774v-1.41c0-0.146-0.122-0.26-0.261-0.26c-0.147,0-0.26,0.115-0.26,0.26v5.006
	c0,0.142,0.113,0.263,0.26,0.263c0.139,0,0.261-0.121,0.261-0.263V5.213c0-0.428,0.341-0.773,0.771-0.773h6.541
	c0.426,0,0.77,0.345,0.77,0.773v1.532c0,0.142,0.12,0.263,0.26,0.263c0.146,0,0.268-0.121,0.268-0.263V1.739
	C10.919,1.594,10.798,1.479,10.651,1.479z M15,0v15H0V0H15z M14.481,1.29c0-0.424-0.351-0.767-0.778-0.767H1.286
	c-0.415,0-0.765,0.343-0.765,0.767v12.416c0,0.43,0.35,0.771,0.765,0.771h12.417c0.428,0,0.778-0.341,0.778-0.771V1.29z
	 M10.919,8.162c0-0.145-0.121-0.258-0.268-0.258c-0.14,0-0.26,0.113-0.26,0.258c0,1.145-0.618,2.302-1.999,2.302H5.284
	c-0.398-0.009-0.729-0.339-0.744-0.749V8.162c0-0.145-0.119-0.258-0.26-0.258c-0.146,0-0.259,0.113-0.259,0.258v5.142
	c0,0.141,0.113,0.262,0.259,0.262c0.141,0,0.26-0.121,0.26-0.262v-1.542c0-0.424,0.345-0.771,0.772-0.771l3.08-0.003
	c1.381,0,1.999,1.159,1.999,2.3c0,0.146,0.12,0.264,0.26,0.264c0.146,0,0.268-0.117,0.268-0.264c0-1.059-0.429-1.911-1.124-2.393
	c-0.014-0.01-0.014-0.014-0.021-0.024c-0.224-0.161,0-0.289,0-0.289L9.76,10.576C10.477,10.1,10.919,9.24,10.919,8.162z"/>
</svg>
