<?xml version="1.0" encoding="utf-8"?>
<!-- Generator: Adobe Illustrator 16.0.0, SVG Export Plug-In . SVG Version: 6.00 Build 0)  -->
<!DOCTYPE svg PUBLIC "-//W3C//DTD SVG 1.1//EN" "http://www.w3.org/Graphics/SVG/1.1/DTD/svg11.dtd">
<svg version="1.1" id="logo0" xmlns="http://www.w3.org/2000/svg" xmlns:xlink="http://www.w3.org/1999/xlink" x="0px" y="0px"
	 width="150px" height="350px" viewBox="0 0 150 350" enable-background="new 0 0 150 350" xml:space="preserve">
<g>
	<rect fill="#07223d" width="150" height="350"/>
	<g>
		<path fill="#F2EEE6" d="M72.814,177.892c0.801,2.173-0.623,5.048-3.357,5.289c-1.552,0.133-2.079-0.877-2.118-1.312
			c-0.126-1.426,1.131-2.176,2.387-2.131c2.475,0.092,2.952-1.458,3.039-1.846c0.01-0.04,0.01-0.056,0.025-0.056
			C72.798,177.835,72.804,177.863,72.814,177.892z M75.968,178.649c0.004,0.011,0.023,0,0.034-0.001
			c0.323-0.068,2.018-0.255,2.84,2.515c0.357,1.211,1.035,1.952,2.076,1.952c0.447,0,1.766-0.209,1.766-2.056
			c0-2.001-2.475-3.168-4.494-3.149c-0.869,0.007-1.67,0.232-2.2,0.708C75.972,178.63,75.956,178.64,75.968,178.649z
			 M63.278,202.797c-0.017,0-0.017,0.021-0.021,0.06c-0.084,0.382-0.568,1.934-3.038,1.847c-1.266-0.052-2.52,0.703-2.394,2.123
			c0.041,0.438,0.564,1.453,2.124,1.316c2.728-0.24,4.156-3.117,3.354-5.286C63.297,202.827,63.29,202.797,63.278,202.797z
			 M68.686,202.873c-0.866,0.008-1.675,0.233-2.203,0.71c-0.021,0.013-0.025,0.021-0.021,0.03c0,0.006,0.023-0.002,0.027-0.004
			c0.334-0.068,2.027-0.251,2.854,2.514c0.357,1.21,1.031,1.952,2.073,1.952c0.44,0,1.765-0.211,1.765-2.052
			C73.181,204.024,70.702,202.857,68.686,202.873z M73.208,186.974v13.687c0,0.872-0.704,1.579-1.574,1.579
			c-0.871,0-1.58-0.708-1.58-1.579v-0.4c-0.005-0.165-0.155-0.227-0.232-0.227h-7.896c-0.132,0-0.233,0.106-0.233,0.232v0.395
			c0,0.872-0.708,1.579-1.579,1.579s-1.581-0.708-1.581-1.579v-14.836c0,0,0-0.037,0.012-0.046c0.017-0.004,0.021,0.009,0.034,0.021
			c0.852,0.939,2.009,1.087,2.672,1.105h7.959c0,0,1.838-0.295,1.909-2.301c0-0.012,0-0.054,0.017-0.063
			c0.02-0.01,0.039,0.021,0.062,0.039l1.97,2.283c0,0,0.021,0.017,0.031,0.042C73.208,186.931,73.208,186.974,73.208,186.974z
			 M61.926,199.531h7.895c0.076,0,0.228-0.061,0.232-0.226v-11.661c0-0.133-0.106-0.236-0.236-0.238h-7.891
			c-0.132,0.002-0.233,0.105-0.233,0.238v4.021c0,0.172,0.157,0.236,0.233,0.236c1.301,0,4.273,0,4.381,0
			c0.124,0,1.311-0.216,1.367-1.632c0-0.014,0-0.048,0.016-0.054c0.021-0.015,0.04,0.014,0.062,0.032
			c0.016,0.02,1.315,1.526,1.315,1.526s0.229,0.235,0.229,0.374c0,0.137-0.113,0.25-0.251,0.25v-0.003v0.003h-7.116
			c-0.075,0-0.233,0.062-0.233,0.237v2.719c0,0.171,0.152,0.236,0.233,0.236c1.296,0,4.273,0,4.382,0
			c0.123,0,1.311-0.213,1.366-1.632c0-0.018,0-0.046,0.016-0.058c0.021-0.013,0.04,0.02,0.062,0.036
			c0.016,0.018,1.315,1.522,1.315,1.522s0.23,0.24,0.23,0.376c0,0.141-0.112,0.256-0.252,0.256v-0.006v0.006h-7.115
			c-0.076,0-0.233,0.059-0.233,0.233v2.968C61.694,199.426,61.794,199.531,61.926,199.531z M82.809,202.797
			c-0.012,0-0.012,0.021-0.02,0.06c-0.086,0.382-0.564,1.934-3.039,1.847c-1.262-0.052-2.516,0.703-2.389,2.123
			c0.041,0.438,0.562,1.453,2.117,1.316c2.732-0.24,4.166-3.117,3.363-5.286C82.828,202.827,82.82,202.797,82.809,202.797z
			 M88.221,202.873c-0.869,0.008-1.676,0.233-2.201,0.71c-0.018,0.013-0.029,0.021-0.027,0.03c0.012,0.006,0.031-0.002,0.035-0.004
			c0.326-0.068,2.021-0.251,2.848,2.514c0.357,1.21,1.037,1.952,2.072,1.952c0.447,0,1.766-0.211,1.766-2.052
			C92.711,204.024,90.236,202.857,88.221,202.873z M92.734,186.974v13.687c0,0.872-0.701,1.579-1.566,1.579
			c-0.871,0-1.578-0.708-1.578-1.579v-0.4c-0.01-0.165-0.162-0.227-0.238-0.227h-7.891c-0.131,0-0.234,0.106-0.234,0.232v0.395
			c0,0.872-0.705,1.579-1.576,1.579c-0.869,0-1.572-0.708-1.572-1.579v-14.836c0,0-0.006-0.037,0.004-0.046
			c0.016-0.004,0.02,0.009,0.035,0.021c0.852,0.939,2,1.087,2.668,1.105h7.955c0,0,1.848-0.295,1.91-2.301
			c0-0.012,0-0.054,0.023-0.063c0.014-0.01,0.039,0.021,0.055,0.039l1.977,2.283c0,0,0.02,0.017,0.027,0.042
			C92.734,186.931,92.734,186.974,92.734,186.974z M81.461,199.531h7.891c0.076,0,0.229-0.061,0.236-0.226v-11.661
			c0-0.133-0.111-0.236-0.236-0.238h-7.891c-0.131,0.002-0.236,0.105-0.236,0.238v4.021c0,0.172,0.156,0.236,0.236,0.236
			c1.297,0,4.27,0,4.375,0c0.131,0,1.312-0.216,1.369-1.632c0.004-0.014,0-0.048,0.014-0.054c0.02-0.015,0.047,0.014,0.062,0.032
			c0.016,0.02,1.316,1.526,1.316,1.526s0.232,0.235,0.232,0.374c0,0.137-0.111,0.25-0.25,0.25v-0.003l-0.006,0.003h-7.111
			c-0.08,0-0.236,0.062-0.236,0.237v2.719c0,0.171,0.156,0.236,0.236,0.236c1.293,0,4.27,0,4.375,0c0.131,0,1.312-0.213,1.369-1.632
			c0.004-0.018,0-0.046,0.014-0.058c0.021-0.013,0.047,0.02,0.064,0.036c0.014,0.018,1.316,1.522,1.316,1.522s0.23,0.24,0.23,0.376
			c0,0.141-0.111,0.256-0.25,0.256v-0.006l-0.006,0.006h-7.111c-0.08,0-0.236,0.059-0.236,0.233v2.968
			C81.225,199.426,81.33,199.531,81.461,199.531z M83.85,158.135v17.294c0,0.87-0.705,1.574-1.574,1.574
			c-0.871,0-1.58-0.706-1.58-1.574v-0.394c0-0.175-0.16-0.233-0.236-0.233H70.444c-0.131,0-0.232,0.104-0.232,0.233v0.394
			c0,0.87-0.709,1.574-1.578,1.574s-1.574-0.706-1.574-1.574v-18.445c0,0-0.004-0.038,0.006-0.042
			c0.015-0.008,0.02,0.003,0.035,0.018c0.85,0.94,2.001,1.089,2.672,1.105H79.85c0,0,1.842-0.296,1.912-2.3
			c0-0.016,0-0.054,0.018-0.059c0.02-0.015,0.045,0.016,0.049,0.031l1.98,2.282c0,0,0.023,0.02,0.031,0.044
			C83.85,158.091,83.85,158.135,83.85,158.135z M80.457,174.301c0.076,0,0.238-0.064,0.238-0.237v-15.257
			c0-0.134-0.107-0.237-0.238-0.237H70.443c-0.131,0-0.232,0.104-0.232,0.237v5.128c0,0.173,0.156,0.235,0.232,0.235
			c1.555,0,6.206,0,6.315,0c0.131,0,1.318-0.213,1.373-1.631c0-0.017,0-0.049,0.016-0.058c0.021-0.013,0.043,0.019,0.055,0.032
			c0.021,0.022,1.322,1.526,1.322,1.526s0.229,0.238,0.229,0.374c0,0.142-0.111,0.255-0.25,0.255v-0.002v0.002h-9.055
			c-0.08,0-0.233,0.063-0.233,0.235v3.648c0,0.177,0.156,0.237,0.233,0.237c1.555,0,6.206,0,6.313,0
			c0.131,0,1.318-0.214,1.375-1.631c0-0.014,0-0.046,0.014-0.056c0.021-0.012,0.045,0.016,0.057,0.035
			c0.021,0.019,1.322,1.523,1.322,1.523s0.227,0.235,0.227,0.375c0,0.137-0.111,0.254-0.248,0.254v-0.006v0.006H70.45
			c-0.075,0-0.233,0.059-0.233,0.234v4.535c0,0.077,0.062,0.236,0.233,0.236h10.009v0.004H80.457z M85.951,229.176v17.295
			c0,0.869-0.707,1.576-1.578,1.576c-0.873,0-1.576-0.709-1.576-1.576v-0.39c0-0.179-0.16-0.241-0.238-0.241H72.542
			c-0.13,0-0.236,0.109-0.236,0.241v0.39c0,0.869-0.699,1.576-1.568,1.576c-0.876,0-1.579-0.709-1.579-1.576v-18.445
			c0,0,0-0.036,0.011-0.04c0.014-0.01,0.021,0.002,0.03,0.019c0.854,0.938,2.005,1.088,2.67,1.106h10.079c0,0,1.846-0.302,1.912-2.3
			c0-0.021,0-0.057,0.016-0.064c0.021-0.012,0.047,0.019,0.062,0.034l1.971,2.281c0,0,0.021,0.021,0.029,0.047
			C85.951,229.133,85.951,229.176,85.951,229.176z M82.559,245.337c0.078,0,0.24-0.059,0.24-0.235v-15.256
			c0-0.132-0.105-0.234-0.236-0.234H72.543c-0.13,0-0.236,0.103-0.236,0.234v5.124c0,0.174,0.162,0.235,0.236,0.235
			c1.56,0,6.207,0,6.312,0c0.137,0,1.318-0.206,1.373-1.627c0.006-0.015,0-0.051,0.016-0.059c0.021-0.008,0.041,0.021,0.061,0.036
			c0.018,0.019,1.326,1.525,1.326,1.525s0.227,0.237,0.227,0.376c0,0.137-0.117,0.247-0.258,0.247l0,0l0,0h-9.052
			c-0.074,0.004-0.237,0.063-0.237,0.239v3.646c0,0.178,0.162,0.237,0.237,0.237c1.559,0,6.207,0,6.312,0
			c0.135,0,1.316-0.211,1.375-1.627c0.004-0.019,0-0.054,0.014-0.059c0.021-0.011,0.041,0.019,0.061,0.034
			c0.016,0.015,1.326,1.522,1.326,1.522s0.227,0.237,0.227,0.38c0,0.14-0.117,0.249-0.258,0.249v-0.006v0.006H72.55
			c-0.073,0-0.237,0.062-0.237,0.234v4.535c0,0.083,0.062,0.236,0.237,0.236L82.559,245.337L82.559,245.337z M74.886,248.873
			c-0.018,0-0.018,0.021-0.021,0.057c-0.086,0.392-0.568,1.935-3.044,1.849c-1.255-0.044-2.509,0.706-2.389,2.129
			c0.042,0.44,0.569,1.446,2.119,1.309c2.733-0.235,4.163-3.111,3.359-5.278C74.902,248.902,74.896,248.873,74.886,248.873z
			 M80.287,248.949c-0.863,0.009-1.672,0.235-2.203,0.708c-0.016,0.017-0.031,0.021-0.02,0.032c0,0.013,0.025,0,0.029,0
			c0.328-0.076,2.021-0.255,2.848,2.513c0.361,1.213,1.035,1.95,2.078,1.95c0.443,0,1.766-0.208,1.766-2.053
			C84.785,250.101,82.303,248.936,80.287,248.949z M89.734,218.844V224c0,0.869-0.703,1.572-1.574,1.572
			c-0.877,0-1.58-0.704-1.58-1.572v-0.395c0-0.13-0.105-0.236-0.236-0.236H65.447c-0.107,0-0.198,0.069-0.228,0.162l0.02,15.752
			c-0.027,19.992-15.193,24.962-17.558,25.615l0,0c-0.011,0-0.029,0.006-0.039,0c0-0.012,0.01-0.021,0.016-0.021
			c0.004-0.004,0.011-0.006,0.011-0.006c2.077-0.785,14.39-6.273,14.39-26.218c0-3.098,0-20.958,0-20.958s-0.005-0.034,0.011-0.042
			c0.018-0.01,0.018,0.008,0.03,0.018c0.85,0.941,2.003,1.089,2.672,1.105h20.965c0,0,1.838-0.294,1.906-2.3
			c0.006-0.017,0-0.053,0.021-0.062s0.039,0.016,0.055,0.036l1.979,2.282c0,0,0.02,0.02,0.027,0.042
			C89.734,218.804,89.734,218.844,89.734,218.844z M86.344,222.871c0.131,0,0.236-0.107,0.236-0.239v-3.117
			c0-0.126-0.105-0.234-0.236-0.24H65.447c-0.131,0.006-0.236,0.113-0.236,0.24v3.117c0,0.133,0.106,0.239,0.236,0.239H86.344z"/>
		<g>
			<path fill="#D4161A" d="M85.166,252.952c-0.105,0-0.186,0.082-0.186,0.186v3.688c0,0.103,0.08,0.187,0.186,0.187
				c0.104,0,0.188-0.084,0.188-0.187v-3.688C85.352,253.034,85.268,252.952,85.166,252.952z"/>
			<path fill="#D4161A" d="M92.885,252.952c-0.104,0-0.188,0.082-0.188,0.186v3.68c0,0.106,0.084,0.188,0.188,0.188
				c0.1,0,0.18-0.081,0.18-0.188v-3.68C93.064,253.034,92.984,252.952,92.885,252.952z"/>
			<path fill="#D4161A" d="M92.885,248.347c-0.104,0-0.188,0.083-0.188,0.187v3.589c0,0.101,0.084,0.188,0.188,0.188
				c0.1,0,0.18-0.087,0.18-0.188v-3.589C93.064,248.43,92.984,248.347,92.885,248.347z"/>
			<path fill="#D4161A" d="M91.334,248.347c-0.102,0-0.188,0.083-0.188,0.187l-0.004,1.011c0,0.304-0.248,0.555-0.549,0.555h-4.689
				c-0.307,0-0.553-0.25-0.553-0.555v-1.011c0-0.104-0.086-0.187-0.188-0.187c-0.105,0-0.186,0.083-0.186,0.187v3.589
				c0,0.101,0.08,0.188,0.186,0.188c0.102,0,0.188-0.087,0.188-0.188v-1.1c0-0.308,0.246-0.554,0.553-0.554h4.689
				c0.309,0,0.553,0.246,0.553,0.554v1.1c0,0.101,0.086,0.188,0.188,0.188c0.105,0,0.191-0.087,0.191-0.188v-3.589
				C91.525,248.43,91.439,248.347,91.334,248.347z"/>
			<path fill="#D4161A" d="M83.697,247.286v10.752h10.754v-10.752H83.697L83.697,247.286z M94.078,257.111
				c0,0.307-0.248,0.553-0.557,0.553h-8.904c-0.295,0-0.547-0.246-0.547-0.553v-8.9c0-0.304,0.252-0.551,0.547-0.551h8.904
				c0.307,0,0.557,0.247,0.557,0.551V257.111z"/>
			<path fill="#D4161A" d="M91.525,253.138c0-0.104-0.086-0.186-0.191-0.186c-0.102,0-0.188,0.082-0.188,0.186
				c0,0.819-0.443,1.651-1.432,1.651h-2.229c-0.287-0.01-0.525-0.245-0.535-0.536v-1.113c0-0.104-0.084-0.187-0.188-0.187
				c-0.105,0-0.186,0.082-0.186,0.187v3.684c0,0.102,0.08,0.189,0.186,0.189c0.104,0,0.188-0.088,0.188-0.189v-1.104
				c0-0.304,0.246-0.552,0.553-0.552l2.211-0.003c0.988,0,1.432,0.832,1.432,1.649c0,0.104,0.086,0.187,0.188,0.187
				c0.105,0,0.191-0.082,0.191-0.187c0-0.759-0.305-1.371-0.805-1.716c-0.01-0.009-0.01-0.011-0.016-0.018
				c-0.158-0.115,0-0.208,0-0.208l-0.012-0.002C91.209,254.526,91.525,253.91,91.525,253.138z"/>
		</g>
		<path fill="#F2EEE6" d="M74.256,107.72c0-0.135-0.069-0.258-0.023-0.378c0.052-0.114,0.098-0.24,0.19-0.329
			c0.091-0.088,0.187-0.195,0.301-0.249c0.119-0.045,0.274,0.05,0.411,0.05c0.131,0,0.259-0.039,0.372,0.013
			c0.119,0.052,0.222,0.117,0.313,0.21c0.087,0.084,0.059,0.23,0.109,0.346c0.051,0.12,0.238,0.204,0.238,0.339
			c0,0.069,0.021,0.262,0.012,0.547c-0.005,0.154-0.012,0.337-0.021,0.536c-0.009,0.172-0.196,0.342-0.206,0.536
			c-0.012,0.192,0.104,0.407,0.085,0.616c-0.013,0.194-0.079,0.396-0.097,0.604c-0.012,0.198-0.113,0.396-0.133,0.6
			c-0.013,0.201,0.02,0.404-0.004,0.605c-0.014,0.209,0.106,0.425,0.092,0.632c-0.014,0.197-0.019,0.395-0.035,0.594
			c-0.014,0.196-0.028,0.396-0.045,0.589c-0.023,0.2-0.184,0.381-0.207,0.573c-0.021,0.204,0.048,0.413,0.023,0.598
			c-0.027,0.206-0.088,0.4-0.113,0.579c-0.041,0.267-0.018,0.518-0.059,0.71c-0.079,0.393-0.24,0.576-0.326,0.576
			c-0.096,0-0.183-0.194-0.263-0.59c-0.045-0.197-0.148-0.421-0.195-0.688c-0.021-0.179,0.047-0.39,0.021-0.597
			c-0.023-0.184-0.03-0.384-0.053-0.589c-0.019-0.192-0.114-0.381-0.131-0.58c-0.02-0.195,0.104-0.407,0.084-0.603
			c-0.016-0.197-0.188-0.378-0.203-0.576c-0.019-0.208,0.057-0.417,0.04-0.62c-0.012-0.204-0.086-0.402-0.104-0.604
			c-0.011-0.204-0.052-0.408-0.068-0.605c-0.011-0.21-0.011-0.415-0.017-0.612c-0.019-0.207-0.019-0.415-0.029-0.604
			c-0.01-0.194,0.019-0.375,0.012-0.546c-0.012-0.204-0.084-0.383-0.091-0.536C74.118,107.981,74.256,107.789,74.256,107.72z
			 M73.184,117.83c0.08-0.048,0.112-0.354-0.006-0.73c-0.064-0.195-0.275-0.373-0.372-0.621c-0.066-0.171-0.118-0.366-0.199-0.554
			c-0.074-0.178-0.068-0.394-0.149-0.585c-0.073-0.171-0.243-0.313-0.324-0.497c-0.086-0.177-0.189-0.343-0.275-0.522
			c-0.086-0.179-0.091-0.396-0.177-0.58c-0.086-0.185-0.176-0.365-0.27-0.547c-0.091-0.186-0.244-0.332-0.335-0.515
			c-0.092-0.185-0.12-0.398-0.205-0.581c-0.092-0.188-0.21-0.355-0.297-0.53c-0.097-0.191-0.188-0.372-0.281-0.542
			c-0.085-0.172-0.183-0.328-0.256-0.478c-0.097-0.182-0.159-0.356-0.228-0.492c-0.132-0.25-0.217-0.418-0.251-0.479
			c-0.067-0.119-0.194-0.17-0.297-0.246c-0.099-0.075-0.204-0.09-0.331-0.123c-0.112-0.028-0.234-0.23-0.359-0.214
			c-0.126,0.016-0.198,0.227-0.318,0.294c-0.114,0.067-0.326,0.034-0.401,0.134c-0.072,0.102-0.013,0.287-0.044,0.408
			c-0.034,0.119-0.184,0.245-0.165,0.371c0.015,0.13,0.192,0.213,0.26,0.331c0.036,0.062-0.004,0.305,0.15,0.546
			c0.086,0.131,0.193,0.282,0.301,0.45c0.092,0.14,0.304,0.217,0.407,0.379c0.107,0.162,0.195,0.35,0.308,0.528
			c0.108,0.163,0.303,0.279,0.415,0.453c0.109,0.166,0.143,0.387,0.263,0.558c0.109,0.164,0.207,0.348,0.322,0.519
			c0.11,0.168,0.295,0.297,0.41,0.461c0.113,0.163,0.124,0.4,0.234,0.563c0.112,0.164,0.372,0.221,0.485,0.383
			c0.112,0.161,0.112,0.407,0.229,0.561c0.123,0.162,0.347,0.242,0.462,0.395c0.124,0.167,0.144,0.401,0.249,0.544
			c0.167,0.215,0.298,0.426,0.429,0.571C72.835,117.739,73.102,117.872,73.184,117.83z M82.369,110.541
			c0.064-0.116,0.191-0.215,0.207-0.343c0.017-0.13-0.133-0.238-0.166-0.358c-0.033-0.122,0.072-0.319,0-0.425
			c-0.072-0.097-0.24-0.143-0.36-0.207c-0.12-0.068-0.245-0.18-0.37-0.192c-0.127-0.018-0.232,0.177-0.354,0.211
			c-0.125,0.031-0.244,0.01-0.348,0.083c-0.103,0.077-0.133,0.198-0.201,0.316c-0.038,0.055-0.215,0.171-0.346,0.422
			c-0.076,0.139-0.211,0.272-0.304,0.454c-0.078,0.146-0.026,0.373-0.119,0.551c-0.087,0.164-0.144,0.368-0.239,0.559
			c-0.086,0.179-0.205,0.341-0.297,0.532c-0.088,0.18-0.148,0.371-0.24,0.556c-0.092,0.18-0.314,0.296-0.4,0.482
			c-0.09,0.185-0.193,0.362-0.284,0.547c-0.087,0.184-0.122,0.382-0.206,0.563c-0.08,0.18-0.197,0.344-0.275,0.521
			c-0.084,0.184-0.203,0.347-0.277,0.525c-0.086,0.185-0.086,0.402-0.165,0.573c-0.074,0.195-0.108,0.395-0.177,0.564
			c-0.102,0.247-0.127,0.488-0.191,0.681c-0.125,0.374-0.283,0.653-0.204,0.7c0.075,0.044,0.304-0.181,0.572-0.473
			c0.13-0.149,0.218-0.386,0.388-0.597c0.112-0.144,0.309-0.238,0.434-0.402c0.113-0.154,0.154-0.369,0.275-0.534
			c0.11-0.157,0.334-0.239,0.449-0.402c0.114-0.158,0.188-0.348,0.309-0.514c0.108-0.158,0.189-0.341,0.301-0.507
			c0.115-0.166,0.287-0.297,0.402-0.465c0.119-0.171,0.234-0.335,0.348-0.503c0.119-0.17,0.297-0.299,0.404-0.465
			c0.113-0.175,0.075-0.446,0.183-0.609c0.114-0.178,0.327-0.282,0.436-0.443c0.108-0.163,0.183-0.331,0.274-0.472
			c0.105-0.17,0.222-0.313,0.306-0.445C82.285,110.792,82.336,110.6,82.369,110.541z M74.997,85.217
			c-0.206,0-0.411-0.092-0.609-0.083c-0.205,0.003-0.4,0.151-0.599,0.162c-0.211,0.009-0.429-0.162-0.63-0.151
			c-0.198,0.016-0.4,0.11-0.6,0.132c-0.198,0.02-0.41-0.025-0.604,0c-0.203,0.025-0.381,0.238-0.576,0.268
			c-0.205,0.034-0.416-0.014-0.615,0.022c-0.2,0.039-0.383,0.129-0.585,0.171c-0.197,0.043-0.414-0.021-0.615,0.025
			c-0.193,0.05-0.41,0.037-0.599,0.089c-0.204,0.055-0.353,0.246-0.547,0.303c-0.194,0.057-0.365,0.153-0.554,0.223
			c-0.198,0.065-0.405,0.104-0.592,0.177c-0.198,0.073-0.377,0.174-0.564,0.251c-0.195,0.086-0.439,0.028-0.63,0.113
			c-0.187,0.088-0.383,0.158-0.564,0.254c-0.188,0.097-0.348,0.241-0.526,0.338c-0.187,0.107-0.38,0.183-0.552,0.284
			c-0.183,0.109-0.375,0.189-0.547,0.3c-0.171,0.119-0.298,0.303-0.464,0.422c-0.171,0.123-0.302,0.287-0.46,0.41
			c-0.161,0.129-0.28,0.298-0.428,0.427c-0.154,0.13-0.406,0.146-0.553,0.287c-0.144,0.14-0.236,0.336-0.372,0.479
			c-0.136,0.147-0.212,0.351-0.342,0.498c-0.131,0.154-0.331,0.25-0.45,0.4c-0.131,0.165-0.166,0.379-0.275,0.54
			c-0.119,0.171-0.336,0.267-0.438,0.429c-0.12,0.206-0.191,0.436-0.291,0.63c-0.104,0.214-0.162,0.439-0.234,0.641
			c-0.086,0.229-0.218,0.43-0.264,0.635c-0.056,0.243-0.09,0.476-0.09,0.679c0,0.219-0.064,0.434-0.04,0.625
			c0.022,0.221,0.245,0.389,0.291,0.568c0.056,0.216,0.021,0.441,0.103,0.608c0.104,0.207,0.246,0.364,0.375,0.513
			c0.15,0.163,0.303,0.315,0.463,0.422c0.148,0.092,0.292,0.18,0.435,0.236c0.164,0.061,0.318,0.165,0.466,0.195
			c0.27,0.054,0.509-0.076,0.612-0.076c0.243,0,0.478-0.018,0.701-0.102c0.229-0.085,0.49-0.133,0.667-0.288
			c0.177-0.15,0.257-0.407,0.359-0.606c0.099-0.21,0.127-0.433,0.127-0.674c0-0.243,0.033-0.49-0.052-0.699
			c-0.092-0.211-0.229-0.412-0.389-0.568c-0.16-0.159-0.395-0.222-0.598-0.314c-0.211-0.089-0.422-0.209-0.668-0.209v0.034v-0.006
			v-0.018v0.021V94.23v0.057v0.037l-0.009-0.193v0.027v0.165v-0.14v-0.041v0.148v-0.163v0.006v0.137
			c-0.017,0-0.038-0.035-0.061-0.039c-0.023-0.005-0.104,0.057-0.119,0.039c-0.02-0.015,0.028-0.107,0.021-0.134
			c-0.005-0.024,0.02-0.054,0.035-0.1c0.039-0.145,0.039-0.364,0.143-0.59c0.08-0.16,0.284-0.276,0.399-0.47
			c0.091-0.159,0.06-0.425,0.183-0.608c0.109-0.155,0.349-0.24,0.487-0.414c0.124-0.156,0.164-0.404,0.308-0.566
			c0.137-0.146,0.38-0.199,0.536-0.354c0.143-0.14,0.325-0.25,0.491-0.388c0.153-0.134,0.324-0.239,0.503-0.372
			c0.157-0.123,0.272-0.325,0.45-0.445c0.17-0.115,0.331-0.26,0.52-0.367c0.177-0.107,0.349-0.243,0.536-0.343
			c0.183-0.099,0.428-0.078,0.628-0.174c0.188-0.088,0.349-0.228,0.554-0.312c0.189-0.079,0.382-0.157,0.588-0.23
			c0.199-0.071,0.427-0.039,0.633-0.104c0.195-0.065,0.345-0.285,0.549-0.342c0.195-0.052,0.396-0.137,0.593-0.188
			c0.198-0.044,0.406-0.092,0.608-0.135c0.202-0.04,0.442,0.099,0.646,0.065c0.195-0.032,0.382-0.192,0.589-0.217
			c0.198-0.026,0.417,0.01,0.621-0.017c0.206-0.021,0.424,0.054,0.635,0.037c0.2-0.019,0.4-0.068,0.61-0.08
			c0.206-0.009,0.405-0.157,0.617-0.16c0.211-0.006,0.416-0.021,0.628-0.021c0.211,0,0.422-0.004,0.627,0
			c0.21,0.008,0.417,0.153,0.623,0.166c0.205,0.008,0.423-0.064,0.622-0.051c0.211,0.016,0.411,0.066,0.617,0.091
			c0.21,0.02,0.427-0.023,0.627,0.004c0.212,0.028,0.399,0.168,0.599,0.202c0.206,0.036,0.417,0.04,0.616,0.079
			c0.207,0.04,0.422,0.019,0.623,0.065c0.205,0.048,0.381,0.188,0.576,0.241c0.206,0.058,0.394,0.133,0.588,0.192
			c0.206,0.066,0.43,0.064,0.623,0.136c0.205,0.075,0.348,0.283,0.543,0.36c0.198,0.081,0.455,0.028,0.639,0.12
			c0.193,0.092,0.349,0.268,0.529,0.364c0.194,0.102,0.403,0.152,0.583,0.258c0.188,0.11,0.376,0.202,0.547,0.32
			c0.184,0.118,0.342,0.26,0.507,0.379c0.173,0.133,0.331,0.271,0.486,0.403c0.166,0.143,0.291,0.309,0.438,0.454
			c0.159,0.15,0.354,0.252,0.484,0.4c0.154,0.16,0.266,0.343,0.391,0.498c0.144,0.172,0.203,0.379,0.317,0.542
			c0.115,0.177,0.252,0.328,0.343,0.487c0.119,0.195,0.199,0.377,0.281,0.54c0.104,0.224,0.169,0.406,0.21,0.546
			c0.021,0.045-0.006,0.057-0.017,0.084c0,0.03,0.021,0.03,0,0.043c-0.014,0.016-0.028-0.039-0.059-0.033
			c-0.019,0.006-0.013,0.065-0.027,0.065l-0.008,0.071V94.2v0.04l0,0l-0.006,0.094v-0.082v0.057v-0.057v0.049v-0.049v0.001
			l-0.007,0.031v-0.091v0.071v0.056v-0.108c-0.237,0-0.444,0.128-0.655,0.223c-0.203,0.085-0.443,0.127-0.609,0.288
			c-0.154,0.153-0.235,0.384-0.319,0.591c-0.092,0.21-0.108,0.435-0.108,0.679c0,0.24,0.028,0.459,0.131,0.668
			c0.104,0.202,0.219,0.407,0.395,0.561c0.18,0.152,0.366,0.334,0.588,0.421c0.225,0.079,0.493,0.125,0.73,0.125
			c0.109,0,0.348,0.02,0.617-0.034c0.149-0.026,0.272-0.197,0.439-0.257c0.143-0.054,0.334-0.037,0.484-0.128
			c0.164-0.107,0.318-0.274,0.467-0.439c0.125-0.15,0.145-0.386,0.24-0.59c0.086-0.166,0.229-0.32,0.283-0.538
			c0.049-0.18,0.008-0.387,0.035-0.604c0.022-0.191,0.184-0.386,0.184-0.604c0-0.202-0.053-0.437-0.104-0.688
			c-0.053-0.204-0.229-0.384-0.32-0.613c-0.072-0.204-0.072-0.454-0.176-0.67c-0.104-0.197-0.253-0.374-0.375-0.576
			c-0.099-0.169-0.154-0.37-0.275-0.538c-0.109-0.159-0.239-0.316-0.364-0.479c-0.121-0.154-0.339-0.23-0.476-0.385
			c-0.129-0.146-0.16-0.388-0.303-0.536c-0.138-0.144-0.354-0.206-0.502-0.348c-0.144-0.138-0.29-0.266-0.445-0.401
			c-0.147-0.128-0.229-0.347-0.39-0.475c-0.157-0.126-0.334-0.232-0.506-0.354c-0.167-0.122-0.313-0.274-0.493-0.389
			c-0.17-0.111-0.34-0.227-0.521-0.338c-0.174-0.102-0.365-0.185-0.545-0.285c-0.184-0.1-0.397-0.126-0.586-0.217
			c-0.185-0.093-0.338-0.247-0.525-0.34c-0.189-0.081-0.4-0.113-0.596-0.194c-0.188-0.079-0.342-0.263-0.534-0.339
			c-0.193-0.07-0.452,0.045-0.652-0.021c-0.187-0.063-0.374-0.132-0.563-0.195c-0.195-0.058-0.381-0.129-0.575-0.183
			c-0.194-0.051-0.388-0.109-0.589-0.156c-0.194-0.045-0.36-0.227-0.559-0.271c-0.195-0.038-0.41,0.007-0.617-0.027
			c-0.195-0.036-0.396-0.061-0.593-0.087c-0.196-0.032-0.394-0.085-0.594-0.109c-0.205-0.022-0.394-0.135-0.599-0.153
			c-0.199-0.018-0.41,0.063-0.614,0.051c-0.194-0.018-0.396-0.151-0.601-0.159c-0.201-0.008-0.412,0.177-0.617,0.172
			C75.402,85.265,75.201,85.217,74.997,85.217z M74.997,140.833c0.204,0,0.411,0.089,0.616,0.086
			c0.205-0.007,0.404-0.153,0.605-0.163c0.197-0.011,0.415,0.163,0.614,0.148c0.205-0.014,0.401-0.11,0.599-0.127
			c0.207-0.021,0.412,0.021,0.611,0c0.204-0.025,0.376-0.242,0.576-0.268c0.199-0.031,0.41,0.013,0.611-0.023
			c0.205-0.037,0.388-0.135,0.586-0.175c0.201-0.039,0.418,0.021,0.613-0.023c0.198-0.05,0.409-0.039,0.604-0.087
			c0.193-0.058,0.354-0.244,0.542-0.302c0.196-0.061,0.364-0.159,0.56-0.224c0.199-0.067,0.398-0.109,0.594-0.175
			c0.192-0.076,0.375-0.18,0.558-0.26c0.196-0.078,0.444-0.023,0.629-0.107c0.196-0.088,0.39-0.165,0.565-0.257
			c0.193-0.095,0.354-0.24,0.53-0.344c0.183-0.1,0.382-0.172,0.554-0.279c0.177-0.107,0.375-0.191,0.547-0.301
			c0.173-0.111,0.299-0.3,0.463-0.419c0.172-0.126,0.304-0.286,0.46-0.411c0.161-0.13,0.276-0.297,0.425-0.425
			c0.159-0.136,0.41-0.152,0.553-0.289c0.148-0.137,0.241-0.335,0.37-0.479c0.144-0.148,0.218-0.349,0.343-0.501
			c0.137-0.152,0.338-0.246,0.459-0.398c0.129-0.166,0.164-0.383,0.271-0.542c0.12-0.17,0.337-0.263,0.438-0.43
			c0.123-0.204,0.19-0.43,0.289-0.628c0.108-0.215,0.166-0.439,0.244-0.64c0.086-0.232,0.209-0.427,0.256-0.634
			c0.057-0.248,0.094-0.479,0.094-0.68c0-0.22,0.062-0.436,0.037-0.626c-0.021-0.219-0.237-0.387-0.289-0.569
			c-0.06-0.218-0.021-0.442-0.104-0.608c-0.103-0.203-0.245-0.366-0.371-0.51c-0.153-0.167-0.308-0.313-0.468-0.425
			c-0.146-0.092-0.291-0.175-0.439-0.232c-0.158-0.066-0.312-0.167-0.463-0.197c-0.269-0.053-0.505,0.08-0.615,0.08
			c-0.238,0-0.479,0.015-0.696,0.102c-0.228,0.08-0.49,0.13-0.666,0.285c-0.179,0.151-0.259,0.404-0.36,0.607
			c-0.097,0.207-0.126,0.43-0.126,0.67c0,0.245-0.034,0.491,0.052,0.703c0.092,0.211,0.229,0.411,0.389,0.567
			c0.16,0.159,0.389,0.225,0.599,0.313c0.207,0.091,0.422,0.205,0.662,0.209v-0.031v-0.007v-0.017v0.026h0.006v-0.06v-0.037v0.195
			v-0.181v0.167v-0.142l0.007,0.144v-0.147v0.158v-0.004l0.006-0.135c0.019,0,0.033,0.036,0.06,0.039
			c0.021,0.005,0.104-0.059,0.118-0.043c0.017,0.014-0.034,0.108-0.023,0.136c0.01,0.026-0.021,0.057-0.025,0.099
			c-0.045,0.146-0.045,0.364-0.149,0.59c-0.08,0.161-0.285,0.278-0.399,0.471c-0.091,0.159-0.051,0.425-0.178,0.608
			c-0.107,0.156-0.354,0.245-0.49,0.414c-0.125,0.155-0.158,0.405-0.309,0.568c-0.137,0.145-0.376,0.202-0.531,0.354
			c-0.146,0.14-0.329,0.251-0.49,0.391c-0.162,0.132-0.332,0.241-0.502,0.367c-0.164,0.126-0.281,0.326-0.462,0.45
			c-0.165,0.114-0.331,0.253-0.515,0.367c-0.178,0.103-0.348,0.24-0.536,0.342c-0.188,0.099-0.428,0.078-0.622,0.171
			c-0.188,0.087-0.359,0.229-0.561,0.312c-0.188,0.077-0.389,0.156-0.594,0.232c-0.188,0.071-0.42,0.04-0.633,0.104
			c-0.188,0.063-0.343,0.283-0.548,0.34c-0.192,0.051-0.387,0.138-0.592,0.186c-0.2,0.049-0.4,0.098-0.611,0.138
			c-0.198,0.042-0.433-0.099-0.639-0.065c-0.199,0.037-0.388,0.188-0.595,0.216c-0.197,0.025-0.414-0.006-0.619,0.015
			c-0.206,0.021-0.42-0.052-0.631-0.035c-0.197,0.016-0.404,0.07-0.608,0.079c-0.205,0.016-0.413,0.159-0.624,0.161
			c-0.204,0.006-0.41,0.023-0.627,0.023c-0.21,0-0.416,0.003-0.627-0.003c-0.213-0.004-0.411-0.154-0.617-0.166
			c-0.211-0.009-0.421,0.065-0.628,0.048c-0.205-0.014-0.412-0.067-0.617-0.088c-0.204-0.021-0.422,0.021-0.621-0.006
			c-0.212-0.028-0.401-0.164-0.605-0.198c-0.206-0.031-0.412-0.038-0.611-0.078c-0.21-0.043-0.429-0.021-0.628-0.066
			c-0.197-0.049-0.376-0.188-0.571-0.242c-0.198-0.056-0.393-0.128-0.587-0.192c-0.205-0.064-0.429-0.063-0.623-0.135
			c-0.205-0.072-0.352-0.279-0.542-0.359c-0.199-0.082-0.451-0.034-0.639-0.119c-0.2-0.091-0.349-0.266-0.531-0.365
			c-0.193-0.101-0.406-0.154-0.582-0.259c-0.183-0.109-0.378-0.199-0.553-0.318c-0.178-0.119-0.338-0.256-0.502-0.386
			c-0.172-0.127-0.326-0.264-0.486-0.399c-0.166-0.14-0.291-0.307-0.44-0.448c-0.153-0.155-0.348-0.256-0.484-0.404
			c-0.148-0.163-0.264-0.34-0.383-0.5c-0.142-0.168-0.203-0.375-0.32-0.537c-0.126-0.18-0.254-0.331-0.347-0.49
			c-0.115-0.195-0.195-0.378-0.273-0.537c-0.11-0.225-0.179-0.406-0.223-0.548c-0.012-0.046,0.012-0.059,0.023-0.086
			c0-0.028-0.023-0.028-0.008-0.043c0.015-0.015,0.035,0.039,0.057,0.037c0.022-0.008,0.022-0.064,0.039-0.064v-0.072v0.063v-0.034
			v-0.001v-0.093v0.08v-0.059v0.056l0.009-0.046v0.049v0.005v-0.031l0,0v0.069v0.057v-0.055c0.244-0.002,0.449-0.131,0.656-0.224
			c0.211-0.091,0.456-0.127,0.615-0.286c0.153-0.159,0.234-0.389,0.32-0.596c0.091-0.209,0.114-0.434,0.114-0.68
			c0-0.24-0.036-0.46-0.139-0.666c-0.096-0.201-0.223-0.403-0.394-0.558c-0.176-0.154-0.364-0.336-0.587-0.42
			c-0.229-0.085-0.493-0.125-0.736-0.125c-0.103,0-0.342-0.02-0.612,0.029c-0.142,0.028-0.274,0.193-0.438,0.258
			c-0.143,0.056-0.343,0.036-0.485,0.13c-0.166,0.108-0.32,0.271-0.469,0.439c-0.123,0.146-0.145,0.381-0.239,0.589
			c-0.086,0.167-0.224,0.323-0.28,0.534c-0.053,0.184-0.018,0.39-0.04,0.612c-0.022,0.186-0.183,0.382-0.183,0.602
			c0,0.202,0.052,0.436,0.103,0.684c0.046,0.206,0.234,0.39,0.321,0.616c0.073,0.206,0.073,0.451,0.174,0.669
			c0.105,0.196,0.254,0.38,0.372,0.585c0.103,0.163,0.16,0.366,0.28,0.53c0.109,0.157,0.233,0.321,0.367,0.48
			c0.119,0.154,0.335,0.229,0.467,0.383c0.13,0.151,0.164,0.39,0.301,0.542c0.139,0.139,0.354,0.202,0.502,0.345
			c0.144,0.135,0.292,0.264,0.453,0.397c0.148,0.133,0.224,0.351,0.388,0.479c0.153,0.126,0.336,0.231,0.506,0.354
			c0.161,0.119,0.315,0.271,0.486,0.386c0.172,0.112,0.348,0.23,0.525,0.335c0.178,0.11,0.366,0.186,0.554,0.288
			c0.176,0.101,0.398,0.125,0.582,0.22c0.182,0.092,0.338,0.247,0.524,0.333c0.184,0.086,0.399,0.12,0.593,0.197
			c0.183,0.079,0.337,0.262,0.537,0.337c0.188,0.074,0.45-0.044,0.652,0.024c0.181,0.066,0.37,0.135,0.564,0.195
			c0.192,0.054,0.382,0.131,0.574,0.184c0.195,0.051,0.383,0.109,0.584,0.158c0.193,0.043,0.364,0.226,0.564,0.27
			c0.198,0.04,0.404-0.004,0.609,0.029c0.196,0.035,0.399,0.059,0.601,0.087c0.192,0.028,0.394,0.076,0.592,0.104
			c0.201,0.022,0.396,0.135,0.599,0.154c0.195,0.019,0.406-0.064,0.611-0.052c0.199,0.017,0.399,0.151,0.604,0.158
			c0.2,0.012,0.406-0.175,0.611-0.172C74.592,140.784,74.791,140.833,74.997,140.833z M102.805,113.029
			c0-0.212,0.094-0.415,0.084-0.617c-0.002-0.206-0.152-0.402-0.164-0.602c-0.006-0.206,0.164-0.42,0.154-0.62
			c-0.018-0.203-0.113-0.402-0.132-0.602c-0.022-0.203,0.024-0.41,0-0.611c-0.026-0.203-0.239-0.375-0.272-0.573
			c-0.027-0.203,0.012-0.416-0.019-0.612c-0.039-0.203-0.131-0.389-0.17-0.584c-0.04-0.198,0.017-0.418-0.029-0.612
			c-0.051-0.199-0.038-0.41-0.086-0.608c-0.058-0.196-0.244-0.347-0.301-0.538c-0.062-0.198-0.16-0.372-0.224-0.556
			c-0.068-0.199-0.109-0.403-0.179-0.597c-0.075-0.197-0.176-0.373-0.254-0.564c-0.081-0.192-0.03-0.438-0.11-0.626
			c-0.092-0.191-0.164-0.389-0.254-0.568c-0.101-0.188-0.24-0.348-0.344-0.527c-0.098-0.177-0.179-0.377-0.279-0.554
			c-0.109-0.177-0.188-0.376-0.297-0.542c-0.119-0.177-0.31-0.3-0.423-0.465c-0.126-0.169-0.286-0.303-0.409-0.462
			c-0.132-0.159-0.298-0.276-0.429-0.425c-0.132-0.153-0.149-0.407-0.286-0.55c-0.143-0.151-0.343-0.239-0.486-0.374
			c-0.143-0.14-0.347-0.21-0.494-0.339c-0.153-0.137-0.245-0.337-0.4-0.456c-0.164-0.127-0.374-0.163-0.542-0.275
			c-0.166-0.115-0.263-0.33-0.428-0.437c-0.205-0.12-0.433-0.188-0.63-0.288c-0.217-0.107-0.439-0.163-0.637-0.237
			c-0.236-0.09-0.429-0.216-0.635-0.261c-0.25-0.06-0.479-0.092-0.679-0.092c-0.222,0-0.438-0.066-0.627-0.046
			c-0.222,0.027-0.388,0.244-0.57,0.297c-0.212,0.059-0.438,0.017-0.604,0.102c-0.205,0.104-0.366,0.245-0.515,0.376
			c-0.165,0.146-0.317,0.299-0.422,0.465c-0.092,0.144-0.176,0.288-0.228,0.431c-0.069,0.166-0.172,0.318-0.2,0.464
			c-0.052,0.271,0.079,0.51,0.079,0.618c0,0.241,0.011,0.477,0.099,0.701c0.085,0.221,0.136,0.485,0.285,0.659
			c0.16,0.177,0.41,0.259,0.614,0.36c0.201,0.099,0.424,0.129,0.67,0.129c0.244,0,0.49,0.027,0.701-0.059
			c0.211-0.088,0.41-0.228,0.565-0.387c0.159-0.158,0.222-0.386,0.312-0.593c0.093-0.209,0.207-0.427,0.207-0.665h-0.027V100.1
			v-0.012v0.02v-0.001c0,0-0.053,0-0.053-0.004h-0.034c0-0.003,0.19-0.003,0.19-0.003h-0.18h0.159H93.74h0.138H93.73l0.16-0.003l0,0
			c0,0-0.144,0-0.144-0.002c0-0.02,0.041-0.038,0.045-0.061c0.006-0.021-0.056-0.103-0.045-0.119
			c0.012-0.02,0.108,0.028,0.135,0.023c0.029-0.007,0.06,0.021,0.104,0.032c0.144,0.043,0.359,0.04,0.589,0.145
			c0.159,0.074,0.272,0.286,0.466,0.395c0.162,0.098,0.432,0.055,0.604,0.181c0.162,0.113,0.248,0.353,0.42,0.49
			c0.151,0.123,0.402,0.163,0.562,0.308c0.148,0.138,0.206,0.377,0.354,0.535c0.145,0.146,0.25,0.325,0.396,0.486
			c0.131,0.157,0.239,0.334,0.365,0.506c0.124,0.167,0.325,0.274,0.45,0.454c0.115,0.171,0.252,0.328,0.365,0.517
			c0.104,0.176,0.24,0.348,0.342,0.539c0.098,0.183,0.08,0.429,0.172,0.625c0.092,0.187,0.234,0.351,0.312,0.556
			c0.082,0.188,0.161,0.386,0.229,0.588c0.074,0.198,0.039,0.432,0.104,0.639c0.062,0.192,0.29,0.338,0.347,0.544
			c0.051,0.193,0.131,0.391,0.179,0.597c0.052,0.196,0.096,0.404,0.143,0.605c0.04,0.199-0.103,0.435-0.063,0.646
			c0.029,0.197,0.185,0.382,0.211,0.591c0.029,0.199-0.006,0.415,0.019,0.621c0.021,0.206-0.051,0.418-0.032,0.631
			c0.019,0.201,0.067,0.4,0.08,0.611c0.012,0.205,0.152,0.405,0.158,0.62c0.005,0.204,0.021,0.415,0.021,0.631
			c0,0.206,0,0.418,0,0.625c-0.006,0.211-0.152,0.416-0.166,0.619c-0.012,0.211,0.065,0.419,0.049,0.624
			c-0.02,0.212-0.071,0.415-0.09,0.614c-0.021,0.215,0.019,0.427-0.01,0.629c-0.022,0.211-0.166,0.398-0.201,0.604
			c-0.033,0.203-0.039,0.416-0.071,0.613c-0.046,0.208-0.019,0.425-0.063,0.621c-0.057,0.203-0.193,0.383-0.244,0.578
			c-0.059,0.198-0.131,0.394-0.199,0.584c-0.062,0.208-0.059,0.428-0.131,0.626c-0.074,0.202-0.28,0.35-0.36,0.538
			c-0.079,0.201-0.028,0.454-0.112,0.646c-0.098,0.194-0.273,0.345-0.367,0.527c-0.104,0.189-0.152,0.406-0.262,0.581
			c-0.107,0.188-0.199,0.379-0.314,0.55c-0.125,0.18-0.256,0.341-0.381,0.504c-0.139,0.171-0.275,0.335-0.406,0.489
			c-0.145,0.164-0.307,0.29-0.45,0.438c-0.155,0.154-0.25,0.348-0.406,0.484c-0.159,0.149-0.337,0.264-0.497,0.387
			c-0.171,0.132-0.374,0.201-0.533,0.316c-0.186,0.122-0.334,0.254-0.492,0.345c-0.196,0.114-0.377,0.196-0.537,0.271
			c-0.229,0.106-0.405,0.177-0.549,0.219c-0.045,0.017-0.06-0.005-0.086-0.014c-0.021-0.007-0.027,0.021-0.039,0.002
			c-0.019-0.016,0.035-0.033,0.035-0.056c-0.009-0.021-0.065-0.019-0.065-0.037l-0.073-0.003h0.064c0-0.005-0.027-0.005-0.027-0.005
			l-0.014-0.001l0.014-0.098v0.082v-0.06l-0.018,0.074h-0.051h0.051l0,0l-0.03-0.003l0.048-0.048v0.069v0.062l0.027-0.083
			c0-0.241-0.131-0.446-0.223-0.657c-0.093-0.207-0.133-0.453-0.291-0.607c-0.16-0.157-0.389-0.24-0.6-0.325
			c-0.211-0.089-0.428-0.111-0.673-0.111c-0.246,0-0.464,0.033-0.669,0.137c-0.201,0.101-0.403,0.216-0.561,0.392
			c-0.154,0.178-0.33,0.368-0.416,0.59c-0.082,0.22-0.123,0.488-0.123,0.729c0,0.107-0.021,0.346,0.026,0.617
			c0.028,0.145,0.196,0.274,0.256,0.438c0.058,0.143,0.035,0.342,0.126,0.484c0.107,0.165,0.276,0.32,0.438,0.467
			c0.149,0.127,0.385,0.139,0.59,0.241c0.17,0.082,0.326,0.22,0.537,0.28c0.184,0.048,0.395,0.011,0.609,0.036
			c0.191,0.02,0.383,0.186,0.604,0.186c0.2,0,0.434-0.055,0.68-0.111c0.205-0.046,0.394-0.229,0.622-0.312
			c0.2-0.074,0.452-0.071,0.668-0.181c0.193-0.098,0.375-0.249,0.582-0.372c0.166-0.1,0.361-0.155,0.538-0.276
			c0.151-0.107,0.313-0.237,0.474-0.365c0.157-0.119,0.233-0.339,0.387-0.474c0.148-0.128,0.389-0.159,0.539-0.303
			c0.142-0.134,0.203-0.346,0.34-0.498c0.138-0.144,0.27-0.291,0.406-0.449c0.125-0.146,0.349-0.229,0.472-0.386
			c0.127-0.155,0.235-0.341,0.362-0.506c0.112-0.169,0.262-0.313,0.381-0.492c0.115-0.167,0.229-0.343,0.336-0.522
			c0.103-0.17,0.188-0.37,0.285-0.549c0.104-0.18,0.127-0.396,0.224-0.584c0.09-0.185,0.243-0.339,0.33-0.526
			c0.086-0.187,0.12-0.397,0.198-0.591c0.08-0.188,0.263-0.339,0.338-0.535c0.066-0.192-0.045-0.455,0.021-0.652
			c0.062-0.188,0.133-0.377,0.188-0.567c0.063-0.191,0.138-0.375,0.195-0.576c0.045-0.19,0.104-0.383,0.153-0.582
			c0.048-0.194,0.229-0.359,0.269-0.562c0.041-0.197-0.004-0.411,0.029-0.613c0.034-0.197,0.055-0.391,0.086-0.596
			c0.033-0.196,0.084-0.394,0.108-0.597c0.022-0.196,0.132-0.394,0.147-0.593c0.022-0.199-0.058-0.414-0.045-0.617
			c0.018-0.198,0.153-0.394,0.159-0.597c0.013-0.203-0.179-0.414-0.172-0.621C102.76,113.43,102.805,113.231,102.805,113.029z
			 M47.195,113.029c0,0.202-0.091,0.408-0.086,0.606c0.007,0.208,0.154,0.406,0.164,0.604c0.014,0.209-0.164,0.419-0.146,0.619
			c0.012,0.21,0.108,0.403,0.131,0.601c0.012,0.203-0.028,0.413,0,0.613c0.023,0.201,0.234,0.372,0.262,0.572
			c0.028,0.202-0.011,0.414,0.022,0.613c0.041,0.202,0.131,0.388,0.17,0.583c0.04,0.2-0.021,0.419,0.03,0.614
			c0.045,0.199,0.04,0.414,0.084,0.604c0.06,0.196,0.241,0.352,0.304,0.542c0.058,0.195,0.158,0.371,0.222,0.561
			c0.067,0.196,0.104,0.401,0.179,0.592c0.072,0.194,0.176,0.374,0.256,0.565c0.08,0.191,0.027,0.436,0.107,0.621
			c0.092,0.192,0.159,0.391,0.258,0.568c0.097,0.191,0.24,0.352,0.335,0.527c0.104,0.184,0.179,0.381,0.286,0.553
			c0.109,0.179,0.188,0.38,0.297,0.548c0.119,0.171,0.302,0.297,0.422,0.459c0.125,0.17,0.286,0.31,0.41,0.466
			c0.132,0.16,0.299,0.273,0.429,0.425c0.132,0.153,0.148,0.408,0.285,0.551c0.143,0.148,0.335,0.236,0.479,0.371
			c0.148,0.143,0.347,0.214,0.497,0.346c0.159,0.132,0.251,0.33,0.403,0.451c0.167,0.125,0.377,0.164,0.538,0.275
			c0.17,0.117,0.269,0.334,0.434,0.435c0.206,0.122,0.428,0.194,0.621,0.292c0.223,0.105,0.446,0.164,0.647,0.239
			c0.227,0.085,0.426,0.211,0.632,0.263c0.251,0.054,0.479,0.088,0.679,0.088c0.224,0,0.433,0.065,0.622,0.04
			c0.224-0.022,0.396-0.242,0.57-0.29c0.219-0.057,0.44-0.022,0.612-0.104c0.203-0.104,0.364-0.246,0.506-0.374
			c0.172-0.147,0.32-0.303,0.422-0.467c0.099-0.142,0.184-0.291,0.241-0.434c0.063-0.16,0.17-0.313,0.193-0.46
			c0.053-0.271-0.079-0.51-0.079-0.617c0-0.24-0.012-0.478-0.098-0.701c-0.085-0.222-0.137-0.483-0.289-0.662
			c-0.15-0.176-0.402-0.256-0.604-0.359c-0.206-0.1-0.43-0.128-0.677-0.128c-0.244,0-0.489-0.031-0.7,0.054
			c-0.205,0.092-0.41,0.232-0.564,0.389c-0.161,0.156-0.224,0.389-0.315,0.6c-0.09,0.204-0.204,0.421-0.204,0.662h0.03v-0.008
			v-0.014v0.021v0.003h0.056h0.028h-0.189l0.105-0.074v0.165v-0.135l-0.094,0.046l0.149,0.001c0,0-0.16,0-0.16,0.005l0,0h0.145
			c0,0.021-0.039,0.043-0.048,0.062c-0.004,0.021,0.059,0.105,0.048,0.124c-0.018,0.014-0.109-0.036-0.139-0.028
			c-0.022,0.004-0.057-0.021-0.103-0.035c-0.144-0.039-0.361-0.039-0.585-0.146c-0.163-0.073-0.277-0.283-0.471-0.393
			c-0.161-0.095-0.428-0.055-0.605-0.178c-0.159-0.114-0.243-0.354-0.415-0.493c-0.154-0.124-0.406-0.158-0.565-0.303
			c-0.149-0.14-0.205-0.382-0.354-0.533c-0.138-0.148-0.251-0.327-0.394-0.493c-0.132-0.155-0.239-0.33-0.366-0.503
			c-0.127-0.162-0.327-0.274-0.451-0.454c-0.114-0.17-0.256-0.332-0.365-0.517c-0.103-0.178-0.239-0.346-0.349-0.541
			c-0.092-0.182-0.073-0.426-0.166-0.62c-0.09-0.192-0.233-0.358-0.312-0.554c-0.08-0.191-0.159-0.391-0.229-0.594
			c-0.074-0.197-0.046-0.428-0.104-0.636c-0.067-0.194-0.284-0.339-0.342-0.542c-0.052-0.2-0.138-0.394-0.189-0.6
			c-0.046-0.196-0.09-0.401-0.138-0.607c-0.038-0.199,0.105-0.437,0.064-0.642c-0.028-0.198-0.183-0.385-0.211-0.593
			c-0.028-0.198,0.006-0.41-0.02-0.625c-0.017-0.202,0.052-0.414,0.034-0.625c-0.016-0.206-0.066-0.402-0.073-0.613
			c-0.01-0.202-0.159-0.408-0.159-0.62c-0.011-0.205-0.027-0.417-0.027-0.624c0-0.216,0-0.426,0.006-0.631
			c0.006-0.215,0.153-0.412,0.16-0.62c0.012-0.211-0.063-0.419-0.046-0.626c0.011-0.206,0.066-0.413,0.09-0.616
			c0.017-0.207-0.022-0.425,0.007-0.625c0.028-0.207,0.164-0.398,0.2-0.602c0.032-0.206,0.039-0.415,0.08-0.616
			c0.032-0.206,0.016-0.425,0.056-0.621c0.051-0.206,0.195-0.385,0.25-0.578c0.06-0.201,0.132-0.392,0.19-0.586
			c0.067-0.204,0.067-0.427,0.132-0.624c0.078-0.202,0.283-0.353,0.362-0.54c0.08-0.196,0.035-0.458,0.121-0.642
			c0.092-0.197,0.263-0.346,0.361-0.532c0.103-0.187,0.152-0.399,0.261-0.577c0.108-0.189,0.2-0.38,0.315-0.549
			c0.123-0.184,0.263-0.347,0.382-0.509c0.131-0.172,0.274-0.329,0.406-0.486c0.142-0.166,0.308-0.29,0.449-0.437
			c0.147-0.155,0.251-0.351,0.4-0.487c0.165-0.147,0.342-0.261,0.496-0.388c0.177-0.136,0.388-0.2,0.542-0.312
			c0.184-0.123,0.329-0.258,0.49-0.347c0.195-0.115,0.377-0.198,0.539-0.279c0.222-0.103,0.405-0.172,0.547-0.213
			c0.045-0.014,0.059,0.011,0.086,0.015c0.028,0.009,0.028-0.021,0.046,0c0.013,0.014-0.04,0.036-0.04,0.057
			c0.012,0.021,0.069,0.017,0.069,0.034c0,0.003,0.066,0.003,0.066,0.003h-0.062l0.034,0.003h0.007h0.083h-0.078h0.064h-0.058
			c0,0,0.045,0,0.045,0.003h-0.052c0,0.004,0,0.004,0,0.004l-0.016-0.047l0,0v0.067v0.061l-0.024-0.081
			c0,0.238,0.132,0.447,0.216,0.654c0.091,0.206,0.133,0.449,0.291,0.612c0.161,0.153,0.387,0.234,0.601,0.322
			c0.204,0.084,0.426,0.104,0.671,0.104c0.246,0,0.463-0.028,0.668-0.127c0.201-0.104,0.407-0.22,0.562-0.396
			c0.151-0.174,0.334-0.363,0.414-0.585c0.086-0.226,0.131-0.489,0.131-0.73c0-0.108,0.02-0.348-0.032-0.618
			c-0.028-0.145-0.195-0.273-0.257-0.437c-0.057-0.144-0.033-0.344-0.133-0.486c-0.101-0.162-0.272-0.318-0.438-0.462
			c-0.142-0.131-0.381-0.144-0.587-0.245c-0.165-0.083-0.32-0.222-0.537-0.279c-0.186-0.049-0.383-0.013-0.605-0.038
			c-0.193-0.021-0.381-0.188-0.604-0.188c-0.2,0-0.439,0.057-0.685,0.114c-0.203,0.044-0.388,0.224-0.622,0.313
			c-0.198,0.072-0.446,0.071-0.66,0.179c-0.202,0.098-0.379,0.249-0.585,0.368c-0.164,0.104-0.359,0.16-0.535,0.278
			c-0.153,0.11-0.314,0.24-0.48,0.366c-0.147,0.119-0.228,0.339-0.383,0.474c-0.142,0.131-0.388,0.159-0.536,0.302
			c-0.144,0.137-0.204,0.35-0.342,0.499c-0.138,0.146-0.269,0.294-0.406,0.449c-0.123,0.152-0.347,0.227-0.474,0.387
			c-0.124,0.159-0.232,0.34-0.353,0.512c-0.12,0.161-0.273,0.311-0.388,0.483c-0.114,0.171-0.228,0.346-0.337,0.523
			c-0.102,0.173-0.188,0.368-0.285,0.553c-0.098,0.177-0.125,0.396-0.224,0.582c-0.091,0.186-0.245,0.337-0.331,0.528
			c-0.091,0.186-0.119,0.396-0.198,0.586c-0.079,0.192-0.263,0.347-0.335,0.542c-0.071,0.19,0.044,0.451-0.023,0.648
			c-0.063,0.19-0.132,0.373-0.194,0.573c-0.059,0.188-0.131,0.375-0.184,0.573c-0.052,0.191-0.109,0.379-0.16,0.585
			c-0.044,0.195-0.221,0.357-0.268,0.559c-0.04,0.197,0.007,0.412-0.027,0.61c-0.034,0.2-0.06,0.397-0.087,0.6
			c-0.033,0.197-0.084,0.394-0.108,0.595c-0.022,0.198-0.131,0.392-0.153,0.598c-0.017,0.197,0.064,0.41,0.052,0.612
			c-0.017,0.2-0.153,0.397-0.159,0.599c-0.011,0.206,0.176,0.415,0.172,0.621C47.24,112.617,47.195,112.816,47.195,113.029z
			 M74.997,101.571c-0.21,0-0.428-0.085-0.638-0.076c-0.212,0.005-0.418,0.159-0.63,0.171c-0.211,0.017-0.438-0.148-0.649-0.128
			c-0.21,0.022-0.416,0.125-0.629,0.156c-0.21,0.028-0.433-0.003-0.64,0.031c-0.209,0.036-0.381,0.259-0.586,0.308
			c-0.21,0.043-0.434,0.012-0.641,0.066c-0.204,0.047-0.394,0.155-0.596,0.214c-0.201,0.058-0.436,0.02-0.636,0.079
			c-0.189,0.061-0.397,0.062-0.582,0.128c-0.183,0.067-0.314,0.268-0.502,0.339c-0.183,0.075-0.342,0.186-0.521,0.263
			c-0.187,0.078-0.375,0.127-0.546,0.21c-0.184,0.084-0.345,0.198-0.515,0.29c-0.178,0.087-0.416,0.052-0.588,0.146
			c-0.171,0.098-0.354,0.182-0.521,0.284c-0.164,0.104-0.302,0.256-0.467,0.366c-0.159,0.108-0.342,0.192-0.496,0.308
			c-0.16,0.118-0.348,0.207-0.503,0.327c-0.156,0.125-0.259,0.317-0.398,0.445c-0.154,0.129-0.271,0.3-0.414,0.433
			c-0.146,0.139-0.242,0.314-0.375,0.458c-0.142,0.143-0.393,0.187-0.52,0.334c-0.132,0.151-0.195,0.357-0.313,0.51
			c-0.125,0.157-0.172,0.362-0.279,0.524c-0.114,0.163-0.299,0.278-0.406,0.445c-0.103,0.178-0.119,0.403-0.211,0.587
			c-0.093,0.187-0.303,0.312-0.377,0.502c-0.084,0.19-0.119,0.405-0.176,0.596c-0.067,0.198-0.092,0.402-0.145,0.604
			c-0.052,0.197-0.157,0.382-0.187,0.589c-0.04,0.202-0.067,0.406-0.086,0.613c-0.018,0.201-0.109,0.414-0.109,0.621
			c0,0.215,0.195,0.415,0.206,0.621c0.012,0.213-0.087,0.43-0.063,0.634c0.021,0.212,0.084,0.414,0.127,0.613
			c0.031,0.187,0.056,0.365,0.094,0.539c0.054,0.18,0.087,0.36,0.145,0.531c0.064,0.174,0.068,0.371,0.137,0.536
			c0.097,0.234,0.325,0.399,0.439,0.61c0.119,0.221,0.229,0.443,0.364,0.636c0.133,0.19,0.2,0.433,0.343,0.599
			c0.154,0.177,0.382,0.281,0.548,0.436c0.147,0.143,0.314,0.254,0.474,0.385c0.16,0.128,0.274,0.318,0.445,0.433
			c0.159,0.105,0.33,0.208,0.496,0.304c0.173,0.1,0.384,0.111,0.56,0.191c0.172,0.079,0.327,0.211,0.497,0.27
			c0.183,0.058,0.372,0.081,0.554,0.12c0.183,0.044,0.365,0.063,0.551,0.087c0.184,0.02,0.379,0.013,0.562,0.013
			c0.272,0,0.546-0.027,0.786-0.116c0.24-0.089,0.462-0.217,0.645-0.381c0.189-0.162,0.284-0.39,0.388-0.615
			c0.103-0.227,0.119-0.463,0.119-0.744c0-0.276,0.138-0.579,0.052-0.82c-0.085-0.242-0.375-0.372-0.537-0.554
			c-0.164-0.182-0.272-0.465-0.496-0.564c-0.23-0.101-0.519-0.028-0.8-0.028c-0.182,0-0.37-0.123-0.525-0.091
			c-0.158,0.031-0.262,0.219-0.397,0.294c-0.145,0.078-0.377,0.06-0.509,0.188c-0.126,0.135-0.256,0.313-0.377,0.509l0.079,0.019
			v0.034v-0.096v0.096c0,0.009-0.017-0.01-0.027-0.003c-0.005,0.008,0.022,0.086,0.007,0.091c-0.02,0.012-0.059-0.108-0.078-0.111
			c-0.024,0-0.11,0.154-0.14,0.14c-0.143-0.1-0.204-0.322-0.347-0.438c-0.132-0.111-0.354-0.133-0.482-0.267
			c-0.131-0.15-0.162-0.393-0.282-0.56c-0.121-0.163-0.196-0.347-0.293-0.53c-0.107-0.199-0.176-0.418-0.263-0.649
			c-0.084-0.211-0.25-0.404-0.306-0.647c-0.041-0.18-0.116-0.356-0.145-0.556c-0.028-0.182-0.079-0.375-0.097-0.57
			c-0.013-0.187,0.101-0.382,0.101-0.58c0-0.212-0.044-0.428-0.017-0.639c0.027-0.208,0.067-0.42,0.127-0.624
			c0.052-0.205,0.216-0.371,0.291-0.571c0.073-0.196,0.004-0.463,0.103-0.653c0.091-0.192,0.171-0.399,0.279-0.585
			c0.109-0.177,0.229-0.363,0.354-0.534c0.114-0.171,0.387-0.229,0.525-0.391c0.131-0.16,0.184-0.402,0.325-0.554
			c0.141-0.152,0.336-0.257,0.49-0.405c0.155-0.144,0.372-0.207,0.537-0.346c0.16-0.133,0.297-0.295,0.467-0.425
			c0.167-0.121,0.259-0.356,0.434-0.476c0.172-0.113,0.349-0.242,0.533-0.352c0.175-0.105,0.359-0.213,0.546-0.315
			c0.184-0.101,0.441-0.068,0.629-0.16c0.188-0.091,0.343-0.258,0.542-0.34c0.19-0.08,0.401-0.125,0.6-0.204
			c0.195-0.071,0.376-0.206,0.577-0.274c0.198-0.066,0.434-0.021,0.634-0.077c0.199-0.058,0.394-0.142,0.597-0.19
			c0.208-0.051,0.401-0.162,0.601-0.202c0.21-0.039,0.43,0.014,0.645-0.017c0.199-0.031,0.411-0.042,0.622-0.064
			c0.205-0.023,0.412-0.121,0.623-0.135c0.203-0.015,0.421,0.114,0.634,0.104c0.21-0.008,0.416-0.161,0.627-0.161
			c0.217,0,0.422,0.091,0.627,0.101c0.218,0.01,0.43-0.04,0.636-0.022c0.215,0.014,0.426,0.009,0.625,0.032
			c0.219,0.026,0.424,0.07,0.635,0.103c0.207,0.029,0.416,0.08,0.616,0.115c0.205,0.043,0.401,0.129,0.604,0.176
			c0.205,0.05,0.429,0.035,0.629,0.092c0.197,0.06,0.395,0.15,0.592,0.215c0.199,0.066,0.378,0.202,0.576,0.273
			c0.197,0.077,0.398,0.125,0.595,0.208c0.193,0.083,0.382,0.179,0.57,0.27c0.192,0.092,0.376,0.185,0.56,0.28
			c0.195,0.099,0.358,0.226,0.535,0.329c0.186,0.109,0.372,0.199,0.544,0.314c0.185,0.12,0.321,0.286,0.484,0.409
			c0.172,0.125,0.372,0.208,0.528,0.345c0.168,0.134,0.373,0.222,0.526,0.361c0.154,0.147,0.257,0.343,0.401,0.493
			c0.147,0.153,0.312,0.291,0.451,0.447c0.131,0.166,0.268,0.328,0.379,0.501c0.127,0.171,0.328,0.298,0.431,0.475
			c0.118,0.187,0.147,0.417,0.243,0.604c0.099,0.195,0.242,0.372,0.31,0.568c0.079,0.202,0.093,0.428,0.144,0.634
			c0.053,0.206,0.146,0.411,0.171,0.623c0.032,0.213-0.007,0.435-0.007,0.646c0,0.197-0.006,0.392-0.021,0.576
			c-0.013,0.199-0.005,0.395-0.033,0.578c-0.027,0.198-0.064,0.388-0.107,0.57c-0.061,0.237-0.195,0.445-0.281,0.662
			c-0.084,0.23-0.232,0.417-0.35,0.617c-0.098,0.184-0.151,0.381-0.268,0.542c-0.126,0.168-0.189,0.381-0.324,0.525
			c-0.127,0.134-0.332,0.176-0.463,0.289c-0.139,0.117-0.244,0.271-0.389,0.367c-0.027,0.017-0.062,0.057-0.084,0.057
			c-0.023,0-0.053-0.031-0.068-0.04c-0.02-0.009-0.014-0.045-0.02-0.056c-0.012-0.01,0.047-0.041,0.035-0.053l-0.06,0.115v0.027
			v-0.13h0.06c-0.117-0.197-0.273-0.348-0.404-0.479c-0.127-0.132-0.326-0.129-0.469-0.206c-0.145-0.074-0.245-0.192-0.411-0.223
			c-0.154-0.033-0.32,0.029-0.503,0.029c-0.279,0-0.561-0.091-0.787,0.009c-0.229,0.103-0.43,0.283-0.594,0.467
			c-0.166,0.183-0.188,0.453-0.278,0.694c-0.086,0.244-0.229,0.481-0.229,0.758c0,0.281,0.098,0.529,0.197,0.757
			c0.105,0.227,0.211,0.465,0.391,0.63c0.188,0.164,0.422,0.293,0.66,0.381c0.246,0.09,0.521,0.016,0.803,0.016
			c0.188,0,0.373,0.133,0.563,0.112c0.183-0.022,0.354-0.16,0.535-0.199c0.187-0.043,0.354-0.093,0.538-0.152
			c0.17-0.056,0.395-0.017,0.562-0.092c0.18-0.078,0.338-0.19,0.515-0.284c0.165-0.102,0.36-0.171,0.521-0.283
			c0.165-0.111,0.336-0.237,0.496-0.368c0.153-0.129,0.29-0.288,0.438-0.431c0.16-0.154,0.264-0.373,0.412-0.549
			c0.149-0.17,0.344-0.302,0.476-0.497c0.138-0.193,0.222-0.43,0.336-0.653c0.118-0.21,0.329-0.385,0.429-0.617
			c0.065-0.166-0.053-0.402,0.004-0.577c0.061-0.171,0.114-0.334,0.16-0.517c0.047-0.174,0.103-0.339,0.143-0.526
			c0.033-0.195,0.074-0.396,0.104-0.608c0.021-0.201,0.183-0.397,0.194-0.612c0.013-0.201-0.062-0.414-0.062-0.628
			c0-0.208-0.022-0.414-0.039-0.618c-0.021-0.202-0.021-0.415-0.059-0.613c-0.034-0.203,0.012-0.429-0.04-0.629
			c-0.06-0.199-0.212-0.37-0.28-0.568c-0.062-0.191-0.022-0.434-0.104-0.622c-0.08-0.188-0.343-0.296-0.438-0.479
			c-0.091-0.185-0.021-0.46-0.13-0.639c-0.104-0.167-0.31-0.271-0.417-0.437c-0.111-0.158-0.302-0.27-0.422-0.427
			c-0.121-0.154-0.188-0.348-0.314-0.5c-0.131-0.148-0.25-0.306-0.387-0.452c-0.131-0.143-0.24-0.319-0.382-0.456
			c-0.144-0.135-0.394-0.151-0.544-0.283c-0.152-0.129-0.163-0.416-0.32-0.542c-0.152-0.126-0.342-0.211-0.505-0.33
			c-0.153-0.111-0.315-0.229-0.479-0.337c-0.16-0.11-0.389-0.116-0.555-0.224c-0.17-0.104-0.297-0.259-0.468-0.356
			c-0.172-0.098-0.336-0.192-0.515-0.284c-0.176-0.092-0.354-0.168-0.531-0.258c-0.174-0.08-0.369-0.132-0.552-0.212
			c-0.177-0.074-0.349-0.178-0.528-0.249c-0.186-0.073-0.334-0.225-0.527-0.291c-0.183-0.067-0.433,0.058-0.621-0.003
			c-0.2-0.064-0.359-0.25-0.565-0.308c-0.205-0.058-0.423-0.076-0.621-0.129c-0.212-0.051-0.405-0.153-0.614-0.197
			c-0.205-0.045-0.42-0.075-0.625-0.111c-0.211-0.036-0.416-0.115-0.627-0.146c-0.212-0.028-0.427,0.003-0.646-0.018
			c-0.205-0.021-0.421-0.032-0.634-0.041c-0.209-0.02-0.43,0.033-0.639,0.026C75.419,101.578,75.214,101.571,74.997,101.571z
			 M79.566,119.475c-0.272,0-0.562-0.03-0.803,0.072c-0.246,0.103-0.379,0.361-0.559,0.544c-0.184,0.179-0.48,0.301-0.583,0.541
			c-0.104,0.243-0.086,0.545-0.086,0.824c0,0.171-0.047,0.354-0.007,0.51c0.041,0.16,0.273,0.24,0.35,0.377
			c0.071,0.14,0.096,0.302,0.198,0.418c0.103,0.117,0.245,0.174,0.377,0.263c0,0.003-0.06,0.091-0.052,0.102
			c0.005,0.005-0.041,0.036-0.041,0.048c0.007,0.017,0.144,0.021,0.138,0.037c-0.005,0.02-0.019,0.1-0.04,0.119
			c-0.16,0.134-0.387,0.245-0.609,0.365c-0.229,0.116-0.484,0.263-0.771,0.354c-0.146,0.049-0.343-0.056-0.504-0.016
			c-0.152,0.035-0.313,0.047-0.479,0.071c-0.177,0.028-0.354,0.103-0.543,0.114c-0.182,0.014-0.371-0.013-0.562-0.013
			c-0.193,0-0.372-0.051-0.548-0.062c-0.194-0.012-0.384,0.047-0.56,0.019c-0.166-0.026-0.338-0.007-0.485-0.041
			c-0.159-0.041-0.337-0.033-0.485-0.082c-0.284-0.092-0.479-0.346-0.701-0.468c-0.229-0.115-0.457-0.18-0.623-0.315
			c-0.022-0.02-0.12-0.013-0.125-0.035c-0.005-0.016,0.084-0.061,0.097-0.077c0-0.012-0.056-0.091-0.052-0.098
			c0.012-0.01,0.109,0.083,0.109,0.083c0.124-0.095,0.211-0.235,0.314-0.358c0.108-0.115,0.164-0.265,0.232-0.401
			c0.075-0.14,0.19-0.263,0.23-0.416c0.044-0.157,0.067-0.329,0.067-0.5c0-0.28,0.011-0.582-0.092-0.824
			c-0.103-0.24-0.398-0.362-0.582-0.541c-0.183-0.183-0.326-0.425-0.564-0.524c-0.24-0.103-0.521-0.134-0.799-0.134
			c-0.236,0-0.445,0.01-0.635,0.052c-0.229,0.05-0.434,0.121-0.599,0.223c-0.149,0.089-0.332,0.153-0.438,0.271
			c-0.121,0.122-0.115,0.343-0.201,0.479c-0.152,0.278-0.269,0.551-0.319,0.816c-0.057,0.263-0.165,0.501-0.165,0.662
			c0,0.204,0.125,0.412,0.175,0.623c0.059,0.204,0.16,0.399,0.263,0.604c0.098,0.202,0.15,0.445,0.291,0.638
			c0.144,0.194,0.31,0.384,0.486,0.562c0.131,0.129,0.327,0.2,0.479,0.335c0.138,0.119,0.251,0.295,0.415,0.41
			c0.179,0.125,0.395,0.228,0.606,0.348c0.198,0.108,0.405,0.208,0.635,0.305c0.16,0.075,0.336,0.127,0.514,0.192
			c0.171,0.06,0.343,0.139,0.523,0.188c0.179,0.049,0.354,0.094,0.544,0.129c0.211,0.045,0.439,0.028,0.661,0.053
			c0.217,0.029,0.44,0.02,0.668,0.029c0.216,0.015,0.433,0.217,0.662,0.217v-0.187v0.169v-0.139v0.139v-0.147v0.164v-0.005v-0.139
			l0.006,0.036v-0.097v0.098v0.022v-0.076v0.131v-0.175v0.144c0.233,0,0.451-0.144,0.667-0.156c0.229-0.014,0.469,0.102,0.677,0.07
			c0.23-0.028,0.46-0.028,0.672-0.072c0.189-0.04,0.383-0.06,0.553-0.109c0.185-0.049,0.342-0.199,0.51-0.262
			c0.175-0.062,0.335-0.16,0.502-0.234c0.217-0.099,0.412-0.231,0.604-0.341c0.211-0.119,0.475-0.139,0.656-0.266
			c0.17-0.117,0.284-0.289,0.422-0.406c0.154-0.136,0.296-0.265,0.428-0.396c0.178-0.179,0.416-0.301,0.561-0.497
			c0.143-0.195,0.123-0.482,0.223-0.688c0.104-0.205,0.143-0.408,0.194-0.619c0.051-0.203,0.073-0.392,0.073-0.596
			c0-0.161,0.156-0.415,0.109-0.678c-0.052-0.267-0.263-0.521-0.416-0.793c-0.08-0.142-0.127-0.306-0.246-0.43
			c-0.107-0.115-0.195-0.298-0.347-0.385c-0.162-0.103-0.401-0.154-0.624-0.204C80.023,119.401,79.801,119.475,79.566,119.475z"/>
	</g>
	<path fill="#F2EEE6" d="M136.43,14.64c0.266,0.265,0.264,0.69,0.002,0.952c-0.264,0.264-4.552,4.128-4.814,3.863
		c-0.266-0.264,3.6-4.551,3.861-4.814C135.741,14.378,136.168,14.377,136.43,14.64z M131.039,12.961
		c0.096-0.359,0.466-0.573,0.824-0.477c0.359,0.096,0.574,0.467,0.478,0.826c-0.096,0.359-1.88,5.85-2.239,5.752
		C129.741,18.965,130.941,13.321,131.039,12.961z M23.964,12.684c0.808,0,1.466,0.658,1.466,1.467c0,0.371-0.143,0.706-0.371,0.965
		h96.991c-0.229-0.259-0.37-0.594-0.37-0.965c0-0.809,0.657-1.467,1.465-1.467c0.812,0,1.469,0.658,1.469,1.467
		c0,0.391-0.155,0.744-0.405,1.007c-0.075,0.127-0.161,0.247-0.269,0.351c-0.621,0.605-1.535,0.598-1.635,0.599H24.792
		c-0.006,0-0.015,0-0.028,0c-0.18,0-1.013-0.033-1.594-0.6c-0.106-0.104-0.192-0.224-0.268-0.351
		c-0.25-0.263-0.406-0.616-0.406-1.007C22.496,13.342,23.154,12.684,23.964,12.684z M13.57,14.64
		c0.262-0.263,0.688-0.262,0.951,0.001c0.264,0.264,4.127,4.551,3.863,4.814c-0.265,0.265-4.553-3.6-4.816-3.863
		C13.307,15.331,13.306,14.905,13.57,14.64z M11.413,19.208c0.095-0.357,0.467-0.573,0.827-0.477
		c0.359,0.096,5.848,1.881,5.751,2.239c-0.097,0.36-5.741-0.842-6.101-0.938C11.529,19.938,11.316,19.566,11.413,19.208z
		 M13.309,26.708c-0.809,0-1.467-0.658-1.467-1.467c0-0.808,0.658-1.466,1.467-1.466c0.392,0,0.746,0.156,1.009,0.407
		c0.126,0.075,0.246,0.161,0.35,0.267c0.605,0.622,0.601,1.531,0.598,1.633v296.773c0.002,0.09,0.007,1-0.599,1.621
		c-0.104,0.105-0.223,0.19-0.35,0.269c-0.263,0.25-0.617,0.405-1.009,0.405c-0.809,0-1.467-0.657-1.467-1.467
		s0.658-1.468,1.467-1.468c0.371,0,0.707,0.144,0.965,0.371V26.337C14.015,26.565,13.68,26.708,13.309,26.708z M11.413,330.794
		c-0.097-0.358,0.116-0.729,0.478-0.826c0.359-0.096,6.004-1.297,6.101-0.938c0.097,0.358-5.392,2.145-5.751,2.237
		C11.88,331.366,11.508,331.15,11.413,330.794z M13.57,335.359c-0.265-0.264-0.264-0.688-0.002-0.952
		c0.264-0.265,4.552-4.128,4.816-3.861c0.264,0.263-3.6,4.552-3.863,4.813C14.259,335.622,13.832,335.624,13.57,335.359z
		 M18.961,337.038c-0.096,0.36-0.466,0.573-0.825,0.479c-0.359-0.1-0.574-0.471-0.477-0.828c0.097-0.357,1.88-5.85,2.239-5.752
		C20.259,331.034,19.058,336.68,18.961,337.038z M19.898,19.063c-0.359,0.098-2.143-5.393-2.239-5.752
		c-0.098-0.359,0.117-0.729,0.477-0.826c0.36-0.097,0.729,0.117,0.825,0.477C19.058,13.321,20.259,18.965,19.898,19.063z
		 M124.218,337.221c-0.809,0-1.466-0.658-1.466-1.466c0-0.371,0.143-0.707,0.37-0.965H25.06c0.228,0.258,0.37,0.594,0.37,0.965
		c0,0.808-0.658,1.466-1.466,1.466c-0.81,0-1.468-0.658-1.468-1.466c0-0.394,0.157-0.748,0.408-1.011
		c0.075-0.126,0.161-0.245,0.267-0.35c0.623-0.606,1.539-0.598,1.634-0.599h98.585c0.096,0.003,0.998-0.009,1.621,0.599
		c0.104,0.104,0.189,0.224,0.268,0.35c0.25,0.263,0.406,0.617,0.406,1.011C125.686,336.562,125.027,337.221,124.218,337.221z
		 M131.863,337.518c-0.358,0.097-0.729-0.117-0.824-0.479c-0.098-0.357-1.298-6.004-0.938-6.104
		c0.357-0.096,2.143,5.396,2.237,5.752C132.438,337.048,132.225,337.419,131.863,337.518z M136.43,335.359
		c-0.262,0.265-0.688,0.263-0.951,0c-0.264-0.264-4.127-4.553-3.861-4.813c0.265-0.267,4.553,3.599,4.814,3.861
		C136.693,334.671,136.693,335.098,136.43,335.359z M138.587,330.794c-0.095,0.356-0.467,0.572-0.827,0.476
		c-0.359-0.095-5.848-1.879-5.751-2.237c0.097-0.359,5.741,0.842,6.101,0.938C138.471,330.062,138.684,330.436,138.587,330.794z
		 M136.923,322.218c0.81,0,1.468,0.658,1.468,1.468s-0.658,1.467-1.468,1.467c-0.392,0-0.746-0.155-1.009-0.405
		c-0.126-0.076-0.246-0.161-0.35-0.269c-0.606-0.621-0.603-1.533-0.601-1.636V26.07c-0.002-0.089-0.008-0.999,0.599-1.621
		c0.104-0.106,0.225-0.192,0.351-0.267c0.265-0.251,0.618-0.407,1.01-0.407c0.81,0,1.468,0.658,1.468,1.466
		c0,0.809-0.658,1.467-1.468,1.467c-0.371,0-0.707-0.143-0.965-0.371v296.252C136.216,322.359,136.552,322.218,136.923,322.218z
		 M138.109,20.032c-0.359,0.097-6.004,1.299-6.103,0.938c-0.097-0.358,5.394-2.144,5.751-2.239c0.36-0.097,0.732,0.119,0.827,0.477
		C138.684,19.566,138.471,19.938,138.109,20.032z"/>
</g>
</svg>
