<?xml version="1.0" encoding="utf-8"?>
<!-- Generator: Adobe Illustrator 16.0.0, SVG Export Plug-In . SVG Version: 6.00 Build 0)  -->
<!DOCTYPE svg PUBLIC "-//W3C//DTD SVG 1.1//EN" "http://www.w3.org/Graphics/SVG/1.1/DTD/svg11.dtd">
<svg version="1.1" id="opening_logo2" xmlns="http://www.w3.org/2000/svg" xmlns:xlink="http://www.w3.org/1999/xlink" x="0px"
	 y="0px" width="100px" height="200px" viewBox="0 0 100 200" enable-background="new 0 0 100 200" xml:space="preserve">
<path fill="#07223C" d="M72.189,124.532v37.299c0,1.479-1.195,2.681-2.676,2.681s-2.689-1.202-2.689-2.681v-0.668
	c0-0.3-0.275-0.397-0.4-0.397H44.621c-0.225,0-0.397,0.177-0.397,0.397v0.668c0,1.479-1.205,2.681-2.685,2.681
	c-1.479,0-2.677-1.202-2.677-2.681v-39.255c0,0-0.007-0.065,0.011-0.072c0.023-0.014,0.03,0.005,0.058,0.027
	c1.445,1.602,3.403,1.851,4.543,1.882h5.176c0-3.495,0-6.304,0-6.304c1.759,1.688,3.532,1.702,4.157,1.658
	c0.623-0.042,0.475,0.278,0.475,0.278s0,1.876,0,4.367h3.496c0-3.459,0-6.304,0-6.304c1.758,1.688,3.531,1.702,4.156,1.658
	c0.623-0.042,0.475,0.278,0.475,0.278s0,1.856,0,4.367h3.98c0,0,3.129-0.503,3.252-3.913c0-0.024,0-0.089,0.025-0.096
	c0.031-0.026,0.076,0.024,0.084,0.054l3.369,3.881c0,0,0.035,0.033,0.053,0.074C72.189,124.458,72.189,124.532,72.189,124.532z
	 M66.824,125.673c0-0.229-0.178-0.407-0.4-0.407h-5.016c0,4.612,0,10.822,0,12.261c0,2.352,0.367,7.06,3.242,9.312
	c0,0-4.312,0-6.529-3.888c-1.359-2.362-1.344-3.862-1.344-6.799c0-1.56,0-6.549,0-10.887h-3.496c0,4.024,0,9.18,0,10.887
	c0,2.937,0.016,4.437-1.344,6.799c-2.217,3.888-6.529,3.888-6.529,3.888c2.875-2.253,3.241-6.961,3.241-9.312
	c0-1.321,0-7.286,0-12.261h-4.028c-0.225,0-0.397,0.179-0.397,0.407v10.971v1.653v14.209c0,0.3,0.268,0.403,0.397,0.403
	c2.641,0,15.326,0,15.51,0c0.223,0,2.238-0.365,2.33-2.773c0-0.023,0-0.079,0.025-0.095c0.037-0.018,0.078,0.027,0.096,0.061
	c0.033,0.03,2.25,2.593,2.25,2.593s0.385,0.4,0.385,0.638c0,0.233-0.188,0.431-0.428,0.431H44.621c-0.13,0-0.397,0.1-0.397,0.398
	v5.345c0,0.133,0.106,0.403,0.397,0.403h21.803c0.125,0,0.4-0.105,0.4-0.403V125.673z M70.305,116.547
	c0.24,0,0.428-0.195,0.428-0.43c0-0.237-0.385-0.638-0.385-0.638s-2.217-2.562-2.25-2.593c-0.018-0.033-0.059-0.077-0.096-0.061
	c-0.025,0.017-0.025,0.071-0.025,0.096c-0.092,2.407-2.107,2.771-2.33,2.771c-0.184,0-24.145,0-26.785,0l0.434,0.854H70.305z
	 M28.977,115.646c-1.332,0.011-2.562,0.355-3.377,1.085c-0.026,0.02-0.049,0.034-0.032,0.049c0.006,0.016,0.038,0,0.055-0.002
	c0.502-0.105,3.093-0.391,4.349,3.849c0.553,1.854,1.587,2.987,3.18,2.987c0.686,0,2.703-0.32,2.703-3.146
	C35.854,117.404,32.062,115.62,28.977,115.646z M25.672,130.127c0.553,1.854,1.587,2.987,3.18,2.987c0.686,0,2.703-0.32,2.703-3.146
	c0-3.063-3.791-4.847-6.877-4.82c-1.332,0.012-2.562,0.354-3.377,1.084c-0.026,0.02-0.049,0.034-0.032,0.05
	c0.006,0.016,0.039,0,0.055-0.001C21.825,126.174,24.416,125.888,25.672,130.127z M35.492,137.803
	c-0.543,0.016-0.915,1.135-0.915,1.135s-3.722,11.038-5.224,13.273c-1.163,1.731-3.764,1.136-3.764,1.136
	c-1.552-0.378-3.09-0.306-4.27,0.374c-0.037,0.017-0.068,0.027-0.054,0.052c0.001,0.022,0.045,0.012,0.064,0.014
	c0.615,0.017,3.719,0.418,3.826,6.13c0.05,2.499,0.891,4.23,2.743,4.701c0.796,0.2,3.244,0.39,4.145-3.172
	c0.314-1.241,0.126-2.43-0.387-3.501c-0.002-0.006,0-0.009-0.003-0.014c-0.781-1.575-0.642-4.217-0.101-6.451
	c0.386-1.596,2.921-10.07,3.726-12.562C35.496,138.248,35.812,137.792,35.492,137.803z"/>
</svg>
