<?xml version="1.0" encoding="utf-8"?>
<!-- Generator: Adobe Illustrator 16.0.0, SVG Export Plug-In . SVG Version: 6.00 Build 0)  -->
<!DOCTYPE svg PUBLIC "-//W3C//DTD SVG 1.1//EN" "http://www.w3.org/Graphics/SVG/1.1/DTD/svg11.dtd">
<svg version="1.1" id="opening_logo5" xmlns="http://www.w3.org/2000/svg" xmlns:xlink="http://www.w3.org/1999/xlink" x="0px"
	 y="0px" width="100px" height="200px" viewBox="0 0 100 200" enable-background="new 0 0 100 200" xml:space="preserve">
<g>
	<path fill="#07223C" d="M73.896,114.528v8.769c0,1.478-1.191,2.673-2.676,2.673c-1.488,0-2.686-1.195-2.686-2.673v-0.671
		c0-0.225-0.178-0.402-0.4-0.402H32.584c-0.18,0-0.334,0.116-0.389,0.274l0.037,26.792c-0.051,34.001-25.842,42.452-29.865,43.562
		v0.002c-0.016,0-0.049,0.01-0.066-0.002c0-0.018,0.018-0.032,0.027-0.032c0.008-0.007,0.018-0.013,0.018-0.013
		c3.531-1.332,24.471-10.667,24.471-44.587c0-5.27,0-35.644,0-35.644s-0.006-0.061,0.018-0.072c0.027-0.015,0.027,0.012,0.053,0.029
		c1.443,1.6,3.404,1.851,4.543,1.881h35.666c0,0,3.133-0.502,3.244-3.912c0.008-0.026,0-0.091,0.033-0.104
		c0.035-0.018,0.072,0.026,0.094,0.061l3.365,3.884c0,0,0.033,0.03,0.047,0.072C73.896,114.461,73.896,114.528,73.896,114.528z
		 M68.135,121.374c0.223,0,0.4-0.18,0.4-0.404v-5.302c0-0.217-0.178-0.4-0.4-0.408H32.584c-0.223,0.008-0.402,0.191-0.402,0.408
		v5.302c0,0.225,0.18,0.404,0.402,0.404H68.135z"/>
	<g>
		<path fill="#DA3A1F" d="M62.576,170.704c-0.213,0-0.385,0.168-0.385,0.382v7.593c0,0.215,0.172,0.383,0.385,0.383
			c0.209,0,0.383-0.168,0.383-0.383v-7.593C62.959,170.872,62.785,170.704,62.576,170.704z"/>
		<path fill="#DA3A1F" d="M78.461,170.704c-0.209,0-0.383,0.168-0.383,0.382v7.58c0,0.214,0.174,0.38,0.383,0.38
			c0.215,0,0.387-0.166,0.387-0.38v-7.58C78.848,170.872,78.676,170.704,78.461,170.704z"/>
		<path fill="#DA3A1F" d="M78.461,161.221c-0.209,0-0.383,0.169-0.383,0.38v7.396c0,0.204,0.174,0.382,0.383,0.382
			c0.215,0,0.387-0.178,0.387-0.382v-7.396C78.848,161.39,78.676,161.221,78.461,161.221z"/>
		<path fill="#DA3A1F" d="M75.275,161.221c-0.209,0-0.381,0.169-0.381,0.38l-0.006,2.084c0,0.625-0.508,1.137-1.137,1.137h-9.66
			c-0.623,0-1.133-0.512-1.133-1.137v-2.084c0-0.211-0.174-0.38-0.383-0.38c-0.213,0-0.385,0.169-0.385,0.38v7.396
			c0,0.204,0.172,0.382,0.385,0.382c0.209,0,0.383-0.178,0.383-0.382v-2.272c0-0.625,0.51-1.137,1.143-1.137h9.652
			c0.627,0,1.141,0.512,1.141,1.137v2.272c0,0.204,0.172,0.382,0.381,0.382c0.215,0,0.389-0.178,0.389-0.382v-7.396
			C75.664,161.39,75.49,161.221,75.275,161.221z"/>
		<path fill="#DA3A1F" d="M59.551,159.032v22.149h22.146v-22.149H59.551z M80.932,179.271c0,0.632-0.514,1.141-1.146,1.141h-18.33
			c-0.625,0-1.139-0.509-1.139-1.141v-18.332c0-0.624,0.514-1.134,1.139-1.134h18.33c0.633,0,1.146,0.51,1.146,1.134V179.271z"/>
		<path fill="#DA3A1F" d="M75.664,171.086c0-0.214-0.174-0.382-0.389-0.382c-0.209,0-0.381,0.168-0.381,0.382
			c0,1.688-0.918,3.397-2.957,3.397h-4.584c-0.602-0.016-1.088-0.5-1.096-1.104v-2.294c0-0.214-0.174-0.382-0.389-0.382
			s-0.387,0.168-0.387,0.382v7.588c0,0.211,0.172,0.383,0.387,0.383s0.389-0.172,0.389-0.383v-2.274c0-0.627,0.508-1.14,1.135-1.14
			l4.545-0.003c2.039,0,2.957,1.703,2.957,3.397c0,0.214,0.172,0.387,0.381,0.387c0.215,0,0.389-0.173,0.389-0.387
			c0-1.567-0.629-2.826-1.652-3.535c-0.014-0.012-0.014-0.018-0.035-0.033c-0.322-0.239,0-0.435,0-0.435l-0.016-0.001
			C75.012,173.947,75.664,172.676,75.664,171.086z"/>
	</g>
</g>
</svg>
