<?xml version="1.0" encoding="utf-8"?>
<!-- Generator: Adobe Illustrator 16.0.0, SVG Export Plug-In . SVG Version: 6.00 Build 0)  -->
<!DOCTYPE svg PUBLIC "-//W3C//DTD SVG 1.1//EN" "http://www.w3.org/Graphics/SVG/1.1/DTD/svg11.dtd">
<svg version="1.1" id="opening_logo4" xmlns="http://www.w3.org/2000/svg" xmlns:xlink="http://www.w3.org/1999/xlink" x="0px"
	 y="0px" width="100px" height="200px" viewBox="0 0 100 200" enable-background="new 0 0 100 200" xml:space="preserve">
<path fill="#07223C" d="M67.469,132.1v29.413c0,1.475-1.209,2.681-2.688,2.681c-1.482,0-2.678-1.206-2.678-2.681v-0.666
	c0-0.301-0.273-0.407-0.41-0.407H44.65c-0.219,0-0.4,0.185-0.4,0.407v0.666c0,1.475-1.188,2.681-2.668,2.681
	c-1.486,0-2.686-1.206-2.686-2.681v-31.37c0,0,0-0.061,0.018-0.07c0.023-0.014,0.033,0.005,0.051,0.03
	c1.453,1.596,3.412,1.853,4.541,1.884h17.148c0,0,3.145-0.512,3.252-3.911c0-0.031,0-0.097,0.027-0.108
	c0.033-0.021,0.076,0.03,0.105,0.06l3.352,3.881c0,0,0.035,0.033,0.051,0.079C67.469,132.027,67.469,132.1,67.469,132.1z
	 M61.693,159.587c0.137,0,0.41-0.102,0.41-0.4v-25.948c0-0.225-0.18-0.399-0.402-0.399H44.65c-0.219,0-0.4,0.175-0.4,0.399v8.715
	c0,0.295,0.275,0.401,0.4,0.401c2.656,0,10.566,0,10.748,0c0.229,0,2.238-0.354,2.332-2.77c0.008-0.021,0-0.082,0.025-0.095
	c0.035-0.017,0.072,0.03,0.104,0.06c0.025,0.03,2.252,2.594,2.252,2.594s0.387,0.408,0.387,0.64c0,0.233-0.203,0.424-0.439,0.424
	l0,0l0,0H44.65c-0.125,0.005-0.4,0.106-0.4,0.406v6.202c0,0.299,0.275,0.401,0.4,0.401c2.656,0,10.566,0,10.748,0
	c0.229,0,2.238-0.358,2.332-2.768c0.008-0.029,0-0.09,0.025-0.098c0.035-0.017,0.072,0.03,0.104,0.06
	c0.025,0.025,2.252,2.591,2.252,2.591s0.387,0.404,0.387,0.645c0,0.237-0.203,0.426-0.439,0.426v-0.009v0.009H44.65
	c-0.125,0-0.4,0.104-0.4,0.396v7.718c0,0.137,0.104,0.4,0.4,0.4H61.693z M48.639,165.598c-0.025,0-0.025,0.032-0.033,0.098
	c-0.146,0.663-0.967,3.29-5.176,3.143c-2.139-0.075-4.268,1.199-4.062,3.62c0.068,0.747,0.965,2.458,3.602,2.228
	c4.652-0.401,7.082-5.294,5.713-8.979C48.666,165.648,48.654,165.598,48.639,165.598z M57.834,165.729
	c-1.471,0.013-2.846,0.399-3.746,1.201c-0.025,0.027-0.053,0.039-0.035,0.059c0,0.017,0.047,0,0.053,0
	c0.557-0.132,3.438-0.436,4.842,4.276c0.615,2.058,1.762,3.312,3.533,3.312c0.754,0,3.002-0.354,3.002-3.492
	C65.482,167.686,61.258,165.706,57.834,165.729z"/>
</svg>
