<?xml version="1.0" encoding="utf-8"?>
<!-- Generator: Adobe Illustrator 16.0.0, SVG Export Plug-In . SVG Version: 6.00 Build 0)  -->
<!DOCTYPE svg PUBLIC "-//W3C//DTD SVG 1.1//EN" "http://www.w3.org/Graphics/SVG/1.1/DTD/svg11.dtd">
<svg version="1.1" id="opening_logo3" xmlns="http://www.w3.org/2000/svg" xmlns:xlink="http://www.w3.org/1999/xlink" x="0px"
	 y="0px" width="100px" height="200px" viewBox="0 0 100 200" enable-background="new 0 0 100 200" xml:space="preserve">
<g>
	<path fill="#07223C" d="M28.895,87.237c-0.025,0-0.025,0.035-0.033,0.101c-0.145,0.651-0.967,3.288-5.166,3.139
		c-2.154-0.084-4.287,1.197-4.072,3.614c0.072,0.746,0.961,2.472,3.613,2.237c4.641-0.407,7.07-5.303,5.701-8.988
		C28.93,87.284,28.912,87.237,28.895,87.237z M38.092,87.367c-1.471,0.013-2.85,0.396-3.748,1.206
		c-0.031,0.023-0.043,0.033-0.031,0.054c0,0.013,0.043-0.004,0.049-0.007c0.564-0.118,3.449-0.429,4.852,4.277
		c0.605,2.06,1.754,3.322,3.523,3.322c0.754,0,3.002-0.359,3.002-3.494C45.738,89.324,41.521,87.34,38.092,87.367z M45.783,60.327
		v23.278c0,1.479-1.197,2.683-2.68,2.683c-1.477,0-2.686-1.203-2.686-2.683v-0.683c-0.008-0.283-0.266-0.386-0.395-0.386H26.596
		c-0.223,0-0.395,0.18-0.395,0.398v0.67c0,1.479-1.207,2.683-2.684,2.683c-1.48,0-2.689-1.203-2.689-2.683V58.372
		c0,0,0-0.064,0.018-0.077c0.027-0.008,0.033,0.013,0.059,0.035c1.449,1.6,3.418,1.847,4.545,1.88h13.533
		c0,0,3.129-0.503,3.248-3.912c0-0.021,0-0.095,0.027-0.107c0.033-0.018,0.068,0.034,0.102,0.063l3.354,3.886
		c0,0,0.035,0.027,0.051,0.07C45.783,60.253,45.783,60.327,45.783,60.327z M26.596,81.684h13.428c0.129,0,0.387-0.105,0.395-0.388
		V61.463c0-0.226-0.178-0.4-0.4-0.406H26.596c-0.223,0.006-0.395,0.181-0.395,0.406v6.84c0,0.292,0.268,0.398,0.395,0.398
		c2.215,0,7.271,0,7.451,0c0.215,0,2.23-0.364,2.324-2.771c0-0.025,0-0.083,0.027-0.097c0.033-0.02,0.066,0.025,0.104,0.061
		c0.025,0.03,2.24,2.597,2.24,2.597s0.383,0.398,0.383,0.635c0,0.233-0.188,0.427-0.426,0.427v-0.006v0.006H26.596
		c-0.127,0-0.395,0.105-0.395,0.404v4.622c0,0.293,0.258,0.399,0.395,0.399c2.205,0,7.271,0,7.451,0c0.215,0,2.23-0.362,2.324-2.774
		c0-0.026,0-0.077,0.027-0.095c0.033-0.021,0.066,0.03,0.104,0.061c0.025,0.029,2.24,2.592,2.24,2.592s0.383,0.406,0.383,0.636
		c0,0.241-0.188,0.439-0.426,0.439v-0.011v0.011H26.596c-0.127,0-0.395,0.097-0.395,0.396v5.046
		C26.201,81.503,26.373,81.684,26.596,81.684z M62.121,87.237c-0.018,0-0.018,0.035-0.037,0.101
		c-0.145,0.651-0.959,3.288-5.164,3.139c-2.146-0.084-4.275,1.197-4.064,3.614c0.068,0.746,0.959,2.472,3.602,2.237
		c4.65-0.407,7.082-5.303,5.723-8.988C62.152,87.284,62.146,87.237,62.121,87.237z M71.324,87.367
		c-1.48,0.013-2.848,0.396-3.742,1.206c-0.029,0.023-0.055,0.033-0.047,0.054c0.018,0.013,0.051-0.004,0.059-0.007
		c0.557-0.118,3.439-0.429,4.844,4.277c0.605,2.06,1.762,3.322,3.525,3.322c0.76,0,3-0.359,3-3.494
		C78.963,89.324,74.756,87.34,71.324,87.367z M79.006,60.327v23.278c0,1.479-1.195,2.683-2.67,2.683
		c-1.48,0-2.684-1.203-2.684-2.683v-0.683c-0.018-0.283-0.277-0.386-0.404-0.386H59.826c-0.223,0-0.4,0.18-0.4,0.398v0.67
		c0,1.479-1.199,2.683-2.68,2.683s-2.676-1.203-2.676-2.683V58.372c0,0-0.008-0.064,0.01-0.077c0.025-0.008,0.033,0.013,0.061,0.035
		c1.445,1.6,3.402,1.847,4.533,1.88h13.531c0,0,3.141-0.503,3.25-3.912c0-0.021,0-0.095,0.035-0.107
		c0.025-0.018,0.07,0.034,0.096,0.063l3.357,3.886c0,0,0.037,0.027,0.053,0.07C79.006,60.253,79.006,60.327,79.006,60.327z
		 M59.826,81.684h13.422c0.127,0,0.387-0.105,0.404-0.388V61.463c0-0.226-0.189-0.4-0.404-0.406H59.826
		c-0.223,0.006-0.4,0.181-0.4,0.406v6.84c0,0.292,0.264,0.398,0.4,0.398c2.209,0,7.264,0,7.443,0c0.223,0,2.232-0.364,2.326-2.771
		c0.008-0.025,0-0.083,0.025-0.097c0.035-0.02,0.076,0.025,0.105,0.061c0.025,0.03,2.238,2.597,2.238,2.597s0.395,0.398,0.395,0.635
		c0,0.233-0.188,0.427-0.426,0.427v-0.006l-0.01,0.006H59.826c-0.137,0-0.4,0.105-0.4,0.404v4.622c0,0.293,0.264,0.399,0.4,0.399
		c2.199,0,7.264,0,7.443,0c0.223,0,2.232-0.362,2.326-2.774c0.008-0.026,0-0.077,0.025-0.095c0.035-0.021,0.076,0.03,0.105,0.061
		c0.025,0.029,2.238,2.592,2.238,2.592s0.395,0.406,0.395,0.636c0,0.241-0.188,0.439-0.426,0.439v-0.011l-0.01,0.011H59.826
		c-0.137,0-0.4,0.097-0.4,0.396v5.046C59.426,81.503,59.604,81.684,59.826,81.684z"/>
</g>
</svg>
