<?xml version="1.0" encoding="utf-8"?>
<!-- Generator: Adobe Illustrator 16.0.0, SVG Export Plug-In . SVG Version: 6.00 Build 0)  -->
<!DOCTYPE svg PUBLIC "-//W3C//DTD SVG 1.1//EN" "http://www.w3.org/Graphics/SVG/1.1/DTD/svg11.dtd">
<svg version="1.1" id="opening_logo1" xmlns="http://www.w3.org/2000/svg" xmlns:xlink="http://www.w3.org/1999/xlink" x="0px"
	 y="0px" width="100px" height="200px" viewBox="0 0 100 200" enable-background="new 0 0 100 200" xml:space="preserve">
<path fill="#07223C" d="M45.773,80.886c-0.273-1.668-0.314-3.199-0.314-3.974c0-2.494-0.147-5.185-1.237-6.235
	c-0.661-0.637-1.38-0.959-2.138-0.959c-0.846,0-1.436,0.407-1.441,0.412c-0.068,0.047-0.159,0.038-0.216-0.021
	c-0.057-0.059-0.062-0.151-0.012-0.216c0.059-0.077,1.481-1.891,4.396-1.891c3.167,0,3.509,2.931,3.509,4.19
	c0,0.717-0.158,2.46-0.325,4.305c-0.108,1.19-0.22,2.418-0.293,3.418c1.334-0.527,2.75-0.794,4.213-0.794
	c1.561,0,2.682,0.391,3.332,1.161c0.75,0.888,0.582,1.94,0.574,1.985c-0.004,0.036-0.508,4.822-5.378,4.822
	c-1.978,0-3.398-1.424-4.226-4.231c-1.957,1.758-2.949,4.472-2.949,8.071c0,2.896,1.047,4.964,3.109,6.146
	c1.934,1.108,4.039,1.007,4.058,1.005c0.039,0.003,0.27,0.042,0.668,0.042c1.341,0,4.019-0.413,6.876-3.181
	c0.057-0.054,0.141-0.062,0.207-0.021c0.064,0.042,0.092,0.123,0.066,0.196c-0.02,0.054-1.99,5.324-8.17,5.324
	c-6.302,0-9.916-3.277-9.916-8.993C40.166,87.221,42.363,83.088,45.773,80.886z M47.633,81.851c0.113,1.767,1.261,4.339,2.81,4.339
	c1.882,0,2.96-1.248,2.96-3.424c0-1.742-0.938-2.002-1.496-2.002c-0.113,0-0.186,0.012-0.191,0.013l-0.094,0.002
	C51.274,80.778,49.473,80.83,47.633,81.851z"/>
</svg>
