<?xml version="1.0" encoding="utf-8"?>
<!-- Generator: Adobe Illustrator 16.0.0, SVG Export Plug-In . SVG Version: 6.00 Build 0)  -->
<!DOCTYPE svg PUBLIC "-//W3C//DTD SVG 1.1//EN" "http://www.w3.org/Graphics/SVG/1.1/DTD/svg11.dtd">
<svg version="1.1" id="opening_logo0" xmlns="http://www.w3.org/2000/svg" xmlns:xlink="http://www.w3.org/1999/xlink" x="0px"
	 y="0px" width="100px" height="200px" viewBox="0 0 100 200" enable-background="new 0 0 100 200" xml:space="preserve">
<path fill="#07223C" d="M45.116,44.88c1.361,3.692-1.061,8.585-5.712,8.993c-2.637,0.228-3.535-1.489-3.604-2.234
	c-0.216-2.423,1.926-3.699,4.062-3.621c4.211,0.154,5.022-2.482,5.166-3.139c0.019-0.069,0.019-0.096,0.045-0.096
	C45.091,44.783,45.098,44.831,45.116,44.88z M50.479,46.17c0.007,0.018,0.043,0,0.061-0.002c0.558-0.117,3.437-0.436,4.831,4.274
	c0.615,2.061,1.764,3.32,3.533,3.32c0.762,0,3.004-0.357,3.004-3.497c0-3.404-4.213-5.386-7.641-5.356
	c-1.48,0.013-2.848,0.395-3.752,1.205C50.486,46.136,50.461,46.152,50.479,46.17z M63.893,11.28v29.412
	c0,1.478-1.195,2.68-2.676,2.68s-2.689-1.202-2.689-2.68v-0.669c0-0.3-0.275-0.397-0.4-0.397H41.089
	c-0.225,0-0.397,0.177-0.397,0.397v0.669c0,1.478-1.205,2.68-2.685,2.68c-1.479,0-2.677-1.202-2.677-2.68V9.323
	c0,0-0.007-0.064,0.011-0.072c0.023-0.014,0.03,0.005,0.058,0.027c1.445,1.602,3.403,1.852,4.543,1.882h17.15
	c0,0,3.129-0.503,3.252-3.913c0-0.024,0-0.088,0.025-0.097c0.031-0.024,0.076,0.025,0.084,0.055l3.369,3.881
	c0,0,0.035,0.033,0.053,0.074C63.893,11.205,63.893,11.28,63.893,11.28z M58.127,38.77c0.125,0,0.4-0.105,0.4-0.402V12.42
	c0-0.228-0.178-0.407-0.4-0.407H41.089c-0.225,0-0.397,0.18-0.397,0.407v8.719c0,0.293,0.268,0.4,0.397,0.4
	c2.641,0,10.562,0,10.745,0c0.223,0,2.238-0.365,2.33-2.775c0-0.027,0-0.083,0.025-0.094c0.037-0.023,0.078,0.028,0.096,0.056
	c0.033,0.033,2.25,2.595,2.25,2.595s0.385,0.405,0.385,0.636c0,0.24-0.188,0.435-0.428,0.435v-0.004v0.004H41.089
	c-0.141,0-0.397,0.107-0.397,0.4v6.206c0,0.3,0.268,0.403,0.397,0.403c2.641,0,10.562,0,10.745,0c0.223,0,2.238-0.365,2.33-2.773
	c0-0.023,0-0.079,0.025-0.095c0.037-0.018,0.078,0.027,0.096,0.061c0.033,0.03,2.25,2.593,2.25,2.593s0.385,0.4,0.385,0.638
	c0,0.233-0.188,0.431-0.428,0.431v-0.007v0.007H41.089c-0.13,0-0.397,0.1-0.397,0.398v7.715c0,0.131,0.106,0.402,0.397,0.402H58.127
	z"/>
</svg>
