<svg id="レイヤー_1" data-name="レイヤー 1" xmlns="http://www.w3.org/2000/svg" width="81.001" height="87.006" viewBox="0 0 81.001 87.006"><defs><style>.cls-1{fill:#fff;}</style></defs><path class="cls-1" d="M80.923,37.715c-4.461,4.368-13.564,9.526-28.184,12.013a82.6843,82.6843,0,0,0,3.464-9.303c1.755.137,3.497.199,5.29.199a64.1448,64.1448,0,0,0,6.657-.343A43.8461,43.8461,0,0,0,80.595,37.24a.4883.4883,0,0,1,.094-.019.2953.2953,0,0,1,.234.494Zm-10.428-.908a57.3692,57.3692,0,0,1-13.429.466,61.3472,61.3472,0,0,0,1.96-13.766,61.8352,61.8352,0,0,0,10.108,1.025h.022a.4849.4849,0,0,1,.415.329,36.6959,36.6959,0,0,1,1.277,9.556c0,.764-.024,1.363-.061,2.015A.4741.4741,0,0,1,70.495,36.807ZM67.689,21.123a61.7487,61.7487,0,0,1-8.707-1.03c-.328-6.465-2.056-11.848-5.154-15.248a34.9254,34.9254,0,0,1,14.23,15.739.3893.3893,0,0,1-.369.539ZM44.82,15.994c2.17-5.66,3.868-10.308,4.804-13.221,4.521,2.312,6.75,8.489,6.694,16.764A76.4,76.4,0,0,1,44.82,15.994ZM31.162,9.403C37.27,3.594,43.464.747,48.167,2.198c-1.488,2.664-3.632,7.005-6.31,12.614A79.2724,79.2724,0,0,1,31.162,9.403ZM22.628,3.164a.3252.3252,0,0,1-.095-.227.3181.3181,0,0,1,.181-.284A33.6631,33.6631,0,0,1,36.068.006,36.3627,36.3627,0,0,1,43.283.73c-4.605.453-9.621,3.015-14.396,7.167A41.3406,41.3406,0,0,1,22.628,3.164Zm-5.61,19.412a45.5919,45.5919,0,0,1-8.944-8.218.4778.4778,0,0,1-.086-.278.453.453,0,0,1,.102-.269v-.006A36.6581,36.6581,0,0,1,18.429,4.731a.995.995,0,0,1,.391-.091.8487.8487,0,0,1,.563.222,82.8113,82.8113,0,0,0,6.921,5.521A67.3285,67.3285,0,0,0,17.018,22.576Zm-1.695,2.869c-1.189,2.156-2.311,4.417-3.338,6.771A79.2786,79.2786,0,0,0,7.727,44.191a16.3073,16.3073,0,0,1-6.144-7.327c-.01-.048-.099-.324-.115-.41a13.2918,13.2918,0,0,1-.288-3.411A34.2174,34.2174,0,0,1,5.664,17.43a.3685.3685,0,0,1,.291-.149.3634.3634,0,0,1,.268.122A48.4118,48.4118,0,0,0,15.323,25.445ZM11.466,57.77v2.659a.6447.6447,0,0,1-.65.63H4.832v1.972H9.38a.6127.6127,0,0,1,.639.575v1.913a.6228.6228,0,0,1-.631.619H4.832v1.949h5.984a.6214.6214,0,0,1,.65.607v2.547a.6381.6381,0,0,1-.65.626H.716a.6051.6051,0,0,1-.58-.626V57.77a.613.613,0,0,1,.58-.636h10.1A.6452.6452,0,0,1,11.466,57.77ZM5.128,77.585l3.426,9.251H6.892l-.706-1.994H2.372l-.709,1.994H-.001l3.472-9.249Zm.5,5.767L4.304,79.805,2.981,83.352Zm5.563-2.936a4.0945,4.0945,0,0,1,1.954-.471,4.17,4.17,0,0,1,1.8.389,3.8058,3.8058,0,0,1,1.211.939l.049.058-1.269.664-.032-.034a2.2161,2.2161,0,0,0-.768-.496,2.25,2.25,0,0,0-.984-.187,2.361,2.361,0,0,0-1.684.615,2.174,2.174,0,0,0-.656,1.591,2.0517,2.0517,0,0,0,.634,1.531,1.9991,1.9991,0,0,0,1.637.7,2.4916,2.4916,0,0,0,1.819-.807l.034-.047,1.199.884-.052.048a3.8658,3.8658,0,0,1-2.964,1.219,3.7073,3.7073,0,0,1-2.775-1.029,3.783,3.783,0,0,1-.984-2.521,3.3836,3.3836,0,0,1,.469-1.778A3.4944,3.4944,0,0,1,11.191,80.416Zm1.711-9.019a1.3156,1.3156,0,0,1,.027-.149l5.42-13.817a.4647.4647,0,0,1,.443-.297h2.97a.5533.5533,0,0,1,.494.293l5.251,13.829a.3779.3779,0,0,1,.018.141.48.48,0,0,1-.488.47h-3.66a.4288.4288,0,0,1-.404-.275l-2.694-6.667-2.643,6.674a.4667.4667,0,0,1-.428.268H13.386A.489.489,0,0,1,12.902,71.397Zm6.231,6.196H20.6v2.534h1.706v1.199H20.6v5.51H19.133v-5.51H17.492V80.127h1.641ZM32.2,79.155H29.328v1.972H32.2v1.414H29.328v4.295H27.775v-9.12H32.2Zm-3.167-7.914V57.77a.6548.6548,0,0,1,.652-.636h8.01a4.2991,4.2991,0,0,1,4.306,4.309,4.1492,4.1492,0,0,1-2.221,3.613l3.385,6.127a.3657.3657,0,0,1,.053.214.4746.4746,0,0,1-.473.47H38.503a.46.46,0,0,1-.414-.231l-3.155-5.99a.78.78,0,0,1-.079-.223.4586.4586,0,0,1,.385-.454V64.96a2.8255,2.8255,0,0,0,2.308-2.731,2.7157,2.7157,0,0,0-3.025-2.893h-.701V71.297a.6081.6081,0,0,1-.61.57H29.685A.6476.6476,0,0,1,29.033,71.241Zm5.906,9.61a3.39,3.39,0,0,1,2.318-.906,3.57,3.57,0,0,1,1.793.476,3.4888,3.4888,0,0,1,1.299,1.276,3.3509,3.3509,0,0,1,.466,1.722,3.5643,3.5643,0,0,1-.466,1.771,2.9684,2.9684,0,0,1-1.283,1.356,3.5537,3.5537,0,0,1-1.8.466,3.503,3.503,0,0,1-2.483-1.003,3.64,3.64,0,0,1-1.043-2.575A3.2046,3.2046,0,0,1,34.939,80.851Zm.888,4.131a2.0391,2.0391,0,0,0,1.466.706,2.2959,2.2959,0,0,0,1.462-3.8,2.0727,2.0727,0,0,0-2.921.012,2.3508,2.3508,0,0,0-.007,3.082Zm7.733-4.085a2.0605,2.0605,0,0,1,.722-.725,2.0833,2.0833,0,0,1,.948-.251,1.95,1.95,0,0,1,.829.196l.036.016v1.35l-.094-.065a1.6324,1.6324,0,0,0-.755-.183,1.4475,1.4475,0,0,0-.24.021,1.2555,1.2555,0,0,0-1.005.749,3.8912,3.8912,0,0,0-.208,1.745v3.086H42.351V80.127H43.56Zm4.92-30.562a105.644,105.644,0,0,1-12.412.696c-2.202,0-4.214-.061-6.098-.198,1.502-3.65,3.117-7.3,4.829-11.175.551-1.186,1.057-2.349,1.558-3.499a76.6207,76.6207,0,0,0,16.191,3.896c-.916,2.74-1.977,5.452-3.188,8.352C49.066,49.063,48.778,49.699,48.48,50.335Zm7.702-27.379a66.13,66.13,0,0,1-2.67,13.949,72.9924,72.9924,0,0,1-15.824-3.808c2.148-5.006,4.169-9.729,5.887-13.968A79.9477,79.9477,0,0,0,56.182,22.956ZM25.66,50.41a42.65,42.65,0,0,1-14.671-4.343,69.8809,69.8809,0,0,1,4.13-12.37c1.017-2.194,2.015-4.296,3.073-6.323a89.8193,89.8193,0,0,0,14.403,7.351c-.487,1.108-.976,2.232-1.475,3.363C29.264,42.385,27.38,46.43,25.66,50.41ZM40.356,17.851c-1.956,4.18-4.114,8.841-6.381,13.834a89.4982,89.4982,0,0,1-14.166-7.246,73.8565,73.8565,0,0,1,8.97-12.557A81.829,81.829,0,0,0,40.356,17.851Zm3.186,42.578V57.77a.6456.6456,0,0,1,.64-.636h12.08a.6424.6424,0,0,1,.64.612v2.698a.6494.6494,0,0,1-.64.615H52.548V71.241a.6329.6329,0,0,1-.63.626H48.366a.6372.6372,0,0,1-.649-.626V61.059H44.182A.6452.6452,0,0,1,43.542,60.429Zm8.435,24.9h2.67v1.507H50.474v-9.12h1.503Zm5.396-8.024a.97.97,0,1,1-.981.968A.9813.9813,0,0,1,57.373,77.305Zm.727,9.531H56.647V80.127H58.1Zm1.105-29.702h3.588a.6428.6428,0,0,1,.642.636v5.261h4.663V57.77a.6321.6321,0,0,1,.628-.636h3.392a.6375.6375,0,0,1,.644.636V71.241a.6285.6285,0,0,1-.636.626h-3.4a.6217.6217,0,0,1-.628-.626V66.138H63.435v5.103a.6329.6329,0,0,1-.63.626H59.192a.6186.6186,0,0,1-.599-.626V57.77A.6317.6317,0,0,1,59.205,57.134Zm2.206,21.274a1.1212,1.1212,0,0,1,.439-.832,1.9209,1.9209,0,0,1,1.14-.29,10.53,10.53,0,0,1,1.455.191l.044.012v1.115l-.071-.022a4.7277,4.7277,0,0,0-.751-.075,1.0536,1.0536,0,0,0-.552.113.7312.7312,0,0,0-.294.688v.819h1.668v1.171H62.821v5.538H61.363V81.298H59.868V80.127h1.495C61.37,79.838,61.392,78.621,61.411,78.408Zm7.754,1.537a3.4383,3.4383,0,0,1,2.583,1.01,3.5973,3.5973,0,0,1,.981,2.661v.176H67.073a2.2165,2.2165,0,0,0,2.172,1.995,2.3083,2.3083,0,0,0,.501-.051,2.6407,2.6407,0,0,0,1.283-.77l.036-.023.041.018,1.03.693.068.032-.053.058a3.0768,3.0768,0,0,1-1.124.905,3.9193,3.9193,0,0,1-1.767.363,3.68,3.68,0,0,1-2.6-.978,3.6193,3.6193,0,0,1-1.005-2.562,3.3451,3.3451,0,0,1,.995-2.517A3.4859,3.4859,0,0,1,69.165,79.945Zm2.151,2.773a2.05,2.05,0,0,0-2.071-1.585,2.09,2.09,0,0,0-2.104,1.585Z" transform="translate(0.001 -0.006)"/></svg>