<svg id="レイヤー_1" data-name="レイヤー 1" xmlns="http://www.w3.org/2000/svg" width="138.988" height="28.965" viewBox="0 0 138.988 28.965"><defs><style>.cls-1{fill:#0086cd;}.cls-2{fill:#e60012;}</style></defs><path d="M138.999,21.659l-1.49,2.804a28.7889,28.7889,0,0,1-6.877-2.839v3.049h-3.193V21.589a14.003,14.003,0,0,1-6.572,2.908l-1.777-2.733a19.6725,19.6725,0,0,0,5.656-1.661h-5.685V17.48h8.225v-.659h-.476v-.014h-2.125V15.645a44.6835,44.6835,0,0,1-4.475,1.582l-1.198-2.992a24.6394,24.6394,0,0,0,3.089-.859,15.6024,15.6024,0,0,0-2.835-1.699l1.85-2.505a14.596,14.596,0,0,1,3.5,2.004l-1.69,1.989a3.69,3.69,0,0,1,.687-.412l1.072,2.26v-4.79h2.395l.377-.943h3.355l-.386.943h2.699v.964a12.1284,12.1284,0,0,0,2.988-2.112l2.248,2.139a12.7039,12.7039,0,0,1-2.426,1.966,16.8731,16.8731,0,0,1,2.814,1.742l-1.78,2.519h1.798v2.662h-5.139A20.1872,20.1872,0,0,0,138.999,21.659Zm-9.05-9.576h-2.17v.607h2.17Zm0,2.383h-2.17v.594h2.17Zm3.176-2.661v2.873l1.316-1.567Zm3.402,5.636a16.7592,16.7592,0,0,0-3.402-2.223v1.589H131.29v.014h-.702v.62Zm-2.305-7.824h-3.078V8.688H126.61v.929h-3.158V8.688h-4.447V6.034h4.447V5h3.158V6.034h4.534V5h3.078V6.034h4.412V8.688h-4.412ZM116.98,21.835l-1.529,3.009a13.6836,13.6836,0,0,1-6.042-2.881l-.05,1.994a37.0236,37.0236,0,0,1-7.836,1.038l-.78-2.531c-.818.455-1.641.842-2.324,1.145l-1.797-2.733a9.92,9.92,0,0,0,4.35-2.075H97.018v-2.71h9.335a3.0293,3.0293,0,0,1-.034-.403c-.726-.025-.787-.239-1.038-1.029l.602-.266V13.98h-1.004v1.725h-3.048V13.98H100.7v1.725H97.739V12.057h4.092v-.598H96.995V9.256h1.237L96.674,8.004a6.7058,6.7058,0,0,0,1.856-2.64l2.635.38a6.714,6.714,0,0,1-.247.802h.913V5.344h3.048V6.546h3.622V8.619h-3.622v.637h3.892v2.203h-3.892v.598h3.482V14.46h1.308c-.011.532-.029,1.092-.001,1.631h6.828V18.73h-2.468l1.852,1.105a8.6351,8.6351,0,0,1-1.857,1.363A19.6779,19.6779,0,0,0,116.98,21.835Zm-13.548-1.252a17.25,17.25,0,0,1-2.144,1.569,10.2684,10.2684,0,0,0,2.144-.223ZM101.831,8.619H99.979c-.196.074-.275.381-.923.637h2.775Zm5.216,10.256h-.573v2.76a18.12,18.12,0,0,0,2.027-.443A7.26,7.26,0,0,1,107.047,18.875Zm3.109-.145a5.0078,5.0078,0,0,0,1.049,1.167,3.2094,3.2094,0,0,0,1.413-1.167Zm2.173-3.201h-1.516l-.935-2.59h2.047c.672,0,1.208-.092,1.208-.87V5.679h2.968v7.4C116.101,15.094,115.081,15.529,112.329,15.529Zm-2.964-9.067h2.896V12.38h-2.896ZM90.546,24.621a18.0575,18.0575,0,0,0-2.733-3.873,18.83,18.83,0,0,1-10.361,3.903v-4.84c5.721-.694,9.967-3.836,11.138-8.603.155-.624-.126-.805-.52-.805H77.469v-5H92.606c1.197,0,2.03.571,2.03,1.805a18.6589,18.6589,0,0,1-3.356,9.657,54.05,54.05,0,0,1,5.145,7.756ZM60.052,12.529H73.727a2.011,2.011,0,0,1,2.09,2.193v2.481H60.052ZM48.72,19.224V14.451c2.94,0,3.904-1.506,3.904-2.94,0-.476.128-1.091-.516-1.091H38.013V5.541H54.601c2.234,0,3.067.619,3.067,4.083C57.668,12.949,56.356,19.224,48.72,19.224Zm-5.891-5.159V12.493h4.987v1.938c0,5.981-3.639,9.933-9.815,10.371V20.106C41.476,19.688,42.829,17.767,42.829,14.065Z" transform="translate(-0.011 -0.013)"/><path class="cls-1" d="M27.969,14.575a.1849.1849,0,0,1-.117.15,21.5934,21.5934,0,0,1-5.324.197,23.4445,23.4445,0,0,0,.792-5.44,23.3558,23.3558,0,0,0,3.98.425h.006a.1966.1966,0,0,1,.17.128,14.3256,14.3256,0,0,1,.517,3.834C27.993,14.143,27.98,14.35,27.969,14.575ZM26.718,8.554a23.25,23.25,0,0,1-3.417-.431,9.8672,9.8672,0,0,0-2.068-6.17,13.5641,13.5641,0,0,1,5.629,6.375.181.181,0,0,1,.011.063A.1589.1589,0,0,1,26.718,8.554ZM17.639,6.443c.882-2.309,1.548-4.176,1.929-5.302,1.78.881,2.679,3.369,2.656,6.751A29.5358,29.5358,0,0,1,17.639,6.443ZM12.228,3.777C14.647,1.483,17.107.306,18.973.905c-.579,1.053-1.447,2.8-2.516,5.056A38.0072,38.0072,0,0,1,12.228,3.777Zm-.921-.607a17.7118,17.7118,0,0,1-2.47-1.864.148.148,0,0,1-.038-.095.1118.1118,0,0,1,.075-.113A12.8476,12.8476,0,0,1,14.192.013,14.2613,14.2613,0,0,1,17.034.3,11.2016,11.2016,0,0,0,11.307,3.17ZM6.62,9.093A16.7689,16.7689,0,0,1,3.038,5.782a.21.21,0,0,1-.035-.111.1943.1943,0,0,1,.041-.115V5.553A13.7384,13.7384,0,0,1,7.188,1.924a.8272.8272,0,0,1,.161-.019.4245.4245,0,0,1,.222.053,28.3632,28.3632,0,0,0,2.713,2.196A30.3161,30.3161,0,0,0,6.62,9.093Zm9.279-1.879c-.794,1.685-1.635,3.484-2.536,5.539A40.059,40.059,0,0,1,7.747,9.867a29.3456,29.3456,0,0,1,3.514-5.108A34.2917,34.2917,0,0,0,15.899,7.214Zm6.271,2.04a26.4772,26.4772,0,0,1-1.061,5.517,29.1548,29.1548,0,0,1-6.295-1.448c.871-2.044,1.643-3.899,2.332-5.594A28.6718,28.6718,0,0,0,22.17,9.254Z" transform="translate(-0.011 -0.013)"/><path class="cls-2" d="M31.949,15.176c-1.735,1.799-5.351,3.916-11.143,4.907a34.1226,34.1226,0,0,0,1.376-3.797c.71.05,1.381.078,2.087.078a22.0291,22.0291,0,0,0,2.61-.142,16.01,16.01,0,0,0,4.938-1.246c.017-.004.039-.008.039-.008a.1344.1344,0,0,1,.126.124A.13.13,0,0,1,31.949,15.176ZM19.115,20.325a41.2259,41.2259,0,0,1-4.884.282c-.868,0-1.676-.026-2.436-.084.605-1.457,1.26-2.962,1.94-4.547.209-.49.411-.968.596-1.437a28.7073,28.7073,0,0,0,6.397,1.592A31.5778,31.5778,0,0,1,19.48,19.53C19.362,19.802,19.242,20.068,19.115,20.325Zm-9.038.029a17.9091,17.9091,0,0,1-5.801-1.74,25.7822,25.7822,0,0,1,1.67-4.982c.382-.896.791-1.776,1.217-2.601a33.5578,33.5578,0,0,0,5.691,3.015c-.2.38-.392.814-.594,1.282C11.511,17.102,10.773,18.769,10.077,20.354ZM2.985,17.833A6.8169,6.8169,0,0,1,.6,14.818c-.005-.021-.04-.136-.048-.17A4.8208,4.8208,0,0,1,.443,13.36,13.9757,13.9757,0,0,1,2.192,7.074a.1452.1452,0,0,1,.1-.065.138.138,0,0,1,.101.052A17.9543,17.9543,0,0,0,6.027,10.29a23.8877,23.8877,0,0,0-1.345,2.743A27.3288,27.3288,0,0,0,2.985,17.833Zm1.486,5.545v1.065c0,.11-.121.165-.265.165H1.895v.818H3.627a.2516.2516,0,0,1,.264.238v.779a.2584.2584,0,0,1-.261.257H1.895v.744H4.206a.2406.2406,0,0,1,.265.23v1.061a.2468.2468,0,0,1-.265.243H.255a.2378.2378,0,0,1-.244-.243V23.378a.2448.2448,0,0,1,.244-.249H4.206A.2534.2534,0,0,1,4.471,23.378Zm2.755-.14a.2014.2014,0,0,1,.179-.109H8.569a.2168.2168,0,0,1,.179.107l2.075,5.505a.2349.2349,0,0,1,.007.068.1761.1761,0,0,1-.199.169H9.198a.18.18,0,0,1-.164-.091l-1.03-2.692L6.933,28.89a.1853.1853,0,0,1-.162.088H5.246a.1773.1773,0,0,1-.195-.169.5714.5714,0,0,1,.008-.071Zm4.454-.109h3.174a1.6789,1.6789,0,0,1,1.693,1.637,1.66,1.66,0,0,1-.851,1.484l1.319,2.458a.2259.2259,0,0,1,.021.101.1738.1738,0,0,1-.191.169H15.184a.224.224,0,0,1-.169-.069l-1.234-2.413a.369.369,0,0,1-.028-.095.1908.1908,0,0,1,.149-.19v-.002a1.148,1.148,0,0,0,.892-1.121,1.03,1.03,0,0,0-1.163-1.06h-.287v4.733a.2234.2234,0,0,1-.239.217H11.68a.2474.2474,0,0,1-.261-.243V23.378A.2542.2542,0,0,1,11.68,23.129Zm5.732,0h4.794a.2466.2466,0,0,1,.258.239v1.077c-.005.108-.117.163-.258.163H20.728v4.127a.24.24,0,0,1-.238.243H19.072a.2357.2357,0,0,1-.249-.243V24.608H17.412c-.139,0-.247-.055-.247-.165V23.378A.2412.2412,0,0,1,17.412,23.129Zm5.976,0h1.388a.2509.2509,0,0,1,.26.249v2.048h1.825V23.378a.2461.2461,0,0,1,.255-.249h1.365a.2511.2511,0,0,1,.265.249v5.357a.2434.2434,0,0,1-.261.243H27.116a.239.239,0,0,1-.255-.243V26.7H25.036v2.035a.2431.2431,0,0,1-.256.243H23.386a.2349.2349,0,0,1-.239-.243V23.378A.2436.2436,0,0,1,23.388,23.129Z" transform="translate(-0.011 -0.013)"/></svg>